<svg width="20" height="20" viewBox="0 0 20 20" fill="none" xmlns="http://www.w3.org/2000/svg">
<path fill-rule="evenodd" clip-rule="evenodd" d="M4.53033 15.5511C4.23744 15.2583 4.23744 14.7834 4.53033 14.4905L15.4905 3.53033C15.7834 3.23744 16.2583 3.23744 16.5511 3.53033C16.844 3.82322 16.844 4.2981 16.5511 4.59099L5.59099 15.5511C5.2981 15.844 4.82322 15.844 4.53033 15.5511Z" fill="white"/>
<path d="M4.53034 3.53033C4.82323 3.23744 5.29811 3.23744 5.591 3.53033L16.5512 14.4905C16.844 14.7834 16.844 15.2583 16.5512 15.5511C16.2583 15.844 15.7834 15.844 15.4905 15.5511L4.53034 4.59099C4.23745 4.2981 4.23745 3.82322 4.53034 3.53033Z" fill="white"/>
</svg>
