<svg width="18" height="12" viewBox="0 0 18 12" fill="none" xmlns="http://www.w3.org/2000/svg">
<path fill-rule="evenodd" clip-rule="evenodd" d="M0.5 0.75C0.5 0.335786 0.835786 0 1.25 0H16.75C17.1642 0 17.5 0.335786 17.5 0.75C17.5 1.16421 17.1642 1.5 16.75 1.5H1.25C0.835786 1.5 0.5 1.16421 0.5 0.75ZM0.5 6C0.5 5.58579 0.835786 5.25 1.25 5.25H16.75C17.1642 5.25 17.5 5.58579 17.5 6C17.5 6.41421 17.1642 6.75 16.75 6.75H1.25C0.835786 6.75 0.5 6.41421 0.5 6ZM0.5 11.25C0.5 10.8358 0.835786 10.5 1.25 10.5H16.75C17.1642 10.5 17.5 10.8358 17.5 11.25C17.5 11.6642 17.1642 12 16.75 12H1.25C0.835786 12 0.5 11.6642 0.5 11.25Z" fill="#DF1A32"/>
</svg>
