<svg width="50" height="48" viewBox="0 0 50 48" fill="none" xmlns="http://www.w3.org/2000/svg">
    <path d="M2.5 47.6C1.79167 47.6 1.19833 47.3595 0.72 46.8785C0.241667 46.3975 0.00166667 45.8029 0 45.0947C0 44.3849 0.24 43.7903 0.72 43.311C1.2 42.8316 1.79333 42.5911 2.5 42.5895H22.5V14.5932C21.4167 14.2174 20.4792 13.6328 19.6875 12.8395C18.8958 12.0461 18.3125 11.1067 17.9375 10.0211H10L16.875 26.18C17.0833 26.6393 17.2083 27.1094 17.25 27.5905C17.2917 28.0715 17.2708 28.5617 17.1875 29.061C16.8125 30.9817 15.7817 32.464 14.095 33.5079C12.4083 34.5517 10.6267 35.0737 8.75 35.0737C6.875 35.0737 5.09416 34.5517 3.4075 33.5079C1.72083 32.464 0.689167 30.9817 0.3125 29.061C0.229167 28.56 0.208333 28.0698 0.25 27.5905C0.291666 27.1111 0.416667 26.641 0.625 26.18L7.5 10.0211H5C4.29167 10.0211 3.69833 9.78138 3.22 9.30204C2.74167 8.8227 2.50167 8.22728 2.5 7.51579C2.5 6.80596 2.74 6.21138 3.22 5.73204C3.7 5.2527 4.29333 5.0122 5 5.01053H17.9375C18.4375 3.54912 19.3333 2.3491 20.625 1.41046C21.9167 0.471824 23.375 0.00167017 25 0C26.625 0 28.0833 0.470154 29.375 1.41046C30.6667 2.35077 31.5625 3.55079 32.0625 5.01053H45C45.7083 5.01053 46.3025 5.25103 46.7825 5.73204C47.2625 6.21305 47.5017 6.80763 47.5 7.51579C47.5 8.22561 47.26 8.82103 46.78 9.30204C46.3 9.78305 45.7067 10.0227 45 10.0211H42.5L49.375 26.18C49.5833 26.6393 49.7083 27.1094 49.75 27.5905C49.7917 28.0715 49.7708 28.5617 49.6875 29.061C49.3125 30.9817 48.2817 32.464 46.595 33.5079C44.9083 34.5517 43.1267 35.0737 41.25 35.0737C39.375 35.0737 37.5942 34.5517 35.9075 33.5079C34.2208 32.464 33.1892 30.9817 32.8125 29.061C32.7292 28.56 32.7083 28.0698 32.75 27.5905C32.7917 27.1111 32.9167 26.641 33.125 26.18L40 10.0211H32.0625C31.6875 11.1067 31.1042 12.0461 30.3125 12.8395C29.5208 13.6328 28.5833 14.2174 27.5 14.5932V42.5895H47.5C48.2083 42.5895 48.8025 42.83 49.2825 43.311C49.7625 43.792 50.0017 44.3866 50 45.0947C50 45.8046 49.76 46.4 49.28 46.881C48.8 47.362 48.2067 47.6017 47.5 47.6H2.5ZM36.5625 27.5579H45.9375L41.25 16.66L36.5625 27.5579ZM4.0625 27.5579H13.4375L8.75 16.66L4.0625 27.5579ZM25 10.0211C25.7083 10.0211 26.3025 9.78055 26.7825 9.29953C27.2625 8.81852 27.5017 8.22394 27.5 7.51579C27.5 6.80596 27.26 6.21138 26.78 5.73204C26.3 5.2527 25.7067 5.0122 25 5.01053C24.2917 5.01053 23.6983 5.25103 23.22 5.73204C22.7417 6.21305 22.5017 6.80763 22.5 7.51579C22.5 8.22561 22.74 8.82103 23.22 9.30204C23.7 9.78305 24.2933 10.0227 25 10.0211Z" fill="url(#paint0_radial_2_72)"/>
    <defs>
        <radialGradient id="paint0_radial_2_72" cx="0" cy="0" r="1" gradientUnits="userSpaceOnUse" gradientTransform="translate(25 23.8) rotate(89.6624) scale(28.7686 30.2191)">
            <stop stop-color="#F8DE58"/>
            <stop offset="1" stop-color="#F99016"/>
        </radialGradient>
    </defs>
</svg>
