<svg width="54" height="38" viewBox="0 0 54 38" fill="none" xmlns="http://www.w3.org/2000/svg">
    <path d="M6.075 4.725C6.075 3.47185 6.57281 2.27003 7.45892 1.38392C8.34503 0.497811 9.54685 0 10.8 0C12.0531 0 13.255 0.497811 14.1411 1.38392C15.0272 2.27003 15.525 3.47185 15.525 4.725C15.525 5.97815 15.0272 7.17997 14.1411 8.06608C13.255 8.95219 12.0531 9.45 10.8 9.45C9.54685 9.45 8.34503 8.95219 7.45892 8.06608C6.57281 7.17997 6.075 5.97815 6.075 4.725ZM5.4 18.0309C4.55625 18.9759 4.05 20.2331 4.05 21.6C4.05 22.9669 4.55625 24.2241 5.4 25.1691V18.0309ZM17.5837 13.8713C15.0778 16.0903 13.5 19.3388 13.5 22.95C13.5 25.8441 14.5125 28.5019 16.2 30.5859V32.4C16.2 33.8934 14.9934 35.1 13.5 35.1H8.1C6.60656 35.1 5.4 33.8934 5.4 32.4V30.1388C2.21063 28.62 0 25.3716 0 21.6C0 16.3772 4.22719 12.15 9.45 12.15H12.15C14.175 12.15 16.0481 12.7828 17.5837 13.8628V13.8713ZM37.8 32.4V30.5859C39.4875 28.5019 40.5 25.8441 40.5 22.95C40.5 19.3388 38.9222 16.0903 36.4163 13.8628C37.9519 12.7828 39.825 12.15 41.85 12.15H44.55C49.7728 12.15 54 16.3772 54 21.6C54 25.3716 51.7894 28.62 48.6 30.1388V32.4C48.6 33.8934 47.3934 35.1 45.9 35.1H40.5C39.0066 35.1 37.8 33.8934 37.8 32.4ZM38.475 4.725C38.475 3.47185 38.9728 2.27003 39.8589 1.38392C40.745 0.497811 41.9469 0 43.2 0C44.4531 0 45.655 0.497811 46.5411 1.38392C47.4272 2.27003 47.925 3.47185 47.925 4.725C47.925 5.97815 47.4272 7.17997 46.5411 8.06608C45.655 8.95219 44.4531 9.45 43.2 9.45C41.9469 9.45 40.745 8.95219 39.8589 8.06608C38.9728 7.17997 38.475 5.97815 38.475 4.725ZM48.6 18.0309V25.1775C49.4438 24.2241 49.95 22.9753 49.95 21.6084C49.95 20.2416 49.4438 18.9844 48.6 18.0394V18.0309ZM27 0C28.4322 0 29.8057 0.568927 30.8184 1.58162C31.8311 2.59432 32.4 3.96783 32.4 5.4C32.4 6.83217 31.8311 8.20568 30.8184 9.21838C29.8057 10.2311 28.4322 10.8 27 10.8C25.5678 10.8 24.1943 10.2311 23.1816 9.21838C22.1689 8.20568 21.6 6.83217 21.6 5.4C21.6 3.96783 22.1689 2.59432 23.1816 1.58162C24.1943 0.568927 25.5678 0 27 0ZM20.25 22.95C20.25 24.3169 20.7563 25.5656 21.6 26.5191V19.3809C20.7563 20.3344 20.25 21.5831 20.25 22.95ZM32.4 19.3809V26.5275C33.2438 25.5741 33.75 24.3253 33.75 22.9584C33.75 21.5916 33.2438 20.3344 32.4 19.3894V19.3809ZM37.8 22.95C37.8 26.7216 35.5894 29.97 32.4 31.4888V35.1C32.4 36.5934 31.1934 37.8 29.7 37.8H24.3C22.8066 37.8 21.6 36.5934 21.6 35.1V31.4888C18.4106 29.97 16.2 26.7216 16.2 22.95C16.2 17.7272 20.4272 13.5 25.65 13.5H28.35C33.5728 13.5 37.8 17.7272 37.8 22.95Z" fill="url(#paint0_linear_2_74)"/>
    <defs>
        <linearGradient id="paint0_linear_2_74" x1="12.8705" y1="2.36903" x2="53.8421" y2="43.0802" gradientUnits="userSpaceOnUse">
            <stop stop-color="#275F13"/>
            <stop offset="0.388548" stop-color="#93B488"/>
            <stop offset="0.792824" stop-color="#5C8A4B"/>
            <stop offset="1" stop-color="#A0C593"/>
        </linearGradient>
    </defs>
</svg>
