<svg width="36" height="51" viewBox="0 0 36 51" fill="none" xmlns="http://www.w3.org/2000/svg">
    <path d="M6.04762 0C2.87898 0 -0.077216 2.48079 0.00920137 5.9925C0.0992195 9.69729 0.873375 12.5169 2.04721 14.7609C3.22105 16.9976 4.74055 18.5494 6.15204 19.788C6.64174 20.2179 7.14584 20.6259 7.60313 21.0011L8.13243 21.4382C8.74096 21.9409 9.23786 22.3781 9.64474 22.8189C10.4153 23.6421 10.8006 24.4071 10.8006 25.5C10.8006 26.5929 10.4153 27.3579 9.65194 28.1811C9.24506 28.6183 8.74816 29.0591 8.13964 29.5654L7.60673 29.9989C7.11771 30.394 6.63515 30.7972 6.15924 31.2084C4.74415 32.4469 3.22465 34.0024 2.05441 36.2355C0.873376 38.4795 0.0992191 41.2991 0.00199958 45.0002C-0.0880185 48.5156 2.87538 51 6.04762 51H29.9492C33.1215 51 36.0849 48.5156 35.9948 45.0002C35.8976 41.2991 35.1235 38.4795 33.9496 36.2391C32.7758 34.0024 31.2563 32.4506 29.8448 31.212C29.3551 30.7821 28.8546 30.3741 28.3973 29.9989L27.868 29.5618C27.3349 29.1352 26.8297 28.674 26.3557 28.1811C25.5887 27.3579 25.2035 26.5929 25.2035 25.5C25.2035 24.4071 25.5923 23.6421 26.3557 22.8189C26.7662 22.3781 27.2631 21.9409 27.868 21.4346L28.4009 21.0011C28.8582 20.6295 29.3623 20.2179 29.852 19.788C31.2671 18.5494 32.7866 16.9976 33.9568 14.7609C35.1343 12.5169 35.9084 9.69729 35.9984 5.9925C36.0777 2.48079 33.1179 0 29.9528 0H6.04762ZM3.60632 5.90143C3.57752 4.73571 4.59292 3.64286 6.05122 3.64286H29.9528C31.4075 3.64286 32.4229 4.73571 32.3941 5.90143C32.3149 9.12171 31.6524 11.373 30.7738 13.0524C29.8916 14.7354 28.7322 15.9484 27.4935 17.034C27.0506 17.4201 26.6258 17.7699 26.1865 18.1269L25.5851 18.6186C24.9295 19.1476 24.3088 19.7196 23.7272 20.3308C22.5209 21.6276 21.6027 23.2414 21.6027 25.5C21.6027 27.7513 22.5173 29.3687 23.7236 30.6729C24.2997 31.2921 24.9514 31.8568 25.5815 32.3814L26.1829 32.8731C26.6186 33.2301 27.047 33.5799 27.4863 33.966C28.725 35.0516 29.8808 36.261 30.763 37.9476C31.6452 39.6234 32.3113 41.8746 32.3905 45.0949C32.4193 46.2606 31.4039 47.3571 29.9456 47.3571H6.04762C4.58932 47.3571 3.57392 46.2606 3.60272 45.0949C3.68554 41.8746 4.35168 39.6234 5.23025 37.9476C6.11603 36.2646 7.27186 35.0516 8.51411 33.966C8.957 33.5799 9.38189 33.2338 9.81758 32.8731L10.4225 32.3814C11.0526 31.8568 11.7044 31.2958 12.2805 30.6692C13.4867 29.3687 14.4049 27.7549 14.4049 25.4964C14.4049 23.2451 13.4831 21.6313 12.2805 20.3271C11.6975 19.7171 11.0757 19.1463 10.4189 18.6186C10.219 18.454 10.0186 18.2901 9.81758 18.1269C9.38189 17.7699 8.9534 17.4201 8.51051 17.034C7.27186 15.9484 6.11243 14.7354 5.23385 13.0524C4.35167 11.3766 3.68914 9.12171 3.61353 5.90143M8.41329 11.3439C8.34099 11.2074 8.27255 11.0689 8.20805 10.9286H27.796C27.7331 11.0691 27.6658 11.2076 27.5944 11.3439C27.0038 12.4731 26.2081 13.3474 25.1423 14.2764C24.7462 14.6224 24.3861 14.9139 23.9792 15.249C23.7541 15.4316 23.5297 15.6149 23.3059 15.7991C22.5278 16.4293 21.7916 17.1108 21.1022 17.8391C19.4495 19.6168 18.002 22.083 18.002 25.5C18.002 22.083 16.5509 19.6168 14.9054 17.8391C14.2137 17.1105 13.4751 16.429 12.6946 15.7991C12.472 15.6161 12.2487 15.434 12.0248 15.2526C11.6143 14.9139 11.2579 14.6224 10.8618 14.2764C9.79597 13.3438 9.00021 12.4731 8.40609 11.3439M28.6998 43.7143H7.28987C7.48431 41.8236 7.938 40.5559 8.40609 39.6561C9.00021 38.5269 9.79597 37.6526 10.8654 36.7236C11.2615 36.3776 11.6143 36.0861 12.0248 35.751L12.6982 35.1973C13.3499 34.6581 14.1564 33.9696 14.9054 33.1573C16.5509 31.3832 18.002 28.9206 18.002 25.5C18.002 28.9134 19.4459 31.3796 21.0914 33.1573C21.8404 33.9696 22.6434 34.6581 23.2951 35.1973L23.9684 35.7474C24.3789 36.0825 24.7318 36.3739 25.1279 36.72C26.1937 37.6526 26.9894 38.5232 27.5836 39.6561C28.0516 40.5523 28.5053 41.8236 28.6998 43.7143Z" fill="url(#paint0_linear_7_19)"/>
    <defs>
        <linearGradient id="paint0_linear_7_19" x1="18" y1="0" x2="18" y2="51" gradientUnits="userSpaceOnUse">
            <stop stop-color="#336E71"/>
            <stop offset="1" stop-color="#B1D9D9"/>
        </linearGradient>
    </defs>
</svg>
