<svg width="229" height="173" viewBox="0 0 229 173" fill="none" xmlns="http://www.w3.org/2000/svg">
    <path d="M75.4016 41.7682C75.4016 41.7682 87.9416 25.9282 88.7216 26.9882C89.5016 28.0482 77.4016 42.7882 77.4016 42.7882L75.4016 41.7682Z" fill="#50447E"/>
    <path d="M65.7417 50.7882C65.7417 50.7882 70.3117 50.8582 72.3217 49.0782C74.3317 47.2882 70.1117 43.1582 70.1117 43.1582L65.7317 46.1282V50.7882H65.7417Z" fill="#FC8165"/>
    <path d="M71.9815 41.0081C72.5315 40.6281 73.1815 40.4181 73.8415 40.3281C76.0915 40.0381 82.5315 40.3281 83.3215 42.5881C84.0815 44.7581 80.4915 44.7082 80.4915 44.7082C80.4915 44.7082 83.3715 45.3282 82.2815 47.1482C81.3715 48.6682 79.4915 48.3581 79.4915 48.3581C79.4915 48.3581 82.4215 49.2881 80.2815 51.0381C78.1415 52.7881 71.5315 51.9181 69.5115 50.7982C67.4915 49.6782 70.3315 47.7382 70.3315 47.7382C70.3315 47.7382 68.3115 46.2482 68.9415 45.0182C69.6115 43.7282 71.5915 44.1282 71.5915 44.1282C71.5915 44.1282 70.0015 42.3881 71.9815 41.0081Z" fill="#FC8165"/>
    <path d="M64.0617 40.1582C64.0617 40.1582 72.2717 36.1482 73.8017 36.3782C75.3317 36.6082 81.0417 41.4482 79.6517 42.7782C78.2517 44.1082 73.8017 40.6782 73.8017 40.6782C73.8017 40.6782 69.2417 48.3382 66.2417 47.4782C63.2417 46.6082 64.0617 40.1582 64.0617 40.1582Z" fill="#FFA692"/>
    <path d="M151.932 168.998C151.592 168.998 151.262 168.828 151.082 168.518L116.152 111.548L80.4516 168.528C80.1616 168.998 79.5416 169.138 79.0716 168.848C78.6016 168.558 78.4616 167.938 78.7516 167.468L115.302 109.118C115.482 108.828 115.802 108.648 116.152 108.648C116.502 108.648 116.822 108.828 117.002 109.128L152.772 167.478C153.062 167.948 152.912 168.568 152.442 168.858C152.292 168.948 152.112 168.998 151.932 168.998Z" fill="#BCB5C6"/>
    <path d="M80.4915 44.9381C80.4815 44.9381 72.3115 44.5181 72.3115 44.5181C72.1815 44.5081 72.0815 44.3981 72.0915 44.2681C72.1015 44.1381 72.2015 44.0581 72.3415 44.0481L80.5015 44.4681C80.6315 44.4781 80.7315 44.5881 80.7215 44.7181C80.7215 44.8481 80.6215 44.9381 80.4915 44.9381Z" fill="black"/>
    <path d="M79.4915 48.5882C79.4715 48.5882 71.2915 48.0681 71.2915 48.0681C71.1615 48.0581 71.0615 47.9481 71.0715 47.8181C71.0815 47.6881 71.1815 47.5981 71.3215 47.5981L79.5115 48.1182C79.6415 48.1282 79.7415 48.2382 79.7315 48.3682C79.7215 48.4882 79.6115 48.5882 79.4915 48.5882Z" fill="black"/>
    <path d="M11.6916 9.35825C11.4616 9.13825 4.45158 12.1882 3.04158 21.5282C1.63158 30.8582 9.15159 32.5582 9.15159 32.5582L19.5016 26.7282L15.5116 8.94824L11.6916 9.35825Z" fill="black"/>
    <path d="M35.3316 24.1582C35.3316 24.1582 39.5416 30.4382 49.1816 36.0482C56.1016 40.0782 66.8116 38.6082 66.8116 38.6082L67.7316 53.1582C67.7316 53.1582 44.4416 61.1782 35.4416 51.0482C23.8416 37.9782 35.3316 24.1582 35.3316 24.1582Z" fill="#F7811A"/>
    <path d="M34.2016 139.058C34.2016 139.058 38.8116 145.528 38.9916 146.788C39.1716 148.048 35.6416 150.338 35.6416 150.338L44.1316 160.908H25.3116L24.3916 140.508L34.2016 139.058Z" fill="#FC9D2B"/>
    <path d="M21.1715 0.898208C21.1715 0.898208 14.2515 -2.3018 11.1515 3.3782C8.14151 8.8982 12.6015 14.0182 12.6015 14.0182L20.2515 6.0582L21.1715 0.898208Z" fill="black"/>
    <path d="M28.2841 142.199L14.0884 141.874L13.7144 158.199L27.9102 158.524L28.2841 142.199Z" fill="#FC8165"/>
    <path d="M53.6616 102.818C51.6616 107.028 37.3616 131.068 35.6116 133.998C35.5016 134.188 35.4416 134.288 35.4416 134.288C35.4416 134.288 35.2016 146.278 34.2616 146.758C33.3116 147.228 11.2816 147.668 10.1016 146.008C8.92159 144.348 9.72159 108.848 9.85159 93.1082C10.0016 74.8882 12.6116 65.6182 12.6116 65.6182L41.8416 59.1282C41.8416 59.1282 43.2816 63.1682 45.1616 68.7982C49.1316 80.7082 55.1116 99.7582 53.6616 102.818Z" fill="#E5302E"/>
    <path d="M13.7516 79.6281C13.6316 79.6281 13.5216 79.5381 13.5016 79.4081C13.4816 79.2681 13.5816 79.1481 13.7116 79.1281C15.9916 78.8081 17.7116 77.8981 18.8116 76.4181C20.6216 73.9881 20.1616 70.8081 20.1516 70.7781C20.1316 70.6381 20.2216 70.5181 20.3616 70.4881C20.5016 70.4681 20.6216 70.5581 20.6516 70.6981C20.6716 70.8381 21.1516 74.1081 19.2216 76.7081C18.0416 78.2981 16.2116 79.2781 13.7916 79.6181C13.7716 79.6281 13.7616 79.6281 13.7516 79.6281Z" fill="white"/>
    <path d="M18.1715 21.3282C18.1715 21.3282 6.8115 25.4782 5.3915 31.8182C3.9715 38.1582 13.9115 63.5082 16.5115 64.3782C19.1115 65.2482 39.9415 60.6682 41.8315 59.1382C43.7215 57.6082 41.5915 41.8782 41.1215 39.6882C40.6515 37.4982 38.7515 28.7582 36.1515 25.0482C33.5515 21.3382 31.4215 21.0882 28.8115 21.0882C26.2215 21.0782 18.1715 21.3282 18.1715 21.3282Z" fill="#F89900"/>
    <path d="M16.1916 20.3682C16.1916 20.3682 14.0416 21.0682 13.3916 22.0682C12.6616 23.1882 14.0216 26.1382 17.9116 28.4282C20.7416 30.0982 23.1416 30.6982 23.1416 30.6982C23.1416 30.6982 25.6116 27.2882 26.0816 25.2082C26.3316 24.1282 25.9716 22.8782 25.5816 21.9182C25.2016 20.9982 24.3016 20.4082 23.3116 20.4082L16.1916 20.3682Z" fill="#CE1614"/>
    <path d="M15.5115 16.7783L16.0915 22.7383C16.0915 22.7383 17.3315 24.3483 20.8515 24.2883C23.4715 24.2483 24.3215 23.5683 24.3215 23.5683L23.6615 20.5883L23.0215 17.6783L16.5915 16.9083L15.5115 16.7783Z" fill="#FC8165"/>
    <path d="M16.5916 16.9082C16.6216 17.0682 16.7016 17.2582 16.8216 17.4682C18.4416 20.3182 22.1516 20.5982 23.6616 20.5882L23.0216 17.6782L16.5916 16.9082Z" fill="black"/>
    <path d="M23.0215 3.96809C23.0215 3.96809 26.8815 11.1281 26.0515 15.4081C25.2215 19.6781 21.3715 19.3381 19.0215 18.7181C16.6815 18.0981 15.5115 16.7881 15.5115 16.7881C15.5115 16.7881 13.4415 17.6881 11.8615 15.8281C10.2815 13.9681 10.9615 11.6281 12.1415 11.0081C13.3115 10.3881 14.8315 11.1481 14.8315 11.1481L13.5215 9.07809C13.5115 9.05809 17.3715 -2.30191 23.0215 3.96809Z" fill="#FFA692"/>
    <path d="M14.6715 168.008C13.5915 167.958 12.7415 166.988 12.7415 165.798C12.7315 161.108 12.7815 150.238 13.6215 150.238C14.6815 150.238 24.6815 153.548 24.6815 153.548C24.6815 153.548 24.9715 147.048 29.3615 148.198C32.7315 149.088 36.6515 153.208 38.2915 155.078C38.8115 155.668 39.4715 156.088 40.2015 156.268C43.3415 157.068 51.9815 159.698 52.1215 164.468C52.2915 170.308 50.0115 169.638 48.9515 169.648C48.0415 169.658 22.0215 168.378 14.6715 168.008Z" fill="#FFAF45"/>
    <path d="M14.8215 11.1282C14.8215 11.1282 18.0615 11.5382 20.0315 7.8182C21.9915 4.0982 21.6815 2.6482 21.6815 2.6482L24.1615 6.1582C24.1615 6.1582 24.4715 3.57819 23.3315 2.02819C22.1915 0.478192 21.1615 0.888193 21.1615 0.888193L14.2415 3.1582L12.7915 8.94819L14.8215 11.1282Z" fill="black"/>
    <path d="M53.6617 102.818C51.6617 107.028 37.3617 131.068 35.6117 133.998C35.2217 121.158 36.1017 76.7281 36.1017 76.7281L45.1517 68.7981C49.1317 80.7081 55.1117 99.7581 53.6617 102.818Z" fill="#CE1614"/>
    <path d="M38.2215 49.8883C38.2215 49.8883 41.2215 46.0983 43.4215 45.1883C44.5015 44.7383 48.6015 43.9783 48.9815 44.9683C49.3615 45.9583 45.4615 48.1283 45.4615 48.1283C45.4615 48.1283 54.9315 44.5483 56.5215 45.3183C58.4315 46.2383 55.6715 47.4683 55.6715 47.4683C55.6715 47.4683 58.7215 47.6183 58.2315 48.6583C57.7415 49.6983 55.8915 50.7783 55.8915 50.7783C55.8915 50.7783 59.2815 50.2083 57.4915 52.5783C55.7015 54.9483 41.3215 62.3883 36.7415 58.3583C34.5015 56.3883 38.2215 49.8883 38.2215 49.8883Z" fill="#FFA692"/>
    <path d="M48.5416 50.5082C48.4516 50.5082 48.3616 50.4482 48.3216 50.3582C48.2716 50.2382 48.3316 50.0982 48.4516 50.0582L55.5916 47.2582C55.7116 47.2082 55.8516 47.2682 55.8916 47.3882C55.9416 47.5082 55.8816 47.6482 55.7616 47.6882L48.6216 50.4882C48.6016 50.5082 48.5716 50.5082 48.5416 50.5082Z" fill="black"/>
    <path d="M50.0216 53.3882C49.9316 53.3882 49.8416 53.3282 49.8016 53.2382C49.7516 53.1182 49.8116 52.9782 49.9316 52.9382L55.8216 50.5782C55.9416 50.5282 56.0816 50.5882 56.1316 50.7082C56.1816 50.8282 56.1216 50.9682 56.0016 51.0082L50.1116 53.3682C50.0716 53.3782 50.0516 53.3882 50.0216 53.3882Z" fill="black"/>
    <path d="M43.2516 48.6781C43.1416 48.6781 43.0316 48.5981 43.0216 48.4781C43.0016 48.3481 43.0916 48.2281 43.2216 48.2181L45.4416 47.9081C45.5616 47.8981 45.6916 47.9781 45.7016 48.1081C45.7216 48.2381 45.6316 48.3581 45.5016 48.3681L43.2816 48.6781C43.2716 48.6781 43.2616 48.6781 43.2516 48.6781Z" fill="black"/>
    <path d="M6.50159 29.3181C6.50159 29.3181 -4.69841 43.2081 2.30159 60.0981C7.98159 73.7981 22.6716 72.0581 30.2416 69.6881C37.8116 67.3181 44.4416 61.1681 44.4416 61.1681L37.4616 48.8981C37.4616 48.8981 25.5916 50.9781 18.0216 50.2681C10.4416 49.5681 6.50159 29.3181 6.50159 29.3181Z" fill="#FEA311"/>
    <path d="M35.9216 131.958C35.7816 131.958 35.6716 131.848 35.6716 131.708L35.8516 76.7282C35.8516 76.6582 35.8816 76.5982 35.9216 76.5482L41.3216 71.1282C41.4216 71.0282 41.5816 71.0282 41.6716 71.1282C41.7716 71.2282 41.7716 71.3882 41.6716 71.4782L36.3416 76.8182L36.1616 131.698C36.1716 131.848 36.0616 131.958 35.9216 131.958Z" fill="white"/>
    <path d="M18.7615 50.5282C17.0715 50.4582 11.5515 50.1482 11.2615 48.9682C11.1815 48.6582 11.3815 48.3582 11.8615 48.0782C14.7215 46.4082 18.7615 49.9382 18.9315 50.0882C19.0115 50.1582 19.0415 50.2682 19.0015 50.3682C18.9615 50.4582 18.8715 50.5282 18.7615 50.5282ZM13.5815 48.1282C13.0715 48.1282 12.5715 48.2382 12.1115 48.5082C11.7815 48.6982 11.7415 48.8182 11.7415 48.8482C11.8515 49.3082 14.6415 49.8082 18.0015 49.9882C17.0815 49.3082 15.2615 48.1282 13.5815 48.1282Z" fill="#50447E"/>
    <path d="M149.692 110.718H93.8716C91.9016 110.718 90.3416 108.778 90.4816 106.498L95.4316 24.3082C95.5516 22.2382 97.0416 20.6382 98.8216 20.6382H154.642C156.612 20.6382 158.172 22.5782 158.032 24.8582L153.082 107.048C152.962 109.118 151.482 110.718 149.692 110.718Z" fill="#DCD7E0"/>
    <path d="M145.912 110.718H90.0916C88.1216 110.718 86.5616 108.778 86.7016 106.498L91.6516 24.3082C91.7716 22.2382 93.2616 20.6382 95.0416 20.6382H150.862C152.832 20.6382 154.392 22.5782 154.252 24.8582L149.302 107.048C149.182 109.118 147.702 110.718 145.912 110.718Z" fill="#EAE6EF"/>
    <path d="M134.102 44.4882C133.682 52.0182 127.242 58.1182 119.722 58.1182C112.192 58.1182 106.432 52.0182 106.852 44.4882C107.272 36.9582 113.712 30.8582 121.232 30.8582C128.752 30.8582 134.522 36.9582 134.102 44.4882Z" fill="#FFAF45"/>
    <path d="M128.602 30.8582L120.472 44.4882L135.212 40.5282L128.602 30.8582Z" fill="#80BAFF"/>
    <path d="M108.262 93.8782H101.692L103.252 73.8782H109.822L108.262 93.8782Z" fill="#80BAFF"/>
    <path d="M121.071 93.8783H114.511L115.771 77.5183H122.331L121.071 93.8783Z" fill="#80BAFF"/>
    <path d="M134.202 93.8781H127.642L128.642 82.5981H135.212L134.202 93.8781Z" fill="#80BAFF"/>
    <path d="M140.612 94.3782H95.1316C94.9916 94.3782 94.8616 94.3183 94.7616 94.2183C94.6716 94.1183 94.6216 93.9783 94.6316 93.8383L96.3516 71.2683C96.3716 70.9883 96.6116 70.7883 96.8916 70.8083C97.1716 70.8283 97.3716 71.0682 97.3516 71.3482L95.6716 93.3782H140.612C140.892 93.3782 141.112 93.5982 141.112 93.8782C141.112 94.1582 140.892 94.3782 140.612 94.3782Z" fill="#BCB5C6"/>
    <path d="M24.1616 6.39822C24.1216 6.39822 23.1216 6.21821 23.1216 6.21821C23.0016 6.19821 22.9116 6.07822 22.9416 5.95822C22.9616 5.83822 23.0816 5.75821 23.2016 5.77821L24.2016 5.94821C24.3216 5.96821 24.4116 6.08822 24.3816 6.20822C24.3716 6.31822 24.2716 6.39822 24.1616 6.39822Z" fill="black"/>
    <path d="M19.8216 6.71814C19.7216 6.71814 19.6316 6.64814 19.6016 6.54814C19.5716 6.42814 19.6416 6.30814 19.7716 6.27814L21.4616 5.86814C21.5816 5.84814 21.7016 5.91815 21.7316 6.03815C21.7616 6.15815 21.6916 6.27814 21.5616 6.30814L19.8716 6.71814C19.8616 6.71814 19.8416 6.71814 19.8216 6.71814Z" fill="black"/>
    <path d="M20.4617 10.5183C20.3517 10.5183 20.2617 10.4383 20.2417 10.3283L20.0317 9.11828C20.0217 9.02828 20.0517 8.9483 20.1217 8.8983L20.9617 8.30829C21.0617 8.23829 21.2017 8.25829 21.2717 8.35829C21.3417 8.45829 21.3217 8.59829 21.2117 8.66829L20.4817 9.1783L20.6717 10.2483C20.6917 10.3683 20.6117 10.4883 20.4917 10.5083C20.4817 10.5183 20.4717 10.5183 20.4617 10.5183Z" fill="black"/>
    <path d="M24.5315 9.61813C24.4215 9.61813 24.3315 9.53814 24.3115 9.42814L24.1015 8.21814C24.0915 8.12814 24.1215 8.04814 24.1915 7.99814L25.0315 7.40814C25.1315 7.33814 25.2715 7.35814 25.3415 7.45814C25.4115 7.55814 25.3915 7.69814 25.2815 7.76814L24.5515 8.27813L24.7415 9.34814C24.7615 9.46814 24.6815 9.58814 24.5615 9.60814C24.5615 9.61814 24.5415 9.61813 24.5315 9.61813Z" fill="black"/>
    <path d="M23.6615 12.9383C23.6415 12.9383 23.6115 12.9383 23.5915 12.9283C23.4715 12.8883 23.4115 12.7583 23.4515 12.6383C23.9115 11.2483 22.9815 9.51827 22.9715 9.49827C22.9115 9.38827 22.9515 9.24827 23.0615 9.18827C23.1715 9.12827 23.3115 9.16827 23.3715 9.27827C23.4115 9.35827 24.4015 11.1983 23.8915 12.7783C23.8515 12.8783 23.7615 12.9383 23.6615 12.9383Z" fill="black"/>
    <path d="M22.3816 15.9482C21.3316 15.9482 20.9016 14.7482 20.8816 14.6982C20.8616 14.6282 20.8716 14.5482 20.9116 14.4882C20.9516 14.4282 21.0216 14.3982 21.0916 14.3982H23.6616C23.7316 14.3982 23.8016 14.4382 23.8416 14.4882C23.8816 14.5482 23.8916 14.6282 23.8716 14.6982C23.8616 14.7482 23.4316 15.9482 22.3816 15.9482ZM21.4516 14.8482C21.6116 15.1282 21.9216 15.4982 22.3816 15.4982C22.8416 15.4982 23.1416 15.1282 23.3116 14.8482H21.4516Z" fill="black"/>
    <path d="M15.0916 14.5481C15.0416 14.5481 15.0016 14.5381 14.9616 14.5081L12.2716 12.5181C12.1716 12.4481 12.1516 12.2981 12.2216 12.1981C12.2916 12.0981 12.4416 12.0781 12.5416 12.1481L15.2316 14.1381C15.3316 14.2081 15.3516 14.3581 15.2816 14.4581C15.2216 14.5181 15.1616 14.5481 15.0916 14.5481Z" fill="black"/>
    <path d="M12.4017 14.8483C12.3217 14.8483 12.2417 14.8083 12.2017 14.7283C12.1417 14.6183 12.1817 14.4783 12.2917 14.4183L14.0617 13.4383C14.1717 13.3783 14.3117 13.4183 14.3717 13.5283C14.4317 13.6383 14.3917 13.7783 14.2817 13.8383L12.5117 14.8183C12.4817 14.8383 12.4417 14.8483 12.4017 14.8483Z" fill="black"/>
    <path d="M15.9116 20.8582C15.9116 20.8582 19.7716 23.5682 22.2216 23.5882C24.6716 23.6082 24.5916 21.3382 24.5916 21.3382L25.5716 24.7782L22.5516 27.8382L17.1516 25.6582L14.1216 22.2682L15.9116 20.8582Z" fill="#E5302E"/>
    <path d="M20.8016 28.3682C20.8016 28.3682 18.9716 30.8782 18.6016 34.8082C18.2316 38.7382 20.5116 43.1582 20.5116 43.1582C20.5116 43.1582 24.1716 39.0082 24.6516 35.8782C25.1316 32.7482 23.4616 28.2982 23.4616 28.2982C23.4616 28.2982 25.1216 32.0682 25.5316 34.3782C25.9416 36.6882 26.5116 39.6582 26.5116 39.6582C26.5116 39.6582 28.7316 36.7182 28.6016 33.2182C28.4716 29.7282 24.7116 27.4282 24.7116 27.4282L20.8016 28.3682Z" fill="#CE1614"/>
    <path d="M21.2617 29.4481C21.0117 29.4481 20.7817 29.4281 20.6017 29.3681C19.4717 29.0381 19.2817 26.4081 19.5017 25.3381C19.5317 25.1981 19.6617 25.1181 19.7917 25.1481C19.9317 25.1781 20.0117 25.3081 19.9817 25.4481C19.7617 26.5381 20.0417 28.6981 20.7217 28.8881C21.3217 29.0681 22.6217 28.8081 23.3217 28.6281C23.0317 27.8781 22.3717 25.8881 22.9217 24.9881C23.0917 24.7081 23.3617 24.5481 23.7117 24.5181C24.1417 24.4781 24.3817 24.6781 24.5017 24.8481C25.1817 25.7881 24.0217 28.5881 23.8917 28.8981C23.8717 28.9581 23.8217 28.9981 23.7717 29.0181C23.7517 29.0281 23.7417 29.0281 23.7217 29.0381C23.6717 29.0681 22.2917 29.4481 21.2617 29.4481ZM23.8317 25.0181C23.8117 25.0181 23.7917 25.0181 23.7717 25.0181C23.5817 25.0381 23.4517 25.1081 23.3717 25.2481C23.0317 25.8181 23.3817 27.1881 23.6917 28.0981C24.0917 27.0081 24.4417 25.5881 24.1217 25.1381C24.0717 25.0881 24.0017 25.0181 23.8317 25.0181Z" fill="#50447E"/>
    <path d="M21.3916 34.7683C21.1516 34.7583 20.9116 34.6583 20.7716 34.4483C20.0316 33.3983 21.3616 29.6583 21.5116 29.2383C21.5516 29.1383 21.6516 29.0583 21.7616 29.0783C21.8716 29.0883 21.9616 29.1683 21.9916 29.2683C22.0816 29.6883 22.8916 33.3983 22.0416 34.4583C21.8716 34.6683 21.6416 34.7683 21.3916 34.7683ZM21.6816 30.2983C21.2216 31.7783 20.8116 33.6383 21.1716 34.1583C21.2216 34.2383 21.2716 34.2583 21.3816 34.2683C21.4916 34.2683 21.5716 34.2283 21.6416 34.1383C22.1116 33.5683 21.9016 31.6283 21.6816 30.2983Z" fill="#50447E"/>
    <path d="M67.7315 47.7782C67.6315 47.7782 67.5415 47.7082 67.5115 47.6082C67.4715 47.4882 67.5415 47.3582 67.6715 47.3182C67.7215 47.3082 72.4515 45.8482 73.5815 40.6282C73.6115 40.4982 73.7315 40.4182 73.8615 40.4482C73.9915 40.4782 74.0715 40.5982 74.0415 40.7282C72.8615 46.2282 67.8615 47.7582 67.8115 47.7682C67.7715 47.7782 67.7515 47.7782 67.7315 47.7782Z" fill="black"/>
    <path d="M194.992 13.0083C194.992 13.0083 191.062 7.17828 199.142 2.66828C207.212 -1.84172 213.032 4.46828 213.072 7.83828C213.112 11.2083 211.182 12.7583 211.182 12.7583C211.182 12.7583 211.872 20.0583 204.872 19.5083C197.852 18.9483 194.992 13.0083 194.992 13.0083Z" fill="black"/>
    <path d="M211.262 10.5482C211.262 10.5482 216.142 10.4482 219.752 13.9782C223.362 17.5082 220.992 22.3483 220.992 22.3483C220.992 22.3483 225.062 24.1683 224.842 28.8183C224.612 33.4683 218.602 35.9582 215.492 35.1082C212.392 34.2582 201.202 28.4883 201.202 28.4883L205.012 9.44824L211.262 10.5482Z" fill="black"/>
    <path d="M188.332 152.018C188.332 152.018 175.802 158.588 172.152 162.278C168.512 165.978 168.402 168.408 168.882 169.578C169.362 170.758 195.692 168.618 195.692 168.618C195.692 168.618 195.722 161.358 198.542 161.728C201.372 162.098 200.072 168.638 200.072 168.638L208.042 168.278C208.042 168.278 208.152 161.058 207.472 158.258C206.742 155.228 204.822 150.548 204.822 150.548L188.332 152.018Z" fill="#6DAFF7"/>
    <path d="M190.982 149.808C190.982 149.808 180.232 156.398 182.252 156.968C184.282 157.538 195.592 157.238 198.862 155.918C202.132 154.598 204.822 150.558 204.822 150.558L197.122 147.768L190.982 149.808Z" fill="#F97F6E"/>
    <path d="M190.982 149.808C190.982 149.808 182.771 104.278 187.791 97.7782C192.811 91.2782 204.552 107.478 204.552 107.478L204.832 150.548C204.832 150.548 194.542 154.168 190.982 149.808Z" fill="#F97F6E"/>
    <path d="M203.222 103.098C203.222 103.098 205.142 146.378 207.262 150.938C209.382 155.498 220.732 150.828 220.732 150.828L223.032 103.888L203.222 103.098Z" fill="#FFA692"/>
    <path d="M225.592 111.808C225.632 112.788 225.012 113.638 224.102 113.838C222.692 114.148 220.252 114.578 216.552 114.928C207.592 115.768 202.322 114.588 202.322 114.588C202.322 114.588 186.872 114.858 185.522 114.268C184.172 113.678 184.302 95.1682 185.702 83.6582C186.292 78.8082 187.342 73.5482 188.362 69.0982C189.762 62.9982 191.092 58.3983 191.092 58.3983C191.092 58.3983 214.722 58.3182 218.892 64.1382C223.592 70.6982 225.262 104.008 225.592 111.808Z" fill="#FEA311"/>
    <path d="M202.322 114.588C202.322 114.588 186.872 114.858 185.522 114.268C184.172 113.678 184.302 95.1681 185.702 83.6581C186.292 78.8081 187.342 73.5481 188.362 69.0981L198.112 72.2682L202.322 114.588Z" fill="#F7811A"/>
    <path d="M206.842 149.518C206.842 149.518 202.902 163.548 203.762 166.458C204.622 169.368 213.182 172.688 216.022 172.508C218.862 172.328 223.872 167.388 224.552 165.618C225.232 163.848 221.582 146.998 217.592 148.098C213.592 149.208 206.842 149.518 206.842 149.518Z" fill="#80BAFF"/>
    <path d="M206.842 149.518C206.842 149.518 208.902 158.728 213.592 158.688C218.282 158.648 220.732 150.828 220.732 150.828L218.762 142.118L206.842 149.518Z" fill="#FFA692"/>
    <path d="M222.532 114.018C222.382 114.008 222.272 113.898 222.282 113.758C222.322 112.868 222.122 112.238 221.662 111.888C220.852 111.258 219.502 111.658 219.482 111.658C219.392 111.678 219.302 111.658 219.232 111.598C219.162 111.538 219.142 111.438 219.162 111.358C219.172 111.308 220.312 106.768 218.692 103.848C217.102 101.008 212.152 102.128 212.102 102.138C212.022 102.158 211.932 102.138 211.872 102.078C211.812 102.018 211.782 101.938 211.802 101.848C211.812 101.788 212.812 95.9383 209.452 93.3383C206.072 90.7283 200.472 92.1083 200.422 92.1183C200.282 92.1483 200.152 92.0683 200.122 91.9383C200.092 91.8083 200.172 91.6683 200.302 91.6383C200.542 91.5783 206.192 90.1883 209.762 92.9483C212.902 95.3783 212.522 100.208 212.352 101.578C213.582 101.358 217.612 100.878 219.132 103.608C220.592 106.218 219.992 109.888 219.742 111.098C220.282 111.008 221.252 110.948 221.972 111.498C222.562 111.958 222.832 112.728 222.782 113.788C222.782 113.918 222.672 114.018 222.532 114.018Z" fill="#50447E"/>
    <path d="M220.752 87.9082C219.842 87.9082 218.732 87.7282 217.422 87.1982C213.472 85.6082 213.882 80.7182 214.122 79.1882C212.872 79.6882 209.192 80.9782 206.832 79.9282C205.942 79.5282 205.332 78.8482 205.012 77.8882C203.542 73.3682 208.662 66.0182 208.882 65.7082C208.962 65.5982 209.112 65.5682 209.232 65.6482C209.342 65.7282 209.372 65.8882 209.292 65.9982C209.242 66.0682 204.092 73.4582 205.492 77.7382C205.762 78.5582 206.282 79.1382 207.032 79.4782C209.652 80.6382 214.292 78.5782 214.342 78.5582C214.432 78.5182 214.532 78.5282 214.602 78.5882C214.672 78.6482 214.712 78.7482 214.682 78.8382C214.672 78.8982 213.302 85.0082 217.592 86.7382C221.262 88.2182 223.292 86.7482 223.312 86.7382C223.422 86.6582 223.582 86.6782 223.662 86.7882C223.742 86.8982 223.722 87.0582 223.612 87.1382C223.572 87.1782 222.582 87.9082 220.752 87.9082Z" fill="#50447E"/>
    <path d="M200.782 99.3581C200.652 99.3581 200.542 99.2581 200.532 99.1281L197.872 72.4381L192.612 70.3181C192.482 70.2681 192.422 70.1181 192.472 69.9881C192.522 69.8581 192.672 69.7981 192.802 69.8481L198.202 72.0281C198.292 72.0581 198.352 72.1381 198.352 72.2381L201.022 99.0781C201.032 99.2181 200.932 99.3381 200.802 99.3481C200.802 99.3581 200.792 99.3581 200.782 99.3581Z" fill="#50447E"/>
    <path d="M218.672 73.9983C218.652 73.9983 218.632 73.9982 218.612 73.9882C215.462 73.2182 214.072 71.0482 214.022 70.9582C213.952 70.8382 213.982 70.6882 214.102 70.6182C214.222 70.5482 214.372 70.5782 214.442 70.6982C214.452 70.7182 215.782 72.7882 218.732 73.5082C218.862 73.5382 218.952 73.6783 218.912 73.8083C218.882 73.9283 218.782 73.9983 218.672 73.9983Z" fill="#50447E"/>
    <path d="M184.872 106.458C184.752 106.458 184.642 106.368 184.622 106.238C184.602 106.098 184.702 105.978 184.832 105.958C186.652 105.708 187.922 104.988 188.612 103.828C189.892 101.678 188.782 98.6583 188.772 98.6283C188.742 98.5483 188.752 98.4583 188.812 98.3883C188.862 98.3183 188.952 98.2883 189.042 98.2983C189.082 98.2983 192.592 98.7083 194.852 96.8183C196.022 95.8283 196.662 94.3883 196.752 92.5283C197.082 85.8483 192.072 84.1983 191.862 84.1283C191.792 84.1083 191.742 84.0583 191.712 83.9883C191.682 83.9283 191.682 83.8483 191.712 83.7883C191.732 83.7383 193.942 78.7383 191.772 77.5783C189.552 76.3983 186.832 78.7583 186.802 78.7783C186.702 78.8683 186.542 78.8583 186.452 78.7583C186.362 78.6583 186.372 78.4983 186.472 78.4083C186.592 78.2983 189.482 75.7883 192.002 77.1383C194.302 78.3583 192.712 82.6683 192.272 83.7483C193.362 84.1983 197.562 86.3583 197.262 92.5483C197.162 94.5583 196.462 96.1183 195.182 97.1983C193.192 98.8683 190.402 98.8883 189.382 98.8283C189.652 99.7483 190.202 102.168 189.062 104.088C188.292 105.388 186.892 106.188 184.922 106.458C184.902 106.458 184.892 106.458 184.872 106.458Z" fill="#50447E"/>
    <path d="M206.062 22.9282C206.062 22.9282 213.162 23.3082 218.852 28.2082C224.542 33.1082 230.352 49.3582 227.152 54.4582C223.952 59.5582 219.872 59.9181 219.872 59.9181L220.112 65.8481L188.992 66.1381C188.992 66.1381 191.552 28.3981 192.802 25.5981C194.072 22.7881 206.062 22.9282 206.062 22.9282Z" fill="#E5302E"/>
    <path d="M167.032 39.9183C167.032 39.9183 165.732 38.6983 162.392 38.3283C160.812 38.1483 158.102 38.7483 156.362 39.1183C154.632 39.4883 158.712 40.5183 159.502 40.6083C160.292 40.6983 160.752 41.6683 160.752 41.6683C160.752 41.6683 154.192 43.0083 151.622 44.0383C149.052 45.0683 150.792 46.5283 150.792 46.5283C150.792 46.5283 148.802 47.9883 149.132 48.9483C149.462 49.9083 153.002 49.0783 153.002 49.0783C153.002 49.0783 149.732 50.7883 150.572 51.7183C151.412 52.6483 168.012 50.9683 169.902 47.0283C171.782 43.0883 167.032 39.9183 167.032 39.9183Z" fill="#FC907E"/>
    <path d="M196.932 29.2082L195.472 67.0382L187.002 65.3182L188.662 50.4982C188.662 50.4982 185.002 52.8482 177.452 52.8982C169.892 52.9582 166.822 51.3082 166.822 51.3082L167.032 37.1882C167.032 37.1882 175.002 37.2782 182.682 32.6282C190.362 27.9682 193.212 23.1782 198.072 23.2882C202.912 23.4082 196.932 29.2082 196.932 29.2082Z" fill="#E5302E"/>
    <path d="M196.042 66.1282H206.872L204.142 30.1682H196.661L196.042 66.1282Z" fill="#FFAF45"/>
    <path d="M166.822 50.4983C166.822 50.4983 163.362 52.2183 163.092 51.3683C162.812 50.5083 164.922 44.9683 164.922 44.9683C164.922 44.9683 163.052 38.5483 163.412 37.9883C163.772 37.4283 167.002 38.0583 167.002 38.0583L166.822 50.4983Z" fill="#FFAF45"/>
    <path d="M204.142 34.9082C204.142 34.9082 206.892 66.7682 207.552 67.0382C209.242 67.7282 221.462 66.1282 221.462 66.1282L219.952 57.2582L204.142 34.9082Z" fill="#EF6354"/>
    <path d="M206.841 54.2682C206.811 54.2682 206.791 54.2682 206.761 54.2582C206.641 54.2182 206.591 54.0782 206.631 53.9682C208.231 49.7982 210.611 43.4082 210.631 42.8982C210.551 42.6682 209.151 40.9182 207.851 39.3882C207.811 39.3382 207.791 39.2782 207.801 39.2182C207.811 39.1582 207.831 39.0982 207.881 39.0682C209.431 37.7982 211.081 36.2982 211.171 35.9882C211.141 35.4882 208.381 30.3082 206.651 27.1582C206.591 27.0482 206.631 26.9082 206.741 26.8482C206.851 26.7882 206.991 26.8282 207.051 26.9382C208.461 29.4982 211.731 35.5182 211.621 36.0682C211.511 36.5982 209.281 38.4882 208.351 39.2582C209.121 40.1682 210.981 42.3882 211.081 42.8082C211.191 43.2382 208.611 50.0782 207.061 54.1182C207.021 54.2182 206.931 54.2682 206.841 54.2682Z" fill="#5C69A5"/>
    <path d="M181.362 38.6882C181.152 38.6882 180.962 38.6082 180.792 38.4582C179.892 37.6382 179.822 34.6682 179.822 34.3382C179.822 34.2282 179.892 34.1282 180.002 34.0982C180.112 34.0682 180.222 34.1082 180.282 34.1982C180.632 34.7382 182.372 37.4682 181.932 38.3682C181.842 38.5582 181.662 38.6782 181.422 38.6982C181.412 38.6882 181.392 38.6882 181.362 38.6882ZM180.372 35.2882C180.462 36.3182 180.672 37.6682 181.132 38.0882C181.242 38.1882 181.342 38.1982 181.392 38.1882C181.472 38.1782 181.482 38.1582 181.492 38.1382C181.662 37.7882 181.102 36.5282 180.372 35.2882Z" fill="white"/>
    <path d="M188.651 50.7483C188.481 50.7283 188.381 50.5983 188.401 50.4583L188.751 48.1183C188.771 47.9783 188.901 47.8883 189.031 47.9083C189.171 47.9283 189.261 48.0583 189.241 48.1883L188.891 50.5283C188.881 50.6583 188.781 50.7483 188.651 50.7483Z" fill="white"/>
    <path d="M162.161 55.3882L149.691 63.4782C148.991 63.9282 148.141 63.6782 147.781 62.9282L137.091 40.1882C136.731 39.4282 137.011 38.4482 137.711 37.9982L150.181 29.9082C150.881 29.4582 151.731 29.7082 152.091 30.4582L162.781 53.1982C163.131 53.9582 162.861 54.9382 162.161 55.3882Z" fill="#413A6D"/>
    <path d="M163.762 54.3481L151.292 62.4381C150.592 62.8881 149.742 62.6382 149.382 61.8882L138.692 39.1482C138.332 38.3882 138.612 37.4082 139.312 36.9582L151.782 28.8682C152.482 28.4182 153.332 28.6682 153.692 29.4182L164.382 52.1581C164.742 52.9181 164.462 53.8981 163.762 54.3481Z" fill="#50447E"/>
    <path d="M144.502 37.4481C144.372 37.4481 144.242 37.4281 144.122 37.3981C143.712 37.2881 143.362 37.0081 143.162 36.6381L142.332 35.0681C142.272 34.9481 142.312 34.7981 142.432 34.7281C142.552 34.6681 142.702 34.7081 142.772 34.8281L143.602 36.3981C143.742 36.6581 143.962 36.8381 144.252 36.9081C144.532 36.9781 144.822 36.9381 145.062 36.7781L149.302 34.0281C149.742 33.7381 149.892 33.1781 149.652 32.7081L148.692 30.8381C148.632 30.7181 148.682 30.5681 148.802 30.4981C148.922 30.4381 149.072 30.4881 149.142 30.6081L150.102 32.4781C150.462 33.1781 150.232 34.0181 149.572 34.4481L145.332 37.1981C145.082 37.3681 144.792 37.4481 144.502 37.4481Z" fill="#FFAF45"/>
    <path d="M162.131 38.4381C162.131 38.4381 155.471 38.2981 155.831 39.7781C156.191 41.2481 159.941 41.8381 159.941 41.8381C159.941 41.8381 161.821 44.6381 163.181 44.5281C164.541 44.4181 161.901 41.0581 161.901 41.0581L162.131 38.4381Z" fill="#FC907E"/>
    <path d="M163.872 45.4181C163.722 45.3981 160.922 44.9981 159.712 41.9281C159.662 41.7981 159.722 41.6581 159.852 41.6081C159.982 41.5581 160.122 41.6181 160.172 41.7481C161.272 44.5381 163.792 44.9081 163.902 44.9181C164.042 44.9381 164.132 45.0581 164.112 45.1981C164.102 45.3181 163.992 45.4181 163.872 45.4181Z" fill="black"/>
    <path d="M221.462 66.1283C221.462 66.1283 211.712 71.3983 209.102 71.4983C206.502 71.5983 204.542 47.8983 204.822 43.4983L221.462 66.1283Z" fill="#CE1614"/>
    <path d="M199.152 66.1282H201.512C201.462 63.5882 201.392 60.0683 201.312 55.3683C201.112 43.6583 201.312 31.2482 201.312 31.2482L199.232 30.1982C199.232 30.1982 199.222 32.5283 199.232 48.3983C199.232 56.4983 199.192 62.3482 199.152 66.1282Z" fill="#50447E"/>
    <path d="M196.441 42.0381C196.441 42.0381 196.891 71.6881 194.211 71.4981C191.531 71.2981 187.001 65.3181 187.001 65.3181L196.441 42.0381Z" fill="#CE1614"/>
    <path d="M195.682 54.2981C195.582 54.2981 195.482 54.2381 195.452 54.1381C193.562 49.1981 191.332 43.2281 191.432 42.8081C191.532 42.3881 193.372 40.1881 194.152 39.2681C193.072 38.3781 191.002 36.6081 190.892 36.0781C190.782 35.5381 193.712 30.1081 195.462 26.9281C195.532 26.8081 195.682 26.7581 195.802 26.8281C195.922 26.8981 195.962 27.0481 195.902 27.1681C194.182 30.2981 191.432 35.4681 191.382 36.0081C191.482 36.2881 193.132 37.7881 194.662 39.0381C194.712 39.0781 194.742 39.1381 194.752 39.2081C194.762 39.2781 194.732 39.3381 194.692 39.3881C193.392 40.9081 192.002 42.6481 191.912 42.9281C191.942 43.4081 194.382 49.9481 195.912 53.9481C195.962 54.0781 195.892 54.2181 195.772 54.2681C195.742 54.2881 195.712 54.2981 195.682 54.2981Z" fill="white"/>
    <path d="M205.542 18.3381L205.642 24.2381C205.642 24.2381 204.612 25.9481 201.162 26.2881C198.592 26.5381 197.682 25.9781 197.682 25.9781L197.992 22.9881L198.292 20.0681L204.502 18.5881L205.542 18.3381Z" fill="#FC907E"/>
    <path d="M205.522 18.0581C205.512 18.2181 205.452 18.4081 205.362 18.6281C204.092 21.5981 199.472 22.8281 197.992 22.9881L198.292 20.0681L205.522 18.0581Z" fill="black"/>
    <path d="M202.462 23.9082C202.462 23.9082 193.912 18.5582 192.952 19.1782C191.992 19.7982 196.662 23.7082 196.662 23.7082C196.662 23.7082 194.542 25.4982 194.422 25.8482C194.312 26.1882 193.802 27.0282 193.412 27.9482C193.022 28.8682 193.192 29.4782 194.082 30.4282C194.972 31.3782 200.732 34.1682 202.012 34.2582C203.292 34.3482 203.292 34.3482 203.292 34.3482L207.092 27.8282C207.092 27.8282 207.302 22.1182 206.072 21.4282C204.842 20.7382 204.262 25.1782 204.262 25.1782L202.462 23.9082Z" fill="#FFA692"/>
    <path d="M204.252 25.4181C204.202 25.4181 204.162 25.4081 204.122 25.3781L200.542 23.1281C200.422 23.0581 200.392 22.8981 200.462 22.7881C200.532 22.6681 200.692 22.6381 200.802 22.7081L204.032 24.7381C204.082 24.3681 204.202 23.7581 204.482 22.8481C204.942 21.3481 205.612 21.1381 205.682 21.1181C205.822 21.0881 205.952 21.1681 205.982 21.2981C206.012 21.4281 205.942 21.5581 205.812 21.5981C205.792 21.6081 205.322 21.8081 204.952 22.9981C204.482 24.5281 204.482 25.1581 204.482 25.1681C204.482 25.2581 204.432 25.3481 204.352 25.3881C204.342 25.4081 204.292 25.4181 204.252 25.4181Z" fill="black"/>
    <path d="M197.622 24.7883C197.562 24.7883 197.502 24.7683 197.462 24.7283L196.502 23.8983C196.402 23.8083 196.382 23.6483 196.472 23.5483C196.562 23.4383 196.722 23.4283 196.822 23.5183L197.782 24.3483C197.882 24.4383 197.902 24.5983 197.812 24.6983C197.762 24.7583 197.692 24.7883 197.622 24.7883Z" fill="black"/>
    <path d="M201.571 37.9681C201.571 37.9681 197.151 36.2881 197.541 35.4181C197.931 34.5481 203.991 31.7481 203.991 31.7481C203.991 31.7481 207.071 25.3981 207.771 25.3481C208.461 25.2981 210.871 29.2181 210.871 29.2181L201.571 37.9681Z" fill="#FFAF45"/>
    <path d="M210.122 27.7483L201.312 38.2883C201.312 38.2883 206.682 58.9883 218.442 61.4483C230.202 63.9083 227.992 48.5783 227.992 48.5783L210.122 27.7483Z" fill="#E5302E"/>
    <path d="M221.992 41.3081C221.912 41.3081 221.832 41.2681 221.782 41.1981C219.022 37.1181 211.202 29.6081 211.122 29.5281C211.022 29.4281 211.022 29.2781 211.112 29.1781C211.212 29.0781 211.362 29.0781 211.462 29.1681C211.542 29.2481 219.392 36.7881 222.192 40.9181C222.272 41.0381 222.242 41.1881 222.122 41.2681C222.092 41.2881 222.042 41.3081 221.992 41.3081Z" fill="white"/>
    <path d="M221.922 38.8382C220.612 38.8382 217.992 36.4782 217.452 35.9782C217.372 35.8982 217.352 35.7782 217.402 35.6782C217.462 35.5782 217.572 35.5282 217.682 35.5582C218.122 35.6682 221.952 36.7082 222.572 37.7682C222.692 37.9782 222.682 38.1582 222.652 38.2682C222.562 38.6182 222.332 38.7582 222.152 38.8082C222.092 38.8282 222.012 38.8382 221.922 38.8382ZM218.632 36.3482C219.922 37.4182 221.472 38.4882 222.022 38.3282C222.082 38.3082 222.142 38.2782 222.172 38.1482C222.172 38.1382 222.182 38.0982 222.142 38.0282C221.842 37.4882 220.112 36.8082 218.632 36.3482Z" fill="white"/>
    <path d="M220.712 61.9682C220.622 61.9682 211.812 61.8182 205.182 48.9482C205.122 48.8282 205.162 48.6782 205.292 48.6082C205.412 48.5482 205.562 48.5982 205.632 48.7182C212.122 61.3182 220.632 61.4582 220.722 61.4582C220.862 61.4582 220.972 61.5682 220.972 61.7082C220.972 61.8482 220.852 61.9682 220.712 61.9682Z" fill="white"/>
    <path d="M196.742 6.64822C196.742 6.64822 193.772 14.0982 195.072 18.1882C196.362 22.2782 200.102 21.4982 202.322 20.6282C204.542 19.7582 205.542 18.3382 205.542 18.3382C205.542 18.3382 207.662 18.9782 209.002 16.9782C210.342 14.9782 209.402 12.7682 208.192 12.2882C206.972 11.8182 205.582 12.7282 205.582 12.7282L206.632 10.5582C206.622 10.5682 201.562 -0.121782 196.742 6.64822Z" fill="#FFA692"/>
    <path d="M195.811 9.69808C195.691 9.69808 195.591 9.61808 195.571 9.49808C195.541 9.36808 195.631 9.22809 195.761 9.20809L197.181 8.91808C197.311 8.89808 197.451 8.97808 197.481 9.11808C197.511 9.24808 197.421 9.38809 197.291 9.40809L195.871 9.69808C195.841 9.69808 195.821 9.69808 195.811 9.69808Z" fill="black"/>
    <path d="M201.192 9.9983C201.162 9.9983 201.132 9.99831 201.112 9.98831L199.402 9.37831C199.272 9.32831 199.202 9.1883 199.252 9.0583C199.302 8.9283 199.442 8.85831 199.572 8.90831L201.282 9.51831C201.412 9.56831 201.482 9.7083 201.432 9.8383C201.392 9.9283 201.302 9.9983 201.192 9.9983Z" fill="black"/>
    <path d="M197.261 15.5883C197.141 15.5883 197.031 15.4983 197.011 15.3783C196.621 12.8783 197.601 11.5683 197.641 11.5083C197.721 11.3983 197.881 11.3783 197.991 11.4583C198.101 11.5383 198.121 11.6983 198.041 11.8083C198.031 11.8183 197.151 13.0183 197.501 15.2883C197.521 15.4283 197.431 15.5483 197.291 15.5783C197.291 15.5883 197.281 15.5883 197.261 15.5883Z" fill="black"/>
    <path d="M205.722 15.7383C205.632 15.7383 205.542 15.6883 205.502 15.6083C205.442 15.4883 205.482 15.3383 205.612 15.2683L208.492 13.7583C208.612 13.6883 208.762 13.7383 208.832 13.8683C208.892 13.9883 208.852 14.1383 208.722 14.2083L205.842 15.7183C205.792 15.7283 205.762 15.7383 205.722 15.7383Z" fill="black"/>
    <path d="M208.392 16.2781C208.332 16.2781 208.272 16.2581 208.222 16.2181L206.852 14.9981C206.752 14.9081 206.742 14.7481 206.832 14.6481C206.922 14.5481 207.082 14.5381 207.182 14.6281L208.552 15.8481C208.652 15.9381 208.662 16.0981 208.572 16.1981C208.532 16.2481 208.462 16.2781 208.392 16.2781Z" fill="black"/>
    <path d="M194.991 13.0082C194.991 13.0082 195.461 10.7382 197.661 8.17824C199.851 5.60824 199.851 5.60823 199.851 5.60823C199.851 5.60823 199.841 10.2382 202.021 12.1182C204.201 13.9982 205.581 12.7282 205.581 12.7282L209.351 9.03824L201.961 2.93823C201.951 2.94823 194.061 3.07822 194.991 13.0082Z" fill="black"/>
    <path d="M198.162 17.7882C198.102 17.7882 198.042 17.7882 197.982 17.7882C197.842 17.7782 197.742 17.6582 197.752 17.5182C197.762 17.3782 197.882 17.2882 198.022 17.2882C199.192 17.3682 199.682 16.5482 199.702 16.5082C199.772 16.3882 199.922 16.3482 200.042 16.4082C200.162 16.4782 200.202 16.6282 200.142 16.7482C200.102 16.7982 199.532 17.7882 198.162 17.7882Z" fill="black"/>
    <path d="M199.832 12.9982C199.662 12.9782 199.562 12.8582 199.582 12.7182L199.732 11.4882L199.312 11.0282C199.222 10.9282 199.222 10.7682 199.332 10.6782C199.432 10.5882 199.592 10.5882 199.682 10.6982L200.182 11.2382C200.232 11.2882 200.252 11.3682 200.242 11.4382L200.082 12.7782C200.062 12.9082 199.952 12.9982 199.832 12.9982Z" fill="black"/>
    <path d="M196.062 12.7982C195.892 12.7782 195.792 12.6582 195.812 12.5182L195.962 11.2882L195.402 10.7282C195.302 10.6282 195.302 10.4682 195.402 10.3782C195.502 10.2782 195.652 10.2782 195.752 10.3782L196.402 11.0282C196.452 11.0782 196.482 11.1582 196.472 11.2382L196.312 12.5882C196.292 12.6982 196.192 12.7982 196.062 12.7982Z" fill="black"/>
    <path d="M210.011 14.2282C209.931 14.2282 209.851 14.1882 209.801 14.1182C209.721 14.0082 209.751 13.8482 209.871 13.7682C209.881 13.7582 211.371 12.7282 212.341 10.5382C212.401 10.4082 212.551 10.3582 212.671 10.4082C212.801 10.4682 212.851 10.6082 212.801 10.7382C211.761 13.0582 210.221 14.1282 210.151 14.1782C210.111 14.2182 210.061 14.2282 210.011 14.2282Z" fill="#FFAF45"/>
    <path d="M6.14168 10.8283C5.38168 10.8283 4.71168 10.7083 4.34168 10.3683C4.14168 10.1883 3.93169 9.86827 4.02169 9.33827C4.10169 8.86827 4.35168 8.52827 4.75168 8.33827C5.55168 7.95827 6.86168 8.28827 7.95168 8.69827C7.06168 7.88827 6.14168 6.85827 6.20168 6.05827C6.22168 5.80827 6.34168 5.44828 6.83168 5.20828C7.21168 5.01828 7.60168 5.00828 7.99168 5.17828C9.47168 5.83828 10.4917 9.08827 10.6617 9.68827L11.6417 10.3583C11.7517 10.4383 11.7817 10.5883 11.7017 10.7083C11.6217 10.8183 11.4617 10.8483 11.3517 10.7683L10.4017 10.1083C9.81168 10.2883 7.76168 10.8283 6.14168 10.8283ZM5.62168 8.66827C5.36168 8.66827 5.14168 8.70828 4.96168 8.78828C4.71168 8.90828 4.57168 9.11828 4.51168 9.42828C4.45168 9.75828 4.57168 9.91827 4.67168 9.99827C5.37168 10.6283 7.75169 10.2383 9.35169 9.86827C8.48169 9.42827 6.77168 8.66827 5.62168 8.66827ZM7.43168 5.56828C7.30168 5.56828 7.17168 5.59827 7.05168 5.66827C6.75168 5.81827 6.71168 5.98827 6.70168 6.10827C6.63168 6.98827 8.59168 8.69827 9.83168 9.57827C9.89168 9.61827 9.92168 9.67827 9.93168 9.74827C10.0017 9.72827 10.0717 9.70827 10.1317 9.69827C9.78169 8.54827 8.85168 6.13827 7.78168 5.65827C7.66168 5.58827 7.54168 5.56828 7.43168 5.56828Z" fill="#F74D76"/>
    <path d="M41.9415 62.0581C41.7015 62.0581 41.5015 62.0181 41.3615 61.9281C41.2815 61.8781 41.1815 61.7781 41.1515 61.5981C41.0215 60.9881 41.8215 59.5781 42.3215 58.7781C41.6415 58.8981 40.5815 59.0081 39.9615 58.6081C39.8015 58.4981 39.6915 58.3381 39.6515 58.1281C39.5115 57.4281 40.1715 56.2481 40.5815 55.5881C39.7215 55.6681 38.0815 55.7181 37.1715 55.0781C36.8215 54.8281 36.6115 54.4881 36.5415 54.0881C36.3315 52.7981 37.1515 51.8481 37.8115 51.3181C37.2415 51.3281 36.4315 51.3281 35.4315 51.2981C34.9215 51.2781 34.6015 51.1181 34.4815 50.7981C34.2615 50.2181 34.8915 49.3381 35.3815 48.7681L18.7815 50.5281C18.6415 50.5381 18.5215 50.4381 18.5115 50.3081C18.5015 50.1681 18.5915 50.0481 18.7315 50.0281L36.0015 48.1981C36.1015 48.1881 36.2115 48.2481 36.2515 48.3381C36.3015 48.4381 36.2715 48.5481 36.2015 48.6281C35.6115 49.2081 34.8015 50.2381 34.9415 50.6181C35.0015 50.7581 35.2815 50.7881 35.4415 50.7981C37.3915 50.8581 38.6415 50.7981 38.6515 50.7981C38.7615 50.7981 38.8715 50.8681 38.9015 50.9881C38.9315 51.0981 38.8815 51.2181 38.7715 51.2781C38.7515 51.2881 36.7515 52.3381 37.0215 54.0181C37.0615 54.2881 37.2015 54.5081 37.4515 54.6881C38.5115 55.4481 41.0115 55.0581 41.0315 55.0481C41.1315 55.0381 41.2315 55.0781 41.2815 55.1581C41.3315 55.2381 41.3315 55.3481 41.2715 55.4381C40.7715 56.1481 40.0115 57.4881 40.1215 58.0481C40.1415 58.1481 40.1815 58.1881 40.2115 58.2081C40.8215 58.5981 42.2715 58.3181 42.7715 58.1781C42.8715 58.1481 42.9815 58.1881 43.0415 58.2681C43.1015 58.3481 43.1015 58.4681 43.0515 58.5581C42.1615 59.8981 41.4915 61.2881 41.6315 61.5381C41.9215 61.7281 43.2615 61.3781 44.3315 60.9581C44.4615 60.9081 44.6015 60.9681 44.6515 61.0981C44.7015 61.2281 44.6415 61.3681 44.5115 61.4281C44.2115 61.5281 42.8415 62.0581 41.9415 62.0581Z" fill="#50447E"/>
    <path d="M36.0317 41.7283C35.9917 41.7283 35.9617 41.7183 35.9217 41.7083C35.8017 41.6483 35.7417 41.4983 35.8017 41.3783C38.6217 35.4883 32.3117 28.8883 32.2417 28.8183C32.1417 28.7183 32.1517 28.5583 32.2417 28.4683C32.3417 28.3683 32.5017 28.3783 32.5917 28.4683C32.6617 28.5383 39.2217 35.3883 36.2417 41.5983C36.2117 41.6783 36.1217 41.7283 36.0317 41.7283Z" fill="#50447E"/>
    <path d="M67.7316 53.4081C67.7116 53.4081 67.6916 53.4081 67.6716 53.3981C67.1416 53.2581 65.3916 52.7681 65.1416 52.1081C64.9316 51.5681 65.6416 50.9581 66.2016 50.5881C65.4216 50.3481 64.1116 49.8181 63.7416 48.9781C63.6516 48.7681 63.6516 48.5481 63.7516 48.3181C64.0516 47.6381 65.2716 47.0381 66.0616 46.7081C65.3316 46.4381 64.2916 45.9281 64.0916 45.1881C63.8516 44.3081 65.3916 42.8381 66.2316 42.1081C65.3616 41.9581 64.0116 41.6481 63.7616 41.1581C63.5116 40.6581 64.4916 39.7281 66.6816 38.3881C66.8016 38.3181 66.9516 38.3581 67.0216 38.4681C67.0916 38.5881 67.0516 38.7381 66.9416 38.8081C65.4916 39.6881 64.2516 40.6681 64.2116 40.9581C64.3216 41.1581 65.5316 41.5081 66.8416 41.6881C66.9416 41.6981 67.0216 41.7681 67.0516 41.8681C67.0816 41.9681 67.0416 42.0681 66.9616 42.1281C65.8716 42.9981 64.4116 44.4681 64.5616 45.0381C64.7316 45.6481 66.0616 46.2181 66.8716 46.4281C66.9816 46.4581 67.0516 46.5481 67.0616 46.6581C67.0616 46.7681 66.9916 46.8681 66.8916 46.9081C66.2416 47.1281 64.5016 47.8381 64.2016 48.4981C64.1516 48.6181 64.1716 48.6981 64.1916 48.7481C64.5316 49.5281 66.2316 50.0781 66.8616 50.2281C66.9616 50.2481 67.0416 50.3381 67.0516 50.4381C67.0616 50.5381 67.0116 50.6381 66.9216 50.6881C66.1616 51.1081 65.5116 51.6981 65.5916 51.8981C65.7016 52.1781 66.8116 52.6281 67.7816 52.8781C67.9116 52.9081 67.9916 53.0481 67.9616 53.1781C67.9416 53.3281 67.8416 53.4081 67.7316 53.4081Z" fill="#50447E"/>
    <path d="M15.6315 147.248C15.5415 147.248 15.4615 147.198 15.4115 147.118C14.6515 145.728 13.1615 143.528 12.4015 143.528C11.6515 143.528 10.7315 145.118 10.3315 146.118C10.2815 146.248 10.1315 146.308 10.0015 146.258C9.87154 146.208 9.81154 146.058 9.86154 145.928C9.98154 145.628 11.0715 143.028 12.3915 143.028C13.4315 143.028 14.8415 145.168 15.5115 146.298C15.8315 144.918 16.7715 141.878 18.7515 141.868C20.7515 141.868 21.9815 144.958 22.4215 146.318C22.9515 145.308 24.1615 143.358 25.5515 143.358C27.0415 143.358 28.2215 145.588 28.6415 146.518C29.2815 145.728 30.7115 144.118 31.6415 144.318C32.6915 144.548 34.2615 146.398 34.4415 146.608C34.5315 146.718 34.5115 146.868 34.4115 146.958C34.3015 147.048 34.1515 147.038 34.0615 146.928C33.6115 146.388 32.2915 144.968 31.5415 144.808C30.9715 144.698 29.5815 146.108 28.7915 147.158C28.7415 147.228 28.6515 147.268 28.5615 147.258C28.4715 147.248 28.3915 147.188 28.3615 147.098C28.0115 146.198 26.8215 143.868 25.5715 143.868C24.3115 143.868 23.0115 146.208 22.6115 147.108C22.5715 147.208 22.4815 147.278 22.3615 147.258C22.2515 147.248 22.1715 147.178 22.1415 147.068C22.1315 147.018 20.8815 142.378 18.7815 142.378C16.6815 142.388 15.8915 146.998 15.8915 147.048C15.8715 147.148 15.7915 147.238 15.6915 147.258C15.6615 147.248 15.6515 147.248 15.6315 147.248Z" fill="white"/>
</svg>
