<svg width="149" height="168" viewBox="0 0 149 168" fill="none" xmlns="http://www.w3.org/2000/svg">
    <path d="M52.1958 48.8474C52.1958 48.8474 59.9358 45.9174 62.5558 47.2774C65.1758 48.6374 62.5558 56.9874 62.5558 56.9874L55.0158 60.4374L51.4658 55.9174L52.1958 48.8474Z" fill="#FC8165"/>
    <path d="M43.9658 76.4772C43.9658 76.4772 45.5658 80.5472 47.7358 81.7272C49.9058 82.9172 51.7058 77.8173 51.7058 77.8173L47.7258 74.9272L43.9658 76.4772Z" fill="#FF9685"/>
    <path d="M52.2058 72.1572C52.2058 72.1572 58.1558 77.4472 58.4758 78.7572C58.7958 80.0672 56.7858 86.2672 55.2458 85.5872C53.7158 84.8972 55.0058 80.1772 55.0058 80.1772C55.0058 80.1772 47.3258 79.0272 47.0258 76.3272C46.7358 73.6372 52.2058 72.1572 52.2058 72.1572Z" fill="#FF9685"/>
    <path d="M53.5357 80.5173C49.6257 80.5173 47.3357 77.7173 47.3157 77.6873C47.2457 77.5973 47.2557 77.4673 47.3457 77.3973C47.4357 77.3273 47.5657 77.3373 47.6357 77.4273C47.6657 77.4573 50.4057 80.8073 54.9757 79.9773C55.0857 79.9573 55.1957 80.0273 55.2157 80.1473C55.2357 80.2573 55.1657 80.3673 55.0457 80.3873C54.5157 80.4773 54.0157 80.5173 53.5357 80.5173Z" fill="black"/>
    <path d="M44.2758 108.537L70.0558 102.507C71.3858 102.197 72.2158 100.867 71.9058 99.5373L68.0558 83.0673C67.7458 81.7373 66.4158 80.9073 65.0858 81.2173L39.3058 87.2473C37.9758 87.5573 37.1458 88.8873 37.4558 90.2173L41.3058 106.687C41.6158 108.017 42.9458 108.847 44.2758 108.537Z" fill="#59ACC9"/>
    <path d="M46.0859 108.107L71.8659 102.067C73.1959 101.757 74.0259 100.427 73.7159 99.0973L69.8659 82.6374C69.5559 81.3074 68.2259 80.4773 66.8959 80.7873L41.1159 86.8174C39.7859 87.1274 38.9559 88.4573 39.2659 89.7873L43.1159 106.247C43.4159 107.597 44.7459 108.427 46.0859 108.107Z" fill="#80BAFF"/>
    <path d="M41.6456 88.6472C40.5456 83.9272 45.3756 78.7472 52.4156 77.0972C59.4556 75.4472 66.0956 77.9472 67.1956 82.6672C68.2956 87.3872 63.4656 92.5672 56.4256 94.2172C49.3856 95.8672 42.7556 93.3672 41.6456 88.6472ZM43.3456 88.2472C44.2356 92.0272 49.9256 93.9472 56.0356 92.5172C62.1456 91.0872 66.3956 86.8472 65.5056 83.0572C64.6156 79.2772 58.9256 77.3572 52.8156 78.7872C46.7056 80.2272 42.4556 84.4672 43.3456 88.2472Z" fill="#80BAFF"/>
    <path d="M41.4057 98.1773C41.2957 98.1773 41.1857 98.0973 41.1657 97.9873C41.1357 97.8573 41.2157 97.7173 41.3557 97.6873L69.4557 91.0673C69.5957 91.0373 69.7257 91.1173 69.7557 91.2573C69.7857 91.3873 69.7057 91.5273 69.5657 91.5573L41.4657 98.1773C41.4457 98.1673 41.4257 98.1773 41.4057 98.1773Z" fill="white"/>
    <path d="M33.7559 23.0874C33.7559 23.0874 42.8759 26.2874 48.3859 43.8374C54.1459 62.2074 53.6059 73.6074 53.6059 73.6074L42.3059 77.1674L32.2759 56.0274L33.7559 23.0874Z" fill="#F7811A"/>
    <path d="M61.4458 46.4973C61.4458 46.4973 70.0758 45.1073 76.0358 41.3373C81.9958 37.5573 89.8558 27.7573 89.8558 27.7573L90.3258 54.6573C90.3258 54.6573 82.9458 58.1073 75.8858 58.8973C68.8158 59.6773 61.4458 58.8973 61.4458 58.8973V46.4973Z" fill="#CE1614"/>
    <path d="M41.1958 145.027V153.197L54.6258 152.617V145.027H41.1958Z" fill="#FF9685"/>
    <path d="M7.96582 144.167V151.807L21.2858 151.267V144.167H7.96582Z" fill="#FF9685"/>
    <path d="M60.2557 146.557H35.9757C35.9757 146.557 33.2757 126.977 32.5557 119.227C31.8357 111.487 29.4457 101.117 29.4457 101.117C29.4457 101.117 29.3957 101.777 29.3157 102.937C28.6757 111.317 26.0157 145.897 25.3157 146.557C24.5257 147.317 1.28569 146.727 1.53569 145.697C1.78569 144.677 6.8057 72.3874 7.9657 67.6074C12.3357 49.6474 36.8957 59.9074 36.8957 59.9074C36.8957 59.9074 40.2857 65.2674 44.3357 74.7774C47.3757 81.9174 50.7957 91.3874 53.4357 102.677C59.0457 126.697 60.2557 146.557 60.2557 146.557Z" fill="#E5302E"/>
    <path d="M24.5957 163.507C24.5957 164.777 24.1457 166.237 23.2157 166.607C22.2857 166.977 14.7757 167.737 8.20567 167.197C1.91567 166.677 1.99566 166.887 1.53566 166.347C1.30566 166.067 0.365666 164.147 0.865666 162.907C0.895666 162.847 0.915666 162.777 0.955666 162.717C1.21567 162.097 1.48567 161.497 1.67567 161.067C1.86567 160.657 2.10567 160.267 2.38567 159.897C3.06567 159.007 4.41567 157.177 4.75567 156.227C5.20567 154.967 5.89566 152.227 6.36566 150.947C6.71566 149.987 10.8457 148.487 12.8257 147.807C13.5157 147.577 14.2557 147.517 14.9757 147.637C16.9857 147.987 21.1257 148.757 21.8257 149.307C22.7457 150.027 23.2057 156.047 23.2057 156.957V157.867C23.2057 158.717 23.8257 160.387 24.2157 161.767C24.3257 162.117 24.4057 162.437 24.4757 162.737C24.5557 163.037 24.5957 163.297 24.5957 163.507Z" fill="#F74D76"/>
    <path d="M60.2557 146.557H35.9757C35.9757 146.557 33.2757 126.977 32.5557 119.227C31.8357 111.487 29.4457 101.117 29.4457 101.117C29.4457 101.117 29.3957 101.777 29.3157 102.937C29.3957 95.4973 30.6557 80.7973 30.6557 80.7973L44.3357 74.7773C47.3757 81.9173 50.7957 91.3873 53.4357 102.677C59.0457 126.697 60.2557 146.557 60.2557 146.557Z" fill="#CE1614"/>
    <path d="M29.4458 101.367C29.2858 101.357 29.1858 101.237 29.1958 101.097C29.2058 100.997 29.9558 91.3774 30.1758 87.1174C30.3958 82.8574 30.4058 80.8174 30.4058 80.7974C30.4058 80.6974 30.4658 80.6074 30.5558 80.5674L38.4258 77.0674C38.5458 77.0174 38.6958 77.0674 38.7558 77.1974C38.8158 77.3274 38.7558 77.4674 38.6258 77.5274L30.9058 80.9674C30.8958 81.5274 30.8658 83.5474 30.6758 87.1474C30.4558 91.4174 29.6958 101.047 29.6958 101.147C29.6858 101.267 29.5758 101.367 29.4458 101.367Z" fill="white"/>
    <path d="M19.1657 22.5474C19.1657 22.5474 12.1657 22.5274 8.38569 26.2874C4.60569 30.0574 7.78569 66.9074 7.78569 66.9074C7.78569 66.9074 20.8457 68.4774 27.9957 66.9074C35.1457 65.3374 39.2157 63.1374 39.2157 63.1374C39.2157 63.1374 37.2657 27.9574 35.3057 24.3374C33.3257 20.7074 19.1657 22.5474 19.1657 22.5474Z" fill="#F89900"/>
    <path d="M17.2957 19.9073L17.3357 24.5373C17.3357 24.5373 19.1057 25.9973 21.3357 25.9973C24.3557 25.9973 25.3757 23.6673 25.3757 23.6673L25.2657 18.2373L17.2957 19.9073Z" fill="#FF9685"/>
    <path d="M17.2957 19.7872C17.2957 19.7872 19.4557 24.2372 22.8757 23.6672C25.6257 23.2072 25.2657 18.6172 25.2657 18.6172L17.2957 19.7872Z" fill="black"/>
    <path d="M26.6458 7.6974C26.6458 7.6974 28.3058 15.5774 25.7958 19.4074C23.2858 23.2374 19.9358 22.1774 18.4158 21.0574C16.3658 19.5374 15.9158 17.3874 15.9158 17.3874C15.9158 17.3874 13.1458 17.9874 12.1858 15.7374C11.1758 13.3774 12.8658 11.4274 14.2558 11.2874C15.6458 11.1474 15.8058 11.3974 15.8058 11.3974L15.3558 8.86739C15.3558 8.86739 23.6458 -0.652603 26.6458 7.6974Z" fill="#FFA692"/>
    <path d="M25.9657 11.2072C25.9657 11.2072 29.5357 9.56723 29.9257 12.8172C30.3657 16.5872 25.8557 16.6972 25.8557 16.6972L25.9657 11.2072Z" fill="#FFA692"/>
    <path d="M27.5159 14.7872C27.4759 14.7872 27.4359 14.7772 27.3959 14.7572C27.2759 14.6872 27.2359 14.5372 27.2959 14.4172L28.6559 11.9872C28.7259 11.8672 28.8759 11.8272 28.9959 11.8872C29.1159 11.9572 29.1559 12.1072 29.0959 12.2272L27.7359 14.6572C27.6859 14.7472 27.6059 14.7872 27.5159 14.7872Z" fill="black"/>
    <path d="M15.4159 15.0774C15.3559 15.0774 15.3059 15.0574 15.2559 15.0174L13.0859 13.2174C12.9759 13.1274 12.9659 12.9674 13.0559 12.8674C13.1459 12.7574 13.3059 12.7474 13.4059 12.8374L15.5759 14.6374C15.6859 14.7274 15.6959 14.8874 15.6059 14.9874C15.5559 15.0474 15.4859 15.0774 15.4159 15.0774Z" fill="black"/>
    <path d="M13.4358 15.4473C13.3658 15.4473 13.2858 15.4173 13.2358 15.3473C13.1558 15.2373 13.1658 15.0773 13.2758 14.9973L14.5258 14.0273C14.6358 13.9473 14.7958 13.9573 14.8758 14.0673C14.9558 14.1773 14.9458 14.3373 14.8358 14.4173L13.5958 15.3973C13.5458 15.4273 13.4958 15.4473 13.4358 15.4473Z" fill="black"/>
    <path d="M29.1358 14.0374H27.9358C27.7958 14.0374 27.6858 13.9274 27.6858 13.7874C27.6858 13.6474 27.7958 13.5374 27.9358 13.5374H29.1358C29.2758 13.5374 29.3858 13.6474 29.3858 13.7874C29.3858 13.9274 29.2758 14.0374 29.1358 14.0374Z" fill="black"/>
    <path d="M19.9357 13.0274C19.8057 13.0274 19.7057 12.9274 19.6857 12.8074L19.5457 11.4474C19.5357 11.3074 19.6257 11.1874 19.7657 11.1774C19.8957 11.1574 20.0257 11.2574 20.0357 11.3974L20.1757 12.7574C20.1857 12.8974 20.0957 13.0174 19.9557 13.0274C19.9557 13.0274 19.9457 13.0274 19.9357 13.0274Z" fill="black"/>
    <path d="M25.1259 12.4973C24.9959 12.4973 24.8959 12.3973 24.8759 12.2773L24.7359 10.9173C24.7259 10.7773 24.8159 10.6573 24.9559 10.6473C25.0859 10.6273 25.2159 10.7273 25.2259 10.8673L25.3659 12.2273C25.3759 12.3673 25.2859 12.4873 25.1459 12.4973C25.1459 12.4973 25.1359 12.4973 25.1259 12.4973Z" fill="black"/>
    <path d="M22.9157 16.1673C22.7457 16.1473 22.6457 16.0173 22.6657 15.8773C22.9657 13.8673 22.2357 12.2273 22.2257 12.2173C22.1657 12.0873 22.2257 11.9473 22.3457 11.8873C22.4757 11.8273 22.6157 11.8873 22.6757 12.0073C22.7057 12.0773 23.4757 13.7873 23.1557 15.9473C23.1457 16.0773 23.0357 16.1673 22.9157 16.1673Z" fill="black"/>
    <path d="M25.3757 10.0272C25.3357 10.0272 25.2957 10.0172 25.2557 9.99721C24.7357 9.72721 23.9357 9.92721 23.9357 9.92721C23.8057 9.95721 23.6657 9.87721 23.6357 9.74721C23.6057 9.61721 23.6857 9.47721 23.8157 9.44721C23.8557 9.43721 24.8057 9.19721 25.4957 9.55721C25.6157 9.61721 25.6657 9.76721 25.6057 9.89721C25.5557 9.97721 25.4657 10.0272 25.3757 10.0272Z" fill="black"/>
    <path d="M18.8258 10.6674C18.7658 10.6674 18.6958 10.6474 18.6558 10.5974C18.5558 10.4974 18.5558 10.3474 18.6558 10.2474C19.1958 9.68739 20.1758 9.61739 20.2158 9.61739C20.3558 9.60739 20.4758 9.70739 20.4858 9.84739C20.4958 9.98739 20.3958 10.1074 20.2558 10.1174C20.2458 10.1174 19.4258 10.1774 19.0158 10.5974C18.9558 10.6474 18.8958 10.6674 18.8258 10.6674Z" fill="black"/>
    <path d="M17.0458 12.1073C17.0458 12.1073 19.0558 10.7473 18.9358 8.67729C18.8158 6.61729 18.3658 6.08729 18.3658 6.08729C18.3658 6.08729 20.4358 7.18729 23.0058 6.40729C25.9158 5.52729 27.5258 1.52729 25.9358 0.437289C24.1658 -0.782711 19.8658 0.937289 19.8658 0.937289C19.8658 0.937289 15.3558 0.687289 12.4158 4.26729C9.47581 7.84729 12.7658 12.0673 12.7658 12.0673C12.7658 12.0673 13.7758 10.4173 17.0458 12.1073Z" fill="black"/>
    <path d="M22.4859 18.3572C21.3459 18.3572 20.4259 17.4172 20.3859 17.3772C20.2859 17.2772 20.2959 17.1172 20.3959 17.0272C20.4959 16.9272 20.6559 16.9372 20.7459 17.0372C20.7559 17.0472 21.8259 18.1372 22.9359 17.7972C23.0659 17.7572 23.2059 17.8272 23.2459 17.9672C23.2859 18.0972 23.2159 18.2372 23.0759 18.2772C22.8759 18.3272 22.6859 18.3572 22.4859 18.3572Z" fill="black"/>
    <path d="M25.1257 2.9873C25.1257 2.9873 27.0657 4.7573 27.5157 6.9173C27.9657 9.0773 27.5157 10.8973 27.5157 10.8973L27.0757 10.8873C27.0757 10.8873 26.0357 5.65731 24.3457 5.17731C22.6557 4.69731 25.1257 2.9873 25.1257 2.9873Z" fill="black"/>
    <path d="M8.29572 77.4173C8.21572 77.4173 8.13572 77.3773 8.08572 77.3073C8.00572 77.1973 8.03573 77.0373 8.14573 76.9573C12.1957 74.1273 13.2457 70.0273 13.2557 69.9873C13.2857 69.8573 13.4157 69.7773 13.5557 69.8073C13.6857 69.8373 13.7757 69.9773 13.7357 70.1073C13.6957 70.2873 12.6257 74.4373 8.42573 77.3673C8.39573 77.4073 8.34572 77.4173 8.29572 77.4173Z" fill="white"/>
    <path d="M124.926 109.147L137.736 109.987L134.496 123.127L124.166 125.137L124.926 109.147Z" fill="#FC8165"/>
    <path d="M127.676 105.587L126.286 127.977C126.286 127.977 97.4957 132.997 84.2457 122.417C75.3557 115.317 80.2157 87.8273 84.3757 70.5273C85.2957 66.6673 86.1957 63.3173 86.8857 60.8073C87.7257 57.8173 88.2757 56.0273 88.2757 56.0273L94.7257 58.2073L96.0357 61.7273L97.4657 65.5573L111.856 104.147L127.676 105.587Z" fill="#F7811A"/>
    <path d="M117.546 143.817L115.736 156.547L102.396 152.387L101.086 141.947L117.546 143.817Z" fill="#FC8165"/>
    <path d="M97.5457 61.8774L97.4657 65.5574L97.2457 75.8174L84.3757 70.5274C85.2957 66.6674 86.1957 63.3174 86.8857 60.8074L96.0357 61.7274L97.5457 61.8774Z" fill="#F89900"/>
    <path d="M115.066 57.8274C115.066 57.8274 118.436 69.9374 118.046 77.9074C117.656 85.8774 117.106 103.927 117.346 107.097C117.586 110.277 119.376 145.437 119.376 145.437C119.376 145.437 113.366 147.317 106.806 147.437C100.246 147.557 96.5658 146.917 96.5658 146.917C96.5658 146.917 91.1458 116.317 91.5458 104.637C91.9458 92.9574 94.7358 58.1974 94.7358 58.1974L115.066 57.8274Z" fill="#FEA311"/>
    <path d="M79.8158 167.057C79.4758 167.017 79.2358 166.687 79.2958 166.327C79.5458 164.637 80.4758 159.927 83.0958 157.877C86.3158 155.367 93.1458 154.257 95.6058 152.577C98.0658 150.897 100.776 146.897 102.276 147.617C103.776 148.337 106.646 151.717 110.676 151.147C114.716 150.577 116.566 149.567 117.666 150.527C118.776 151.487 119.656 165.197 119.206 166.027C118.756 166.857 113.036 166.207 112.546 166.347C112.056 166.487 110.586 163.247 109.666 163.757C108.746 164.267 107.626 165.817 106.266 166.547C104.996 167.227 83.9058 167.527 79.8158 167.057Z" fill="#FFAF45"/>
    <path d="M76.4058 167.267C76.7358 167.227 76.9658 166.887 76.9158 166.517C76.6658 164.787 75.7758 159.947 73.2158 157.857C70.0658 155.287 63.3958 154.157 60.9958 152.437C58.5958 150.717 55.9458 146.617 54.4858 147.357C53.0158 148.097 50.2158 151.567 46.2758 150.987C42.3358 150.407 40.5258 149.367 39.4458 150.357C38.3658 151.347 37.4958 165.397 37.9358 166.247C38.3758 167.097 43.9558 166.427 44.4458 166.567C44.9258 166.707 46.3558 163.387 47.2658 163.907C48.1658 164.427 49.2558 166.017 50.5858 166.767C51.8058 167.467 72.4058 167.747 76.4058 167.267Z" fill="#F74D76"/>
    <path d="M148.426 147.617C148.386 147.977 148.036 148.227 147.656 148.177C145.876 147.917 140.886 146.957 138.726 144.197C136.066 140.807 134.866 133.597 133.086 131.007C131.306 128.417 127.076 125.567 127.826 123.977C128.576 122.387 132.136 119.357 131.526 115.087C130.916 110.827 129.836 108.877 130.846 107.707C131.856 106.537 146.326 105.557 147.206 106.027C148.076 106.497 147.416 112.537 147.566 113.057C147.716 113.577 144.306 115.137 144.836 116.107C145.376 117.077 147.016 118.247 147.796 119.687C148.516 121.037 148.916 143.297 148.426 147.617Z" fill="#FFAF45"/>
    <path d="M93.0158 126.577C92.8958 126.577 92.7858 126.487 92.7658 126.357C89.8258 105.367 92.7158 76.7073 92.9858 74.1873L86.4758 71.0973C86.3558 71.0373 86.2958 70.8873 86.3558 70.7673C86.4158 70.6473 86.5658 70.5873 86.6858 70.6473L93.3558 73.8173C93.4558 73.8673 93.5058 73.9673 93.4958 74.0673C93.4658 74.3673 90.1958 104.497 93.2558 126.297C93.2758 126.437 93.1758 126.557 93.0458 126.577C93.0358 126.567 93.0258 126.577 93.0158 126.577Z" fill="#8758E7"/>
    <path d="M113.326 71.1173C108.596 71.1173 106.816 66.2273 106.796 66.1773C106.746 66.0473 106.816 65.9073 106.946 65.8573C107.076 65.8073 107.216 65.8773 107.266 66.0073C107.346 66.2273 109.236 71.3673 114.436 70.5273C114.576 70.5073 114.696 70.5973 114.726 70.7373C114.746 70.8773 114.656 70.9973 114.516 71.0273C114.106 71.0773 113.706 71.1173 113.326 71.1173Z" fill="#8758E7"/>
    <path d="M118.506 128.787C118.376 128.787 118.266 128.687 118.256 128.547L117.036 104.657C117.026 104.517 117.136 104.397 117.276 104.397C117.426 104.377 117.536 104.497 117.536 104.637L118.756 128.527C118.766 128.667 118.656 128.787 118.516 128.787H118.506Z" fill="#8758E7"/>
    <path d="M94.1159 24.0372C94.1159 24.0372 89.5059 27.3672 87.8459 30.3872C86.1959 33.4072 86.4059 62.5472 86.4059 62.5472C86.4059 62.5472 92.8559 65.3372 100.796 64.9672C108.736 64.5972 115.966 61.4472 115.966 61.4472C115.966 61.4472 108.836 24.8172 106.466 23.6772C104.106 22.5272 101.286 21.2472 94.1159 24.0372Z" fill="#CE1614"/>
    <path d="M100.606 17.3672L101.326 23.5472C101.326 23.5472 100.416 25.4572 96.8358 26.1672C94.1658 26.6972 93.1458 26.2072 93.1458 26.2072L93.1557 23.0372L93.1658 19.9372L99.5257 17.7372L100.606 17.3672Z" fill="#FC8165"/>
    <path d="M99.0257 17.3672C99.0457 17.5272 99.0157 17.7372 98.9657 17.9672C98.2057 21.1672 94.5157 23.2572 93.0557 23.6772V19.9172L99.0257 17.3672Z" fill="black"/>
    <path d="M90.1457 6.01732C90.1457 6.01732 87.8057 14.1473 89.5957 18.2973C91.3757 22.4573 95.2257 21.2473 97.4657 20.1073C99.7057 18.9573 100.606 17.3673 100.606 17.3673C100.606 17.3673 102.906 17.8173 104.106 15.5773C105.306 13.3373 104.086 11.1073 102.756 10.7373C101.426 10.3673 100.056 11.4673 100.056 11.4673L100.926 9.07732C100.926 9.08732 94.5057 -1.60268 90.1457 6.01732Z" fill="#FFA692"/>
    <path d="M100.646 14.7974C100.576 14.7974 100.506 14.7674 100.466 14.7174C100.376 14.6174 100.376 14.4574 100.486 14.3674L103.036 12.0374C103.136 11.9474 103.296 11.9474 103.386 12.0574C103.476 12.1574 103.476 12.3174 103.366 12.4074L100.816 14.7374C100.766 14.7674 100.706 14.7974 100.646 14.7974Z" fill="black"/>
    <path d="M103.186 14.4572C103.156 14.4572 101.266 14.1972 101.266 14.1972C101.126 14.1772 101.036 14.0572 101.056 13.9172C101.076 13.7772 101.206 13.6772 101.336 13.7072L103.226 13.9672C103.366 13.9872 103.456 14.1072 103.436 14.2472C103.416 14.3672 103.306 14.4572 103.186 14.4572Z" fill="black"/>
    <path d="M91.9557 15.7972C91.8557 15.7972 91.7657 15.7372 91.7257 15.6472C90.6957 13.2472 91.7757 11.3272 91.8257 11.2472C91.8957 11.1272 92.0457 11.0872 92.1657 11.1572C92.2857 11.2272 92.3257 11.3772 92.2557 11.4972C92.2457 11.5172 91.2557 13.2872 92.1857 15.4472C92.2357 15.5772 92.1857 15.7172 92.0557 15.7772C92.0257 15.7872 91.9957 15.7972 91.9557 15.7972Z" fill="black"/>
    <path d="M122.156 128.787C122.006 128.777 121.896 128.667 121.906 128.527L122.786 108.647C122.796 108.507 122.886 108.397 123.046 108.407C123.186 108.417 123.286 108.527 123.286 108.667L122.406 128.547C122.396 128.677 122.286 128.787 122.156 128.787Z" fill="#7450D6"/>
    <path d="M90.1359 12.2673C89.9859 12.2573 89.8759 12.1473 89.8859 12.0073L89.9559 10.5273C89.9659 10.3873 90.0759 10.2773 90.2159 10.2873C90.3559 10.2973 90.4659 10.4073 90.4559 10.5473L90.3959 12.0273C90.3759 12.1573 90.2659 12.2673 90.1359 12.2673Z" fill="black"/>
    <path d="M93.7558 12.1973C93.6058 12.1873 93.4958 12.0773 93.5058 11.9373L93.5757 10.4573C93.5857 10.3173 93.6858 10.2173 93.8358 10.2173C93.9758 10.2273 94.0857 10.3373 94.0757 10.4773L94.0158 11.9573C93.9958 12.0873 93.8858 12.1973 93.7558 12.1973Z" fill="black"/>
    <path d="M114.836 86.0272C114.836 86.0272 115.346 87.5772 116.506 87.4472C117.666 87.3172 117.286 83.6072 117.286 83.6072L114.836 86.0272Z" fill="#FC8165"/>
    <path d="M100.056 11.4773C100.056 11.4773 96.0558 11.8273 94.6558 9.40728C92.0358 4.87728 89.9758 7.40728 89.9758 7.40728L89.3158 9.86728C89.3158 9.86728 87.2558 4.00728 88.6558 2.36728C90.0558 0.727277 96.3858 1.68728 98.5558 3.05728C100.726 4.42728 101.296 5.23728 101.296 5.23728C101.296 5.23728 102.586 5.06728 103.736 6.30728C104.886 7.54728 103.816 11.4773 103.816 11.4773C103.816 11.4773 102.016 10.4173 100.056 11.4773Z" fill="black"/>
    <path d="M142.986 106.037L117.096 111.607C115.756 111.897 114.446 111.047 114.156 109.707L110.596 93.1773C110.306 91.8373 111.156 90.5273 112.496 90.2373L138.386 84.6673C139.726 84.3773 141.036 85.2273 141.326 86.5673L144.876 103.097C145.166 104.437 144.316 105.747 142.986 106.037Z" fill="#413A6D"/>
    <path d="M141.176 106.427L115.286 111.997C113.946 112.287 112.636 111.437 112.346 110.097L108.796 93.5672C108.506 92.2272 109.356 90.9172 110.696 90.6272L136.586 85.0572C137.926 84.7672 139.236 85.6172 139.526 86.9572L143.076 103.487C143.356 104.827 142.506 106.137 141.176 106.427Z" fill="#50447E"/>
    <path d="M125.876 98.2872C118.806 99.8072 112.216 97.1873 111.196 92.4473C110.176 87.7073 115.106 82.6173 122.176 81.0973C129.246 79.5773 135.836 82.1973 136.856 86.9373C137.876 91.6772 132.956 96.7672 125.876 98.2872ZM122.546 82.8073C116.416 84.1273 112.086 88.2873 112.906 92.0873C113.726 95.8873 119.376 97.9073 125.516 96.5873C131.646 95.2673 135.976 91.1073 135.156 87.3073C134.336 83.5073 128.686 81.4873 122.546 82.8073Z" fill="#50447E"/>
    <path d="M116.166 73.9672C116.166 73.9672 113.536 81.2072 114.486 84.7872L116.756 83.8572C116.756 83.8572 118.486 88.8972 120.776 88.8672C121.886 88.8572 122.606 86.6272 124.166 85.7372C125.726 84.8472 128.476 83.3672 128.836 81.8772C129.196 80.3972 125.826 72.5972 124.166 71.9172C122.506 71.2472 116.166 73.9672 116.166 73.9672Z" fill="#FC8165"/>
    <path d="M101.716 22.0173C101.716 22.0173 113.306 23.2473 118.196 31.9673C121.996 38.7273 128.376 73.2273 127.666 74.2173C126.956 75.2073 116.586 78.4273 114.476 77.4373C112.366 76.4473 104.586 46.1373 104.586 46.1373L101.716 22.0173Z" fill="#E5302E"/>
    <path d="M116.536 84.3074C116.426 84.3074 116.336 84.2374 116.296 84.1374L115.236 80.8674C115.196 80.7374 115.266 80.5974 115.396 80.5574C115.526 80.5174 115.666 80.5874 115.706 80.7174L116.766 83.9874C116.806 84.1174 116.736 84.2574 116.606 84.3074C116.586 84.2974 116.566 84.3074 116.536 84.3074Z" fill="black"/>
    <path d="M110.756 101.937C110.636 101.937 110.536 101.857 110.516 101.737C110.486 101.597 110.576 101.467 110.706 101.437L140.986 94.9674C141.116 94.9474 141.256 95.0274 141.286 95.1574C141.316 95.2974 141.226 95.4274 141.096 95.4574L110.816 101.927C110.796 101.937 110.776 101.937 110.756 101.937Z" fill="#FFAF45"/>
    <path d="M93.4157 24.5673C93.4157 24.5673 91.4157 28.0673 91.9357 28.4973C92.4457 28.9273 94.6657 26.0173 95.4157 26.5473C96.1657 27.0773 98.3957 28.4073 99.3857 28.5473C100.376 28.6873 102.256 22.2773 101.736 22.0273C101.216 21.7773 101.216 21.7773 101.216 21.7773C101.216 21.7773 99.0557 24.6973 96.4357 25.5473C93.8157 26.3973 93.4157 24.5673 93.4157 24.5673Z" fill="#80BAFF"/>
    <path d="M94.1157 26.4574C94.1157 26.4574 92.3857 38.2674 92.5057 48.1674C92.6257 58.0674 93.2657 64.4574 93.2657 64.4574L95.7857 64.7974C95.7857 64.7974 94.7957 48.4574 95.0457 43.2074C95.3457 36.8474 96.3857 26.3274 96.3857 26.3274C96.3857 26.3274 95.2857 25.7174 94.1157 26.4574Z" fill="#80BAFF"/>
    <path d="M112.806 74.2873C112.686 74.2873 112.586 74.2073 112.566 74.0873C112.536 73.9473 112.626 73.8173 112.756 73.7873L127.486 70.6173C127.626 70.5973 127.756 70.6773 127.786 70.8073C127.816 70.9473 127.726 71.0773 127.596 71.1073L112.866 74.2773C112.846 74.2773 112.826 74.2873 112.806 74.2873Z" fill="white"/>
    <path d="M86.5758 58.0772C86.4258 58.0672 86.3158 57.9472 86.3258 57.8172L86.8658 48.0172C86.8758 47.8772 86.9858 47.7672 87.1258 47.7772C87.2658 47.7872 87.3658 47.9072 87.3658 48.0372L86.8258 57.8372C86.8258 57.9772 86.7158 58.0772 86.5758 58.0772Z" fill="white"/>
    <path d="M94.8059 29.4674C94.6459 29.4574 94.5459 29.3374 94.5559 29.1974L94.6659 27.8374C94.6759 27.6974 94.8059 27.5974 94.9359 27.6074C95.0759 27.6174 95.1759 27.7374 95.1659 27.8774L95.0559 29.2374C95.0459 29.3774 94.9359 29.4674 94.8059 29.4674Z" fill="white"/>
    <path d="M109.016 63.3272C108.916 63.3272 108.826 63.2672 108.786 63.1772C108.326 62.1072 104.316 52.6572 105.546 50.6572C105.706 50.3972 105.956 50.2472 106.266 50.2272C106.706 50.1972 107.096 50.3572 107.366 50.6972C108.536 52.1572 107.316 56.7972 107.136 57.4672C107.866 59.6172 108.716 61.7472 109.246 62.9772C109.296 63.1072 109.246 63.2472 109.116 63.3072C109.086 63.3172 109.046 63.3272 109.016 63.3272ZM106.366 50.7172C106.346 50.7172 106.316 50.7172 106.296 50.7172C106.156 50.7272 106.056 50.7872 105.976 50.9072C105.506 51.6772 106.046 54.0472 106.846 56.5772C107.256 54.8472 107.726 51.9372 106.976 50.9972C106.826 50.8072 106.626 50.7172 106.366 50.7172Z" fill="white"/>
    <path d="M94.6558 9.66736C94.6358 9.66736 94.6058 9.66736 94.5858 9.65736L92.9758 9.17736C92.8458 9.13736 92.7658 8.99736 92.8058 8.86736C92.8458 8.73736 92.9858 8.65736 93.1158 8.69736L94.7258 9.17736C94.8558 9.21736 94.9358 9.35736 94.8958 9.48736C94.8658 9.59736 94.7658 9.66736 94.6558 9.66736Z" fill="black"/>
    <path d="M89.3959 9.66726C89.2959 9.66726 89.1959 9.60726 89.1559 9.49726C89.1059 9.36726 89.1759 9.22726 89.3059 9.17726L90.2459 8.83726C90.3759 8.78726 90.5159 8.85726 90.5659 8.98726C90.6159 9.11726 90.5459 9.25726 90.4159 9.30726L89.4759 9.64726C89.4459 9.65726 89.4159 9.66726 89.3959 9.66726Z" fill="black"/>
    <path d="M94.2458 17.8172C93.6658 17.8172 93.0858 17.5272 93.0458 17.5072C92.9658 17.4672 92.9158 17.3872 92.9158 17.3072C92.9058 17.2172 92.9458 17.1372 93.0158 17.0872L95.3258 15.3472C95.4058 15.2872 95.5058 15.2772 95.5958 15.3272C95.6758 15.3672 95.7358 15.4572 95.7258 15.5572C95.7258 15.7072 95.6658 16.9972 95.0358 17.5572C94.8058 17.7572 94.5258 17.8172 94.2458 17.8172ZM93.6558 17.2172C94.0058 17.3272 94.4458 17.3972 94.6958 17.1772C94.9458 16.9572 95.0858 16.4872 95.1558 16.0872L93.6558 17.2172Z" fill="black"/>
    <path d="M41.6458 48.0372C41.6458 48.0372 50.6458 46.2872 51.4058 46.6472C54.4258 48.0972 54.4258 48.0972 54.4258 48.0972L52.1958 48.8472C52.1958 48.8472 57.9558 51.1972 57.4258 52.1472C56.8958 53.0872 54.6758 54.0272 54.6758 54.0272C54.6758 54.0272 54.0058 61.1572 52.1558 61.6672C50.3058 62.1872 39.2058 59.2372 39.2058 59.2372L41.6458 48.0372Z" fill="#FF9685"/>
    <path d="M38.1457 57.4473C38.0157 57.4473 37.9057 57.3473 37.8957 57.2173L36.3356 39.7773C36.3256 39.6373 36.4257 39.5173 36.5657 39.5073C36.7057 39.4973 36.8256 39.5973 36.8356 39.7373L38.3957 57.1773C38.4057 57.3173 38.3057 57.4373 38.1657 57.4473C38.1657 57.4473 38.1557 57.4473 38.1457 57.4473Z" fill="#8758E7"/>
    <path d="M60.2557 155.787C60.1457 155.787 60.0457 155.707 60.0257 155.597C59.9957 155.467 60.0757 155.347 60.2057 155.317C60.2657 155.307 66.6956 153.907 66.5456 150.577C66.5256 150.147 66.4157 149.897 66.2157 149.827C65.6457 149.627 64.3756 150.497 63.0856 151.647C61.8856 153.087 60.5156 154.227 60.4056 154.327C60.3156 154.407 60.1756 154.397 60.0856 154.307C59.9956 154.217 59.9957 154.077 60.0757 153.987C60.3057 153.727 61.4656 152.447 62.7656 151.297C63.8156 150.037 64.6956 148.587 64.3656 147.527C64.3356 147.437 64.2556 147.227 64.1556 147.227C63.4756 147.227 61.7656 150.197 60.4756 153.087C60.4256 153.207 60.2856 153.257 60.1656 153.207C60.0456 153.157 59.9956 153.017 60.0456 152.897C60.6856 151.447 62.8756 146.757 64.1556 146.757C64.3856 146.767 64.6557 146.887 64.8157 147.387C65.0857 148.217 64.7357 149.217 64.1457 150.197C65.0257 149.577 65.8457 149.197 66.3857 149.387C66.7857 149.527 66.9957 149.927 67.0257 150.557C67.1857 154.287 60.5956 155.727 60.3056 155.787C60.2856 155.787 60.2757 155.787 60.2557 155.787Z" fill="#FFAF45"/>
    <path d="M15.3558 158.697C14.2858 158.697 13.4258 158.287 13.4058 158.277C13.2858 158.217 13.2358 158.077 13.2958 157.967C13.3558 157.847 13.4958 157.797 13.6058 157.857C13.7258 157.917 16.6358 159.277 18.0658 156.467C18.3558 155.887 18.3658 155.597 18.2858 155.517C17.9658 155.217 16.1958 155.927 14.7358 156.777C14.6358 156.837 14.5058 156.807 14.4258 156.717C14.3558 156.617 14.3658 156.487 14.4458 156.407C15.2658 155.617 17.3858 153.277 17.3558 151.997C17.3458 151.767 17.2758 151.587 17.1158 151.447C16.9758 151.327 16.8258 151.287 16.6558 151.327C15.5358 151.567 13.9458 154.527 13.4358 155.647C13.3758 155.767 13.2358 155.817 13.1258 155.767C13.0058 155.717 12.9558 155.577 13.0058 155.457C13.2058 155.017 15.0158 151.197 16.5558 150.867C16.8758 150.797 17.1758 150.877 17.4258 151.097C17.6858 151.317 17.8158 151.617 17.8258 151.987C17.8558 153.097 16.6658 154.657 15.7658 155.687C16.8158 155.187 18.1158 154.717 18.5958 155.167C19.0358 155.577 18.6158 156.407 18.4758 156.677C17.6758 158.287 16.4158 158.697 15.3558 158.697Z" fill="#FFAF45"/>
    <path d="M99.2958 154.077C99.2758 154.077 99.2558 154.077 99.2258 154.067L95.7258 153.087C95.5958 153.047 95.5158 152.917 95.5558 152.777C95.5958 152.647 95.7358 152.567 95.8658 152.607L99.3658 153.587C99.4958 153.627 99.5758 153.757 99.5358 153.897C99.5058 153.997 99.4058 154.077 99.2958 154.077Z" fill="white"/>
    <path d="M97.5457 155.797C97.5157 155.797 97.4957 155.797 97.4657 155.787L92.9657 154.327C92.8357 154.287 92.7657 154.147 92.8057 154.017C92.8457 153.887 92.9857 153.817 93.1157 153.857L97.6157 155.317C97.7457 155.357 97.8157 155.497 97.7757 155.627C97.7557 155.727 97.6557 155.797 97.5457 155.797Z" fill="white"/>
    <path d="M134.166 131.567C134.136 131.567 134.106 131.557 134.076 131.547C133.946 131.497 133.886 131.347 133.936 131.217L135.316 127.857C135.366 127.727 135.516 127.667 135.646 127.717C135.776 127.767 135.836 127.917 135.786 128.047L134.396 131.407C134.356 131.507 134.266 131.567 134.166 131.567Z" fill="white"/>
    <path d="M135.076 134.447C135.036 134.447 135.006 134.437 134.976 134.427C134.846 134.367 134.796 134.217 134.856 134.097L136.826 129.797C136.886 129.667 137.036 129.617 137.156 129.677C137.286 129.737 137.336 129.887 137.276 130.007L135.306 134.307C135.266 134.387 135.176 134.447 135.076 134.447Z" fill="white"/>
    <path d="M8.38576 26.2874C8.38576 26.2874 -4.37424 41.3274 1.58576 56.7774C7.10576 71.0674 41.1458 61.1574 41.1458 61.1574L41.8258 47.1974L19.9258 46.6073L8.38576 26.2874Z" fill="#FEA311"/>
    <path d="M55.0857 76.9374C55.5757 77.2574 55.9557 77.7074 56.2457 78.2174C57.2257 79.9274 59.1257 85.2174 57.5557 86.6074C56.0557 87.9374 54.9157 85.0274 54.9157 85.0274C54.9157 85.0274 55.3657 87.5474 53.5457 87.2774C52.0157 87.0474 51.6557 85.4274 51.6557 85.4274C51.6557 85.4274 51.8757 88.0974 49.7657 86.9474C47.6557 85.7974 46.1657 80.1874 46.4057 78.1874C46.6457 76.1874 49.1457 77.8374 49.1457 77.8374C49.1457 77.8374 49.6857 75.7174 50.8757 75.8174C52.1357 75.9274 52.4757 77.6574 52.4757 77.6574C52.4757 77.6574 53.3157 75.8074 55.0857 76.9374Z" fill="#FF9685"/>
    <path d="M54.9158 85.2772C54.8158 85.2772 54.7158 85.2172 54.6758 85.1072L52.3158 78.3872C52.2658 78.2572 52.3358 78.1172 52.4658 78.0672C52.5958 78.0172 52.7358 78.0872 52.7858 78.2172L55.1458 84.9372C55.1958 85.0672 55.1258 85.2072 54.9958 85.2572C54.9758 85.2672 54.9458 85.2772 54.9158 85.2772Z" fill="black"/>
    <path d="M51.6457 85.6672C51.5457 85.6672 51.4457 85.5972 51.4057 85.4972L49.1157 78.7272C49.0757 78.5972 49.1457 78.4572 49.2757 78.4072C49.4057 78.3672 49.5457 78.4372 49.5957 78.5672L51.8857 85.3372C51.9257 85.4672 51.8557 85.6072 51.7257 85.6572C51.7057 85.6672 51.6757 85.6672 51.6457 85.6672Z" fill="black"/>
    <path d="M53.8058 53.2973C54.3258 53.4373 54.7758 53.7173 55.1458 54.0473C56.4058 55.1873 59.2358 58.9173 58.0558 60.3373C56.9258 61.6873 55.2758 59.6573 55.2758 59.6573C55.2758 59.6573 56.2058 61.5373 54.4458 61.7073C52.9758 61.8473 52.3058 60.6573 52.3058 60.6573C52.3058 60.6573 53.0458 62.6973 50.8458 62.2473C48.6458 61.7973 46.1358 57.7173 45.9458 56.0973C45.7658 54.4873 48.4258 55.2473 48.4258 55.2473C48.4258 55.2473 48.4958 53.4773 49.6358 53.3073C50.8358 53.1273 51.4958 54.4173 51.4958 54.4173C51.4958 54.4173 51.9258 52.7873 53.8058 53.2973Z" fill="#FC8165"/>
    <path d="M55.2756 59.9174C55.1956 59.9174 55.1156 59.8774 55.0656 59.7974L51.9456 54.8574C51.8756 54.7374 51.9056 54.5874 52.0256 54.5074C52.1456 54.4374 52.2956 54.4674 52.3756 54.5874L55.4956 59.5274C55.5656 59.6474 55.5356 59.7974 55.4156 59.8774C55.3656 59.9074 55.3156 59.9174 55.2756 59.9174Z" fill="black"/>
    <path d="M52.3059 60.9174C52.2259 60.9174 52.1459 60.8774 52.0959 60.8074L48.9159 55.9474C48.8359 55.8274 48.8759 55.6774 48.9859 55.5974C49.0959 55.5174 49.2559 55.5474 49.3359 55.6674L52.5159 60.5274C52.5959 60.6474 52.5559 60.7974 52.4459 60.8774C52.4059 60.8974 52.3559 60.9174 52.3059 60.9174Z" fill="black"/>
    <path d="M16.6057 31.2572C16.4757 31.2572 16.3657 31.2272 16.2757 31.1672C15.2557 30.4872 16.6457 25.8672 17.0957 24.4672C17.1257 24.3772 17.1957 24.3172 17.2857 24.2972C17.3757 24.2772 17.4657 24.3072 17.5257 24.3772C17.5357 24.3872 18.4957 25.3972 21.3757 25.7572C24.1757 26.1072 25.1157 23.6872 25.1557 23.5872C25.1857 23.4972 25.2657 23.4372 25.3557 23.4272C25.4457 23.4172 25.5357 23.4472 25.5857 23.5172C27.0157 25.3572 29.3757 28.5372 29.1057 29.2372C29.0557 29.3572 28.9557 29.4472 28.8257 29.4672C28.3757 29.5472 27.4357 28.9972 25.5357 27.8272C24.5557 27.2172 23.0957 26.3072 22.7457 26.3072C22.6957 26.3572 22.4257 26.6172 22.0957 26.9372C19.0157 29.9872 17.4257 31.2572 16.6057 31.2572ZM17.4557 24.9772C16.6457 27.5972 16.1057 30.4572 16.5557 30.7572C16.7757 30.8972 17.7457 30.5572 21.7457 26.5972C21.8557 26.4872 21.9657 26.3872 22.0557 26.2972C21.8157 26.3072 21.5757 26.2972 21.3157 26.2572C19.1057 25.9772 17.9557 25.3372 17.4557 24.9772ZM23.3857 26.0072C23.9057 26.2472 24.6557 26.6972 25.7857 27.3972C26.7357 27.9872 28.1357 28.8572 28.6157 28.9672C28.4757 28.3472 26.9457 26.1172 25.4257 24.1372C25.1457 24.6472 24.5057 25.5472 23.3857 26.0072Z" fill="#8758E7"/>
    <path d="M14.2558 47.2074C14.1258 47.2074 14.0158 47.1074 14.0058 46.9674C13.9958 46.8274 14.1058 46.7074 14.2458 46.7074C14.3458 46.7074 23.9558 46.2474 27.1758 46.4374C27.3158 46.4474 27.4158 46.5674 27.4058 46.6974C27.3958 46.8374 27.2758 46.9474 27.1458 46.9274C23.9558 46.7274 14.3658 47.1874 14.2758 47.1974C14.2658 47.2074 14.2658 47.2074 14.2558 47.2074Z" fill="#8758E7"/>
    <path d="M17.1358 46.9372C16.6058 46.8772 12.2058 46.3072 11.5658 44.9172C11.4658 44.7072 11.4058 44.3572 11.6758 43.9572C11.8458 43.6972 12.1058 43.5472 12.4258 43.5172C14.0058 43.3372 16.9758 46.1772 17.3158 46.5072C17.3958 46.5772 17.4158 46.6972 17.3658 46.7972C17.3158 46.8772 17.2258 46.9372 17.1358 46.9372ZM12.5758 44.0072C12.5458 44.0072 12.5058 44.0072 12.4758 44.0072C12.3058 44.0272 12.1758 44.0972 12.0858 44.2272C11.9358 44.4572 11.9758 44.6072 12.0158 44.6972C12.3558 45.4372 14.6158 46.0272 16.3758 46.3072C15.3058 45.3772 13.5458 44.0072 12.5758 44.0072Z" fill="#8758E7"/>
    <path d="M76.6557 46.9372C76.4557 46.9372 76.2657 46.8572 76.1157 46.7072C75.1557 45.7972 75.2357 42.0772 75.2457 41.6572C75.2457 41.5472 75.3257 41.4472 75.4357 41.4172C75.5457 41.3872 75.6657 41.4472 75.7157 41.5472C76.0657 42.2172 77.7857 45.6072 77.2357 46.6072C77.1257 46.7972 76.9557 46.9172 76.7257 46.9372C76.6957 46.9372 76.6757 46.9372 76.6557 46.9372ZM75.7457 42.7372C75.7757 44.0572 75.9457 45.8572 76.4557 46.3472C76.5457 46.4372 76.6257 46.4372 76.6757 46.4372C76.7457 46.4272 76.7757 46.4072 76.7957 46.3672C77.0457 45.9072 76.4257 44.1972 75.7457 42.7372Z" fill="white"/>
    <path d="M25.7358 140.287H2.65576C2.51576 140.287 2.40576 140.177 2.40576 140.037C2.40576 139.897 2.51576 139.787 2.65576 139.787H25.7358C25.8758 139.787 25.9858 139.897 25.9858 140.037C25.9858 140.177 25.8758 140.287 25.7358 140.287Z" fill="white"/>
    <path d="M59.6858 140.287H35.1758C35.0358 140.287 34.9258 140.177 34.9258 140.037C34.9258 139.897 35.0358 139.787 35.1758 139.787H59.6858C59.8258 139.787 59.9358 139.897 59.9358 140.037C59.9358 140.177 59.8258 140.287 59.6858 140.287Z" fill="white"/>
    <path d="M6.52578 140.287C6.37578 140.277 6.26578 140.157 6.27578 140.017L10.6558 74.9072C10.6658 74.7672 10.7758 74.6672 10.9258 74.6772C11.0658 74.6872 11.1658 74.8072 11.1558 74.9472L6.77578 140.057C6.77578 140.187 6.66578 140.287 6.52578 140.287Z" fill="white"/>
    <path d="M38.5257 140.287C38.3957 140.287 38.2757 140.177 38.2757 140.047C37.5457 117.097 32.1457 100.407 30.3657 94.9273C29.9257 93.5573 29.7957 93.1473 29.8057 92.9773C29.8157 92.8373 29.9357 92.7373 30.0757 92.7473C30.2157 92.7573 30.3157 92.8773 30.3057 93.0073C30.3157 93.1473 30.5457 93.8673 30.8457 94.7773C32.6257 100.277 38.0557 117.017 38.7857 140.037C38.7757 140.167 38.6657 140.287 38.5257 140.287Z" fill="white"/>
    <path d="M52.1958 49.0972C52.1758 49.0972 52.1458 49.0972 52.1258 49.0872L49.2958 48.2772C49.1658 48.2372 49.0858 48.0972 49.1258 47.9672C49.1658 47.8372 49.2958 47.7572 49.4358 47.7972L52.2658 48.6072C52.3958 48.6472 52.4758 48.7872 52.4358 48.9172C52.4058 49.0272 52.3058 49.0972 52.1958 49.0972Z" fill="black"/>
    <path d="M65.6157 59.4174C65.4757 59.4174 65.3657 59.3074 65.3657 59.1674V45.5674C65.3657 45.4274 65.4757 45.3174 65.6157 45.3174C65.7557 45.3174 65.8657 45.4274 65.8657 45.5674V59.1674C65.8657 59.3074 65.7557 59.4174 65.6157 59.4174Z" fill="white"/>
    <path d="M105.146 143.607C100.106 143.607 95.9557 143.287 95.8757 143.287C95.7357 143.277 95.6357 143.157 95.6457 143.017C95.6557 142.877 95.7857 142.777 95.9157 142.787C96.0757 142.797 111.686 143.997 119.116 141.717C119.246 141.677 119.386 141.747 119.426 141.887C119.466 142.017 119.396 142.157 119.256 142.197C115.596 143.317 109.966 143.607 105.146 143.607Z" fill="#8758E7"/>
    <path d="M41.1959 60.3372C41.1659 60.3372 41.1259 60.3272 41.0959 60.3172C40.8759 60.2272 38.9559 59.3772 38.9559 58.2372C38.9559 57.3972 39.8559 56.5072 40.3559 56.0772C39.6459 55.6972 38.1159 54.7772 37.9059 53.7272C37.6759 52.5972 39.4759 51.5472 40.3159 51.1172C39.6559 50.6472 38.3859 49.6472 38.2759 48.8772C38.1359 47.8372 40.9159 47.1272 41.7759 46.9372C41.9159 46.9072 42.0459 46.9972 42.0759 47.1272C42.1059 47.2572 42.0159 47.3972 41.8859 47.4272C40.1759 47.8072 38.7259 48.4472 38.7759 48.8072C38.8559 49.3772 40.1559 50.4172 40.9559 50.9472C41.0359 50.9972 41.0759 51.0872 41.0659 51.1772C41.0559 51.2672 41.0059 51.3472 40.9159 51.3872C39.8559 51.8572 38.2359 52.8772 38.3959 53.6272C38.5759 54.5372 40.2859 55.5072 40.9259 55.7972C41.0059 55.8372 41.0559 55.9072 41.0659 55.9972C41.0759 56.0872 41.0359 56.1672 40.9659 56.2272C40.5459 56.5372 39.4559 57.5172 39.4559 58.2372C39.4559 58.9172 40.8159 59.6572 41.2959 59.8572C41.4259 59.9072 41.4859 60.0572 41.4259 60.1872C41.3859 60.2772 41.2959 60.3372 41.1959 60.3372Z" fill="#8758E7"/>
    <path d="M46.3658 76.0672C46.2958 76.0672 46.2258 76.0372 46.1758 75.9772C46.1658 75.9672 44.9858 74.5772 43.9658 74.5772C43.8258 74.5772 43.7158 74.4672 43.7158 74.3272C43.7158 74.1872 43.8258 74.0772 43.9658 74.0772C44.7258 74.0772 45.4958 74.6372 45.9958 75.0872C45.8858 74.1172 45.8958 72.5872 46.9358 72.2172C47.9758 71.8472 49.5158 72.8172 50.3358 73.4272C50.2158 72.6772 50.1858 71.7472 50.6958 71.5872C51.2958 71.4072 52.8758 72.6672 53.7658 73.4372C53.8658 73.5272 53.8858 73.6872 53.7958 73.7872C53.7058 73.8872 53.5458 73.9072 53.4458 73.8172C52.3058 72.8272 51.1058 72.0272 50.8558 72.0672C50.7058 72.1772 50.7558 73.1172 50.9658 73.9872C50.9858 74.0972 50.9458 74.1972 50.8558 74.2572C50.7658 74.3172 50.6458 74.3072 50.5658 74.2372C49.9258 73.6972 48.0558 72.3572 47.1158 72.6972C46.2258 73.0172 46.4558 75.0272 46.6258 75.7772C46.6458 75.8872 46.5958 76.0072 46.4958 76.0572C46.4458 76.0572 46.4058 76.0672 46.3658 76.0672Z" fill="#8758E7"/>
</svg>
