<svg width="255" height="159" viewBox="0 0 255 159" fill="none" xmlns="http://www.w3.org/2000/svg">
    <path d="M210.682 33.385C210.682 33.385 221.156 50.2188 207.014 52.0421C192.873 53.8866 210.682 33.385 210.682 33.385Z" fill="black"/>
    <path d="M233.018 79.7838C234.057 78.957 255.809 75.8298 254.982 106.275C254.145 136.72 220.096 154.158 182.718 147.596C145.34 141.034 180.725 97.3703 180.725 97.3703L233.018 79.7838Z" fill="#E2DDE8"/>
    <path d="M167.135 126.872L167.771 134.017H181.509V125.928L167.135 126.872Z" fill="#FC907E"/>
    <path d="M191.633 130.179L193.021 137.345L208.138 133.762L205.498 125.928L191.633 130.179Z" fill="#FC907E"/>
    <path d="M183.121 86.547C183.121 86.547 185.145 59.9077 194.76 56.5685C208.658 51.7452 218.76 56.6957 218.76 56.6957L218.092 90.9039L183.121 86.547Z" fill="#CE1614"/>
    <path d="M188.93 85.1056C188.93 85.1056 169.064 80.2717 163.616 88.6674C158.167 97.0631 165.789 129.098 165.789 129.098H184.085L188.93 85.1056Z" fill="#F7811A"/>
    <path d="M165.788 129.363C165.746 129.363 165.714 129.352 165.672 129.331C165.545 129.268 165.492 129.109 165.555 128.981C165.608 128.865 166.976 126.109 168.375 125.642C168.704 125.525 169.022 125.547 169.308 125.695C170.41 126.246 171.11 127.359 171.428 127.985C172.106 126.957 173.856 124.529 175.297 124.529C176.739 124.529 177.778 126.904 178.181 127.995C178.859 127.094 180.439 125.229 181.615 125.695C183.014 126.246 183.47 128.313 183.481 128.398C183.513 128.536 183.417 128.684 183.28 128.716C183.131 128.748 182.993 128.653 182.961 128.515C182.961 128.494 182.548 126.649 181.414 126.193C180.619 125.886 179.082 127.582 178.308 128.727C178.255 128.812 178.159 128.854 178.053 128.843C177.958 128.833 177.873 128.759 177.841 128.663C177.534 127.667 176.463 125.08 175.297 125.08C174.099 125.08 172.234 127.688 171.619 128.695C171.566 128.78 171.47 128.833 171.375 128.822C171.28 128.812 171.184 128.748 171.152 128.653C171.142 128.631 170.442 126.882 169.075 126.193C168.916 126.109 168.746 126.109 168.545 126.172C167.559 126.501 166.393 128.504 166.032 129.246C165.979 129.299 165.884 129.363 165.788 129.363Z" fill="#714DD6"/>
    <path d="M231.12 92.4941C231.12 92.4941 236.124 107.844 227.834 110.939C219.545 114.035 202.35 114.13 202.35 114.13L210.099 127.815L185.167 135.204C185.167 135.204 164.464 97.8156 177.068 87.851C189.672 77.8865 216.195 92.3987 216.195 92.3987L231.12 92.4941Z" fill="#FEA311"/>
    <path d="M166.711 130.179C166.711 130.179 161.962 135.787 160.849 136.317C159.746 136.847 148.213 140.727 146.008 142.9C143.792 145.063 143.644 149.314 144.269 149.716C144.905 150.119 182.813 149.716 182.813 149.716L183.205 131.43L166.711 130.179Z" fill="#FCA032"/>
    <path d="M190.753 134.324C190.753 134.324 188.813 141.84 187.255 142.635C185.697 143.43 178.986 147.639 175.34 151.455C172.287 154.656 175.34 156.501 175.34 156.501H196.467L214.626 143.165L208.138 129.289L190.753 134.324Z" fill="#FFAF45"/>
    <path d="M162.874 134.027C162.874 134.027 168.163 140.091 166.955 140.579C165.746 141.066 155.538 139.508 155.803 138.416C156.057 137.324 161.654 133.932 162.874 134.027Z" fill="#734DDB"/>
    <path d="M188.782 138.882C188.782 138.882 195.555 143.218 194.538 144.024C193.52 144.84 183.28 146.207 183.227 145.084C183.163 143.96 187.584 139.137 188.782 138.882Z" fill="#8758E7"/>
    <path d="M206.897 48.8301L207.735 54.2152C207.735 54.2152 206.876 55.9643 203.357 56.8653C200.728 57.5438 199.721 57.1834 199.721 57.1834L199.668 54.3848L199.615 51.6604L205.848 49.2329L206.897 48.8301Z" fill="#FC907E"/>
    <path d="M205.859 49.2542C205.87 49.4238 205.838 49.6358 205.785 49.869C204.937 53.1552 201.311 54.4484 199.795 54.8407L199.647 51.7665L205.859 49.2542Z" fill="black"/>
    <path d="M195.916 38.0704C195.916 38.0704 194.008 46.2753 196.001 50.3141C197.983 54.353 201.746 52.9643 203.919 51.7028C206.092 50.4519 206.909 48.8194 206.909 48.8194C206.909 48.8194 209.22 49.148 210.29 46.8583C211.371 44.5686 210.046 42.4167 208.7 42.1198C207.364 41.823 206.05 42.9891 206.05 42.9891L206.792 40.5722C206.792 40.5828 199.849 30.279 195.916 38.0704Z" fill="#FFA692"/>
    <path d="M198.014 47.6746C197.919 47.6746 197.824 47.6216 197.781 47.5368C196.965 45.9997 197.792 44.1234 197.824 44.0492C197.887 43.9114 198.036 43.8478 198.173 43.922C198.311 43.9856 198.364 44.134 198.311 44.2718C198.301 44.293 197.559 45.9891 198.248 47.293C198.311 47.4202 198.269 47.5792 198.142 47.6534C198.099 47.664 198.057 47.6746 198.014 47.6746Z" fill="black"/>
    <path d="M207.014 46.5193C206.961 46.5193 206.919 46.5087 206.877 46.4769C206.749 46.4027 206.718 46.2331 206.792 46.1165L208.424 43.5405C208.509 43.4133 208.668 43.3815 208.785 43.4557C208.912 43.5299 208.944 43.6995 208.87 43.8161L207.237 46.392C207.184 46.4769 207.099 46.5193 207.014 46.5193Z" fill="black"/>
    <path d="M207.608 45.5756C207.47 45.5756 207.353 45.459 207.343 45.3212C207.343 45.1728 207.449 45.0561 207.597 45.0455L209.06 44.9819C209.198 44.9819 209.325 45.0879 209.336 45.2363C209.336 45.3847 209.23 45.5014 209.081 45.512L207.608 45.5756C207.618 45.5756 207.618 45.5756 207.608 45.5756Z" fill="black"/>
    <path d="M196.233 82.1797C196.148 82.1797 196.074 82.1479 196.021 82.0737C196 82.0525 194.24 79.6992 192.841 76.2328C190.678 70.8795 192.746 63.1622 192.83 62.8442C192.873 62.7064 193.011 62.6216 193.159 62.6534C193.297 62.6958 193.382 62.8336 193.35 62.982C193.329 63.0562 191.251 70.8477 193.339 76.0314C194.707 79.4342 196.435 81.7345 196.445 81.7557C196.53 81.8723 196.509 82.0419 196.392 82.1267C196.339 82.1586 196.286 82.1797 196.233 82.1797Z" fill="white"/>
    <path d="M200.612 49.5615C199.944 49.5615 199.371 49.1693 199.329 49.1481C199.255 49.0951 199.212 49.0103 199.212 48.9149C199.212 48.8195 199.265 48.7453 199.35 48.6923L202.128 47.134C202.212 47.081 202.318 47.0916 202.403 47.1446C202.488 47.1976 202.53 47.293 202.52 47.3884C202.52 47.4414 202.403 48.5756 201.513 49.2541C201.227 49.4873 200.908 49.5615 200.612 49.5615ZM200.05 48.9255C200.378 49.0527 200.834 49.1269 201.195 48.8513C201.545 48.5862 201.735 48.2152 201.852 47.9184L200.05 48.9255Z" fill="black"/>
    <path d="M201.693 41.2295C201.619 41.2295 201.534 41.1977 201.481 41.1235C201.014 40.5298 200.145 40.8903 200.113 40.9009C199.975 40.9539 199.827 40.8903 199.763 40.7631C199.71 40.6253 199.763 40.4769 199.901 40.4133C199.954 40.3921 201.184 39.8832 201.894 40.7949C201.99 40.9115 201.968 41.0811 201.852 41.1659C201.809 41.2083 201.746 41.2295 201.693 41.2295Z" fill="black"/>
    <path d="M195.693 41.4838C195.64 41.4838 195.577 41.4626 195.534 41.4308C195.418 41.346 195.396 41.1763 195.481 41.0597C195.502 41.0279 196.022 40.3707 196.7 40.3177C197.029 40.2965 197.347 40.4237 197.623 40.6887C197.729 40.7947 197.729 40.9537 197.623 41.0597C197.517 41.1657 197.358 41.1657 197.252 41.0597C197.082 40.9007 196.912 40.8371 196.743 40.8371C196.308 40.8689 195.916 41.3672 195.905 41.3672C195.842 41.4414 195.767 41.4838 195.693 41.4838Z" fill="black"/>
    <path d="M196.647 44.6533C196.509 44.6533 196.392 44.5473 196.382 44.3989L196.318 43.0632L195.746 42.5756C195.629 42.4802 195.618 42.3106 195.714 42.2045C195.809 42.0985 195.979 42.0773 196.085 42.1727L196.753 42.7346C196.806 42.777 196.848 42.8512 196.848 42.9254L196.912 44.3777C196.922 44.5261 196.806 44.6427 196.657 44.6533C196.647 44.6533 196.647 44.6533 196.647 44.6533Z" fill="black"/>
    <path d="M200.898 44.187C200.76 44.187 200.643 44.081 200.633 43.9432L200.548 42.6288L199.721 42.0775C199.594 41.9927 199.562 41.8337 199.647 41.7065C199.732 41.5793 199.891 41.5475 200.018 41.6323L200.951 42.2577C201.014 42.3001 201.067 42.3743 201.067 42.4591L201.163 43.9008C201.173 44.0492 201.057 44.1764 200.919 44.1764C200.908 44.187 200.908 44.187 200.898 44.187Z" fill="black"/>
    <path d="M205.764 42.9363C205.764 42.9363 201.937 42.4274 200.304 39.8727C198.672 37.3179 198.756 36.1095 198.756 36.1095C198.756 36.1095 196.87 37.2014 196.202 38.6324C195.534 40.0635 195.417 40.8162 195.417 40.8162C195.417 40.8162 194.781 37.7526 195.11 36.8091C195.439 35.8657 197.219 30.6077 204.555 31.2544C215.696 32.2296 211.17 41.2614 205.764 42.9363Z" fill="black"/>
    <path d="M207.099 77.5895C207.099 77.5895 206.76 77.4411 205.318 76.9216C203.961 76.434 199.053 76.805 199.053 76.805C199.053 76.805 194.781 77.4305 191.23 78.8404C187.679 80.2502 188.156 81.8509 188.156 81.8509C188.156 81.8509 185.866 83.0488 186.714 84.0665C187.562 85.0735 191.209 84.4587 191.209 84.4587C191.209 84.4587 186.566 85.7625 188.336 86.9392C190.106 88.1053 196.022 86.2078 196.022 86.2078C196.022 86.2078 204.788 90.2572 208.011 87.4163C211.212 84.5859 207.099 77.5895 207.099 77.5895Z" fill="#FC907E"/>
    <path d="M205.287 76.3386L201.704 90.6495C201.704 90.6495 225.004 108.978 234.746 94.6035C244.477 80.2397 226.371 58.7098 218.76 56.6851C211.149 54.6604 214.997 77.8015 214.997 77.8015L205.287 76.3386Z" fill="#E5302E"/>
    <path d="M202.35 114.395C202.308 114.395 202.255 114.384 202.213 114.352C201.63 114.003 196.478 110.865 196.509 108.724C196.509 108.384 196.658 107.897 197.304 107.526C197.856 107.218 198.407 107.186 198.948 107.42C201.184 108.395 202.552 113.822 202.605 114.056C202.626 114.162 202.594 114.268 202.509 114.331C202.456 114.374 202.403 114.395 202.35 114.395ZM198.237 107.801C198.015 107.801 197.792 107.865 197.569 107.992C197.22 108.193 197.05 108.427 197.039 108.734C197.018 110.112 200.156 112.413 201.916 113.547C201.492 112.084 200.326 108.607 198.746 107.918C198.566 107.844 198.407 107.801 198.237 107.801Z" fill="#8758E7"/>
    <path d="M201.714 90.9253C201.576 90.9253 201.46 90.8193 201.449 90.6709C201.438 90.5225 201.555 90.4059 201.703 90.3953C201.725 90.3953 203.866 90.2893 204.555 89.314C205.488 87.9783 203.611 86.5473 203.527 86.4943C203.452 86.4413 203.41 86.3353 203.421 86.2399C203.431 86.1444 203.505 86.0596 203.59 86.0278C203.611 86.0172 206.018 85.1374 206.77 83.2928C207.205 82.2222 205.551 80.1763 204.873 79.4766C204.799 79.4024 204.778 79.2752 204.82 79.1798C204.862 79.0844 204.947 79.0102 205.085 79.0314C205.689 79.0844 207.353 79.0632 207.756 78.3742C207.958 78.035 207.831 77.5367 207.396 76.8795C207.343 76.7947 207.332 76.6993 207.385 76.6145C207.428 76.5297 207.512 76.4767 207.608 76.4661C208.021 76.4555 217.774 76.148 222.82 78.0985C222.958 78.1515 223.021 78.3 222.968 78.4378C222.915 78.5756 222.756 78.6392 222.629 78.5862C218.293 76.9113 210.088 76.9431 208.074 76.9855C208.424 77.6427 208.467 78.194 208.202 78.6392C207.746 79.4236 206.463 79.5614 205.668 79.572C206.41 80.4413 207.756 82.254 207.258 83.4943C206.611 85.0844 204.958 85.996 204.184 86.3564C204.968 87.0879 205.838 88.4023 204.979 89.6214C204.141 90.8087 201.82 90.9253 201.725 90.9359C201.714 90.9253 201.714 90.9253 201.714 90.9253Z" fill="white"/>
    <path d="M215.166 77.1867C215.06 77.1867 214.954 77.1231 214.922 77.0171C214.88 76.9005 214.923 76.7733 215.029 76.6991C215.58 76.3387 220.435 73.2433 222.184 74.473C222.534 74.7168 222.523 74.9818 222.491 75.1196C222.216 76.2008 217.308 76.9217 215.209 77.1761C215.188 77.1867 215.177 77.1867 215.166 77.1867ZM221.081 74.7062C219.82 74.7062 217.795 75.6814 216.396 76.4871C219.417 76.0418 221.855 75.3952 221.972 74.9924C221.972 74.9924 221.94 74.9606 221.877 74.9076C221.665 74.7698 221.4 74.7062 221.081 74.7062Z" fill="white"/>
    <path d="M204.025 59.6111C203.103 59.6111 202.467 58.71 202.181 58.2012C201.661 58.657 200.538 59.5687 199.647 59.5687C199.297 59.5687 199.128 59.3991 199.043 59.2613C198.683 58.6464 199.35 57.3213 199.488 57.0669C199.541 56.9821 199.668 56.9291 199.732 56.9291C199.796 56.9291 205.297 57.0563 207.534 54.067C207.598 53.9822 207.693 53.9504 207.799 53.961C207.895 53.9822 207.979 54.0563 208 54.1518C208.128 54.6182 208.743 56.9821 207.884 57.5122C207.269 57.8938 206.506 57.4485 206.05 57.0987C205.902 57.862 205.488 59.2719 204.417 59.5687C204.28 59.5899 204.152 59.6111 204.025 59.6111ZM202.255 57.5016C202.393 57.5228 202.467 57.5864 202.499 57.6606C202.509 57.6818 203.209 59.3249 204.28 59.0387C205.191 58.7842 205.541 57.1517 205.594 56.5369C205.605 56.4309 205.668 56.3461 205.774 56.3143C205.87 56.2825 205.976 56.3037 206.05 56.3779C206.304 56.6429 207.152 57.332 207.598 57.0457C207.905 56.8549 207.82 55.7312 207.608 54.7772C205.297 57.2895 200.898 57.438 199.902 57.438C199.584 58.0422 199.361 58.7524 199.488 58.9644C199.499 58.975 199.52 59.0174 199.637 59.0174C200.41 59.0174 201.651 57.968 202.064 57.5652C202.117 57.5228 202.191 57.5016 202.255 57.5016Z" fill="white"/>
    <path d="M188.304 86.6741H158.57L150.079 67.4658H178.647C179.358 67.4658 180.004 67.8899 180.29 68.5365L188.304 86.6741Z" fill="#E2DDE8"/>
    <path d="M185.718 86.6742H155.983L148.404 69.5224C147.969 68.5472 148.69 67.4553 149.75 67.4553H177.227L185.718 86.6742Z" fill="#F74D76"/>
    <path d="M198.269 89.102H156.28C155.612 89.102 155.071 88.5614 155.071 87.8935C155.071 87.2257 155.612 86.6851 156.28 86.6851H198.269C198.937 86.6851 199.477 87.2257 199.477 87.8935C199.477 88.5614 198.937 89.102 198.269 89.102Z" fill="#50447E"/>
    <path d="M188.155 82.1159C188.06 82.1159 187.975 82.0629 187.922 81.9886C187.848 81.8614 187.89 81.7024 188.018 81.6282C188.049 81.607 191.124 79.8473 195.014 78.7449C195.152 78.7025 195.3 78.7872 195.343 78.9251C195.385 79.0629 195.3 79.2113 195.162 79.2537C191.336 80.3455 188.314 82.0735 188.283 82.0947C188.24 82.1053 188.198 82.1159 188.155 82.1159Z" fill="black"/>
    <path d="M190.764 84.607C190.679 84.607 190.594 84.5646 190.541 84.4904C190.456 84.3632 190.488 84.2042 190.615 84.1194C190.721 84.0452 193.265 82.3597 195.661 82.1583C195.831 82.1371 195.937 82.2536 195.947 82.4021C195.958 82.5505 195.852 82.6777 195.704 82.6883C193.446 82.8791 190.923 84.5434 190.901 84.5646C190.859 84.5964 190.817 84.607 190.764 84.607Z" fill="black"/>
    <path d="M230.611 134.282C230.516 134.282 230.431 134.239 230.389 134.154C230.314 134.027 230.357 133.868 230.484 133.794C240.311 127.911 244.233 119.08 244.265 118.985C244.318 118.847 244.477 118.794 244.615 118.847C244.752 118.9 244.805 119.059 244.752 119.197C244.71 119.282 240.735 128.282 230.749 134.25C230.707 134.271 230.654 134.282 230.611 134.282Z" fill="white"/>
    <path d="M207.735 35.1553C207.735 35.1553 211.7 24.4486 216.301 28.6995C220.901 32.9503 212.018 39.862 212.018 39.862L207.735 35.1553Z" fill="black"/>
    <path d="M22.4363 78.2574C21.4187 77.4412 -0.00518306 74.367 0.821666 104.335C1.63791 134.303 35.1677 151.476 71.9731 145.02C108.778 138.564 73.9341 95.5789 73.9341 95.5789L22.4363 78.2574Z" fill="#E2DDE8"/>
    <path d="M24.8109 131.918C24.7685 131.918 24.7155 131.907 24.6731 131.875C14.8463 125.992 10.9241 117.14 10.8923 117.056C10.8393 116.918 10.8923 116.769 11.0301 116.706C11.1679 116.653 11.3163 116.706 11.3799 116.844C11.4223 116.928 15.2703 125.631 24.9487 131.419C25.0759 131.494 25.1183 131.653 25.0441 131.78C24.9911 131.875 24.9063 131.918 24.8109 131.918Z" fill="white"/>
    <path d="M78.3756 60.5227C78.3756 60.5227 81.7254 60.7665 80.6654 65.5156C79.5947 70.2541 76.5417 64.3601 76.5417 64.3601L78.3756 60.5227Z" fill="#FC8165"/>
    <path d="M111.482 151.911C110.835 152.282 73.0226 150.321 72.1745 149.547C71.8671 149.271 71.8883 147.469 72.1321 144.914C72.5667 140.261 75.2063 132.299 76.6586 127.391C76.6586 127.391 89.8882 128.282 91.0754 129.034C92.2627 129.798 105.005 140.547 105.005 140.547C105.005 140.547 109.87 142.402 111.609 145.275C112.118 146.123 112.383 147.013 112.467 147.851C112.69 149.886 111.937 151.667 111.482 151.911Z" fill="#8758E7"/>
    <path d="M111.482 151.91C110.835 152.282 73.0226 150.32 72.1745 149.547C71.8671 149.271 71.8883 147.469 72.1321 144.914L112.467 147.861C112.69 149.886 111.937 151.667 111.482 151.91Z" fill="#50447E"/>
    <path d="M100.637 137.207C100.616 137.207 89.5701 136.327 89.5701 136.327C89.4535 136.317 89.3581 136.243 89.3369 136.126C89.3051 136.02 89.3581 135.903 89.4535 135.84L94.881 132.299C94.9976 132.214 95.1672 132.257 95.252 132.373C95.3368 132.501 95.2944 132.66 95.1778 132.744L90.4075 135.861L100.68 136.688C100.828 136.699 100.934 136.826 100.923 136.974C100.892 137.101 100.775 137.207 100.637 137.207Z" fill="#50447E"/>
    <path d="M65.2204 92.4198C65.2204 92.4198 86.2096 77.5789 104.326 82.1372C122.443 86.6955 95.9834 130.752 95.9834 130.752L69.6514 130.815L72.2168 118.19L40.6057 118.126L54.5561 98.3773L65.2204 92.4198Z" fill="#CE1614"/>
    <path d="M89.5064 95.0487C89.4534 95.0487 89.411 95.0381 89.3686 95.0063C89.2414 94.9321 89.2096 94.7625 89.2838 94.6459C89.305 94.6035 91.6689 90.8933 94.8385 88.1901C94.9551 88.0947 95.1141 88.1053 95.2095 88.2219C95.305 88.3279 95.2944 88.4975 95.1777 88.5929C92.0718 91.2431 89.7502 94.8897 89.7184 94.9215C89.676 95.0063 89.5912 95.0487 89.5064 95.0487Z" fill="white"/>
    <path d="M62.2204 71.4729L80.2414 76.911C80.2414 76.911 80.4216 89.0911 68.973 92.4197C57.5243 95.7483 56.1992 81.8721 56.1992 81.8721L62.2204 71.4729Z" fill="#FFAF45"/>
    <path d="M71.9517 73.7734C71.9517 73.7734 71.3898 80.6214 76.8492 79.9641C82.2979 79.3175 81.9693 71.4836 81.9693 71.4836L71.9517 73.7734Z" fill="#FC8165"/>
    <path d="M29.4009 108.618C29.4009 108.618 18.8957 70.6992 27.7366 60.2576C36.5775 49.8265 57.1109 58.519 57.1109 58.519L66.9377 93.3209L29.4009 108.618Z" fill="#FFAF45"/>
    <path d="M44.0406 81.4483C44.0406 81.4483 49.3515 73.042 51.9274 72.0774C54.5034 71.1233 60.7366 72.3848 60.7366 73.1268C60.7366 73.8689 54.9698 74.7805 54.9698 74.7805C54.9698 74.7805 58.2136 80.4519 58.2666 81.724C58.3196 82.996 55.3939 86.7062 54.7472 87.0773C54.1006 87.4483 52.4893 85.3812 52.4893 85.3812C52.4893 85.3812 50.7084 87.5331 48.196 88.2009C45.6837 88.8688 42.8003 85.0525 42.8003 85.0525L44.0406 81.4483Z" fill="#FC8165"/>
    <path d="M51.9485 77.0488C51.8213 77.0488 51.7047 76.9534 51.6729 76.8156C51.6517 76.6672 51.7471 76.5294 51.8955 76.4976L55.3619 75.9146C55.5209 75.8934 55.6587 75.9888 55.6799 76.1372C55.7011 76.2856 55.6057 76.434 55.4573 76.4552L51.9909 77.0382C51.9803 77.0488 51.9591 77.0488 51.9485 77.0488Z" fill="black"/>
    <path d="M35.3799 49.5933L35.5495 56.3565C35.5495 56.3565 36.8216 58.2752 40.7862 58.4978C43.7438 58.6674 44.5176 57.6391 44.5176 57.6391L44.2632 54.5543L43.7756 51.2257L36.5884 49.8265L35.3799 49.5933Z" fill="#FC8165"/>
    <path d="M36.6943 50.4097C36.7155 50.5899 36.7897 50.7913 36.9063 51.0351C38.4964 54.2471 42.6095 54.8513 44.295 54.968L43.8073 51.7772L36.6943 50.4097Z" fill="black"/>
    <path d="M44.6659 36.9257C44.6659 36.9257 48.2701 44.9716 47.0405 49.5192C45.8108 54.0669 41.6659 53.3885 39.1854 52.5404C36.7049 51.6818 35.5388 50.1765 35.5388 50.1765C35.5388 50.1765 33.2385 50.9821 31.6696 48.8408C30.1007 46.71 31.0335 44.2295 32.348 43.6571C33.6625 43.0846 35.242 44.0175 35.242 44.0175L33.9911 41.6853C33.9911 41.6853 39.0582 29.7067 44.6659 36.9257Z" fill="#FFA692"/>
    <path d="M44.3903 47.2081C44.3691 47.2081 44.3374 47.2081 44.3161 47.1975C44.1783 47.1551 44.0935 47.0067 44.1359 46.8689C44.5918 45.3848 43.4787 43.7841 43.4681 43.7629C43.3833 43.6463 43.4151 43.4767 43.5317 43.3919C43.6483 43.3071 43.8179 43.3389 43.9027 43.4555C43.9557 43.5297 45.1748 45.2894 44.6448 47.0173C44.6024 47.1339 44.4963 47.2081 44.3903 47.2081Z" fill="black"/>
    <path d="M34.9133 47.8229C34.8391 47.8229 34.7755 47.7912 34.7225 47.7382L32.5176 45.4166C32.4222 45.3106 32.4221 45.141 32.5281 45.0456C32.6341 44.9396 32.8038 44.9502 32.8992 45.0562L35.1041 47.3777C35.1995 47.4837 35.1995 47.6533 35.0935 47.7487C35.0405 47.7911 34.9769 47.8229 34.9133 47.8229Z" fill="black"/>
    <path d="M32.5812 47.1976C32.454 47.1976 32.3374 47.1022 32.3162 46.975C32.295 46.8266 32.3904 46.6994 32.5388 46.6676L34.0547 46.4343C34.1925 46.4131 34.3303 46.5085 34.3621 46.6569C34.3833 46.8054 34.2879 46.9326 34.1395 46.9644L32.6236 47.1976C32.613 47.1976 32.6024 47.1976 32.5812 47.1976Z" fill="black"/>
    <path d="M35.2418 44.0174C35.2418 44.0174 36.0793 44.5581 36.6835 43.6146C37.2878 42.6606 35.9521 39.862 35.9521 39.862C35.9521 39.862 38.4539 40.4238 40.0015 39.597C41.5492 38.7702 42.3019 36.491 42.3019 36.491C42.3019 36.491 43.4468 38.855 46.8602 37.8055C50.2736 36.756 50.9096 32.1023 47.263 31.1695C43.6164 30.226 41.6234 31.8479 41.6234 31.8479C41.6234 31.8479 41.157 28.4769 36.6517 30.1518C32.5493 31.6783 31.8709 36.8196 31.8709 36.8196C31.8709 36.8196 29.4009 36.9362 28.9345 39.6182C28.4681 42.3001 31.6058 44.2295 31.6058 44.2295C31.6058 44.2295 33.3867 43.1906 35.2418 44.0174Z" fill="black"/>
    <path d="M77.1992 83.6532C75.6197 83.6532 73.913 81.0666 73.6904 80.7274C73.6056 80.6002 73.6479 80.4412 73.7752 80.367C73.8918 80.2928 74.0614 80.3246 74.1356 80.4518C74.7292 81.3635 76.4889 83.6214 77.5808 83.0384C78.7468 82.4129 79.2981 79.6356 79.4147 78.6285C79.4253 78.4801 79.5631 78.3741 79.7115 78.3953C79.8599 78.4059 79.9659 78.5437 79.9447 78.6921C79.9235 78.8511 79.4889 82.6355 77.8352 83.5154C77.6338 83.6108 77.4218 83.6532 77.1992 83.6532Z" fill="#8758E7"/>
    <path d="M40.7224 44.1975C40.5952 44.1975 40.4786 44.1021 40.4574 43.9642L40.2666 42.4589C40.2454 42.3105 40.3514 42.1833 40.4998 42.1621C40.6482 42.1409 40.7754 42.2469 40.7966 42.3953L40.9875 43.9006C41.0087 44.0491 40.9026 44.1763 40.7542 44.1975C40.7436 44.1975 40.733 44.1975 40.7224 44.1975Z" fill="black"/>
    <path d="M65.8248 92.176C65.687 92.176 65.5704 92.07 65.5598 91.9322C65.0721 86.9817 62.687 80.1337 62.6658 80.0595C62.6234 79.9217 62.687 79.7733 62.8248 79.7203C62.9626 79.6779 63.111 79.7415 63.1641 79.8793C63.1853 79.9429 65.5916 86.8651 66.0898 91.8686C66.1004 92.017 65.9944 92.1442 65.8566 92.1548C65.846 92.176 65.8354 92.176 65.8248 92.176Z" fill="#8758E7"/>
    <path d="M45.1851 43.8267C45.0579 43.8267 44.9413 43.7313 44.9201 43.6041L44.6975 42.0988C44.6763 41.9504 44.7717 41.8232 44.9201 41.802C45.0685 41.7808 45.1957 41.8762 45.2169 42.0246L45.4396 43.5299C45.4608 43.6783 45.3654 43.8055 45.2169 43.8267C45.2169 43.8267 45.1957 43.8267 45.1851 43.8267Z" fill="black"/>
    <path d="M39.3127 41.3143C39.2703 41.3143 39.2278 41.3037 39.196 41.2825C39.0688 41.2189 39.0158 41.0599 39.0794 40.9221C39.6307 39.8514 40.9875 40.127 41.0405 40.1376C41.1783 40.1694 41.2738 40.3072 41.2419 40.4556C41.2101 40.5934 41.0724 40.6782 40.9239 40.657C40.8815 40.6464 39.9063 40.4556 39.5459 41.1658C39.5035 41.2612 39.4081 41.3143 39.3127 41.3143Z" fill="black"/>
    <path d="M49.7225 81.6708L70.2347 85.6354C71.2312 85.8262 72.1958 85.1796 72.3866 84.1832L78.0474 54.9148C78.2382 53.9183 77.5915 52.9537 76.5951 52.7629L56.0829 48.7983C55.0864 48.6074 54.1217 49.2541 53.9309 50.2505L48.2702 79.5189C48.0688 80.5153 48.726 81.48 49.7225 81.6708Z" fill="#8758E7"/>
    <path d="M51.1429 81.9464L71.6551 85.9111C72.6515 86.1019 73.6162 85.4552 73.807 84.4588L79.4677 55.1905C79.6586 54.194 79.0119 53.2294 78.0155 53.0385L57.5032 49.0739C56.5068 48.8831 55.5421 49.5297 55.3513 50.5262L49.6906 79.7945C49.4998 80.791 50.1464 81.7556 51.1429 81.9464Z" fill="#ADA4F7"/>
    <path d="M70.5421 56.526C70.2135 56.526 69.8849 56.4942 69.5457 56.4306L64.415 55.4341C63.4397 55.2433 62.5705 54.7981 61.9662 54.1939C61.3408 53.5578 61.0757 52.8052 61.2136 52.0844L61.627 49.943C61.6588 49.8052 61.786 49.6992 61.9344 49.731C62.0828 49.7628 62.1676 49.9006 62.1464 50.0384L61.733 52.1798C61.627 52.7204 61.8496 53.3034 62.3478 53.8228C62.8779 54.3635 63.6411 54.7451 64.521 54.9147L69.6517 55.9112C71.422 56.261 73.0333 55.5825 73.2559 54.4165L73.6693 52.2752C73.7011 52.1374 73.8283 52.0313 73.9767 52.0631C74.1251 52.0949 74.2099 52.2328 74.1887 52.3706L73.7753 54.5119C73.5315 55.731 72.164 56.526 70.5421 56.526Z" fill="white"/>
    <path d="M43.6693 40.3812C43.6163 40.3812 43.5633 40.3706 43.5209 40.3388C43.4043 40.254 43.3724 40.095 43.4467 39.9678C43.6693 39.6392 43.9661 39.4484 44.3053 39.406C45.0155 39.3 45.6728 39.8936 45.694 39.9148C45.8 40.0102 45.8106 40.1798 45.7152 40.2858C45.6198 40.3919 45.4502 40.4024 45.3442 40.307C45.2064 40.1798 44.7505 39.8724 44.3689 39.9254C44.1781 39.9466 44.0191 40.0632 43.8813 40.2646C43.8389 40.3388 43.7541 40.3812 43.6693 40.3812Z" fill="black"/>
    <path d="M80.337 69.4378C80.337 69.4378 85.1285 68.8866 83.655 66.6816C82.1815 64.4767 73.5208 63.4272 72.5985 66.0138C71.6763 68.6003 80.337 69.4378 80.337 69.4378Z" fill="#FC8165"/>
    <path d="M79.8282 73.3916C79.8282 73.3916 84.6197 72.8404 83.1462 70.6355C81.6727 68.4306 73.012 67.3811 72.0897 69.9676C71.1569 72.5542 79.8282 73.3916 79.8282 73.3916Z" fill="#FC8165"/>
    <path d="M77.0508 76.699C78.079 77.0382 79.1815 77.1442 80.2416 76.911C81.185 76.699 82.0119 76.2326 81.5349 75.1619C80.5808 73.0206 73.1922 70.7944 71.9943 72.9146C71.1038 74.4835 75.0049 76.0206 77.0508 76.699Z" fill="#FC8165"/>
    <path d="M80.9093 68.8971C80.8881 68.8971 75.3334 68.4837 75.3334 68.4837C75.185 68.4731 75.079 68.3459 75.0896 68.1975C75.1002 68.0491 75.2274 67.9325 75.3758 67.9537L80.9411 68.3671C81.0895 68.3777 81.1956 68.5049 81.185 68.6533C81.1638 68.7911 81.0471 68.8971 80.9093 68.8971Z" fill="black"/>
    <path d="M80.0082 73.2751C79.987 73.2751 74.4323 72.8616 74.4323 72.8616C74.2839 72.851 74.1779 72.7238 74.1885 72.5754C74.1991 72.427 74.3263 72.3104 74.4747 72.3316L80.04 72.745C80.1884 72.7556 80.2944 72.8828 80.2838 73.0312C80.2626 73.1691 80.146 73.2751 80.0082 73.2751Z" fill="black"/>
    <path d="M37.7013 109.381C37.5741 109.381 37.4575 109.296 37.4151 109.169L36.4822 105.65C36.4398 105.491 36.5353 105.332 36.6943 105.289C36.8427 105.247 37.0123 105.342 37.0547 105.501L37.9875 109.021C38.0299 109.18 37.9345 109.339 37.7755 109.381C37.7437 109.381 37.7225 109.381 37.7013 109.381Z" fill="#534579"/>
    <path d="M65.3157 100.54C65.1567 100.54 65.0295 100.413 65.0295 100.254L64.9341 96.501C64.9341 96.342 65.0613 96.2042 65.2203 96.2042C65.4005 96.183 65.5171 96.3314 65.5171 96.4904L65.6125 100.243C65.6125 100.402 65.4853 100.54 65.3157 100.54Z" fill="#534579"/>
    <path d="M62.2206 102.872C62.0616 102.872 61.9344 102.745 61.9344 102.586L61.9238 98.6105C61.9238 98.4515 62.051 98.3137 62.21 98.3137C62.369 98.3137 62.5068 98.4409 62.5068 98.5999L62.5175 102.575C62.5069 102.745 62.3797 102.872 62.2206 102.872Z" fill="#534579"/>
    <path d="M94.2237 125.049L70.9659 124.572C70.8175 124.572 70.7009 124.444 70.7009 124.307C70.7009 124.158 70.8493 124.052 70.9659 124.042L94.2131 124.519C94.3615 124.519 94.4781 124.646 94.4781 124.784C94.4781 124.932 94.3615 125.049 94.2237 125.049Z" fill="#FFA4BE"/>
    <path d="M42.4715 49.4874C41.4856 49.4874 40.7754 48.7666 40.5104 48.3108C40.4362 48.1835 40.4786 48.0245 40.6058 47.9503C40.733 47.8761 40.892 47.9185 40.9662 48.0457C40.998 48.0881 41.6871 49.2224 42.8849 48.9044C43.0334 48.8726 43.1712 48.9574 43.2136 49.0952C43.256 49.233 43.1712 49.3814 43.0228 49.4238C42.8213 49.4662 42.6411 49.4874 42.4715 49.4874Z" fill="black"/>
    <path d="M145.732 137.462C145.425 138.151 113.803 158.96 112.658 158.843C112.245 158.801 111.195 157.338 109.881 155.133C107.474 151.115 104.888 143.154 103.149 138.331C103.149 138.331 114.333 131.207 115.732 131.123C117.142 131.027 133.785 132.151 133.785 132.151C133.785 132.151 138.799 130.762 141.905 132.045C142.817 132.427 143.559 132.988 144.121 133.614C145.51 135.109 145.955 136.985 145.732 137.462Z" fill="#8758E7"/>
    <path d="M145.732 137.462C145.425 138.151 113.803 158.96 112.658 158.844C112.245 158.801 111.195 157.338 109.881 155.133L144.131 133.614C145.51 135.109 145.955 136.985 145.732 137.462Z" fill="#50447E"/>
    <path d="M119.75 137.982C119.686 137.982 119.633 137.96 119.58 137.918C119.496 137.844 119.464 137.727 119.495 137.621L121.764 131.558C121.817 131.42 121.965 131.346 122.103 131.399C122.241 131.452 122.305 131.6 122.262 131.738L120.259 137.08L129.025 131.664C129.153 131.589 129.312 131.621 129.386 131.748C129.46 131.876 129.428 132.035 129.301 132.109L119.877 137.939C119.845 137.971 119.803 137.982 119.75 137.982Z" fill="#50447E"/>
    <path d="M29.4009 108.618C29.4009 108.618 74.6549 85.6037 84.6407 88.8793C97.7431 93.1831 121.478 128.706 121.478 128.706L100.669 148.847C100.669 148.847 79.1178 119.769 75.6726 120.151C71.6868 120.596 49.2452 130.031 41.2524 127.466C33.2595 124.9 29.4009 108.618 29.4009 108.618Z" fill="#E5302E"/>
    <path d="M76.4041 120.416C76.3723 120.416 76.3405 120.416 76.3087 120.395C76.2133 120.363 76.1391 120.268 76.1391 120.162C76.1285 119.971 75.8529 115.445 77.5702 113.749C78.0578 113.271 78.6514 113.049 79.3404 113.102C79.9553 113.144 80.3475 113.388 80.5065 113.812C81.1638 115.529 77.0507 119.844 76.5843 120.332C76.5419 120.385 76.4677 120.416 76.4041 120.416ZM79.139 113.632C78.6726 113.632 78.2804 113.802 77.9412 114.13C76.7433 115.317 76.6267 118.222 76.6373 119.505C78.291 117.713 80.3793 114.978 80.0083 114.003C79.9765 113.918 79.8811 113.674 79.2981 113.632C79.2557 113.632 79.192 113.632 79.139 113.632Z" fill="white"/>
    <path d="M32.2737 56.823C32.2737 56.823 1.02303 70.3388 6.45055 93.6814C11.6237 115.921 47.2948 96.4905 47.2948 96.4905L45.535 79.0419L28.8921 80.8228L32.2737 56.823Z" fill="#FFAF45"/>
    <path d="M46.3723 94.0099C45.609 94.0099 44.7716 93.8085 44.3688 93.0664C43.7009 91.8368 44.7504 88.5188 45.1744 87.2997C44.2416 87.4163 42.0366 87.5859 40.8494 86.9075C39.3865 86.07 41.708 80.7697 42.5349 78.9994C40.5631 78.904 31.4784 78.5966 23.3583 80.2715C23.2099 80.2927 23.0721 80.2079 23.0403 80.0701C23.0085 79.9217 23.1039 79.7838 23.2417 79.752C32.4431 77.8545 42.8529 78.48 42.9589 78.4906C43.0437 78.4906 43.1285 78.5436 43.1709 78.6178C43.2133 78.692 43.2239 78.7874 43.1815 78.8616C41.5914 82.169 40.3511 86.0064 41.1144 86.441C42.4607 87.2149 45.503 86.7167 45.5348 86.7061C45.6303 86.6849 45.7256 86.7273 45.7786 86.8015C45.8422 86.8757 45.8529 86.9711 45.8211 87.0665C45.3546 88.3174 44.2734 91.7732 44.8352 92.812C45.45 93.9569 47.8034 93.2679 47.8246 93.2573C47.9624 93.2149 48.1108 93.2891 48.1532 93.4269C48.1956 93.5647 48.1214 93.7131 47.9836 93.7555C47.92 93.7873 47.1885 94.0099 46.3723 94.0099Z" fill="#8758E7"/>
    <path d="M31.7119 78.9147C30.3127 78.9147 25.4788 78.8193 24.8215 77.5048C24.7155 77.2928 24.6519 76.9536 24.97 76.5295C25.2456 76.1691 25.6272 75.9465 26.1254 75.8723C28.288 75.5755 31.9133 78.321 32.0618 78.4376C32.1466 78.5012 32.189 78.6285 32.1572 78.7345C32.1042 78.8935 31.9452 78.9147 31.7119 78.9147ZM26.4964 76.3811C26.401 76.3811 26.3056 76.3917 26.2102 76.4023C25.8604 76.4553 25.5954 76.5931 25.4046 76.8476C25.2138 77.102 25.2774 77.2186 25.2986 77.2716C25.6802 78.0242 28.7544 78.3317 31.0759 78.3847C30.0052 77.6532 27.9169 76.3811 26.4964 76.3811Z" fill="#8758E7"/>
    <path d="M30.8532 102.851C30.7472 102.851 30.6412 102.787 30.6094 102.681C30.5564 102.544 30.62 102.395 30.7578 102.342C30.8638 102.3 41.7719 98.1019 47.1464 94.5719C47.2736 94.4977 47.4326 94.5295 47.5174 94.6461C47.6022 94.7733 47.5598 94.9323 47.4432 95.0171C42.0157 98.5789 31.0653 102.798 30.9486 102.84C30.9168 102.84 30.885 102.851 30.8532 102.851Z" fill="#8758E7"/>
    <path d="M37.4892 62.6002C37.362 62.6002 37.256 62.579 37.15 62.5472C35.5175 61.996 35.2949 56.6745 35.2737 56.0702C35.2737 55.9642 35.3373 55.8582 35.4433 55.8158C35.5387 55.7734 35.6659 55.8052 35.7401 55.8794C35.7613 55.9006 37.5104 57.7557 40.8284 58.2434C41.475 58.3388 42.1111 58.3494 42.7153 58.2857C42.7577 58.2645 42.8107 58.2646 42.8531 58.2646C43.0651 58.2328 43.2878 58.201 43.4892 58.148C44.0616 58.0208 44.4432 57.4801 44.3902 56.8971L44.2524 55.3494C44.2418 55.2434 44.3054 55.1374 44.4008 55.0844C44.4962 55.0314 44.6128 55.0526 44.6976 55.1268C45.2277 55.6144 47.8778 58.1161 47.74 59.1444C47.7082 59.3352 47.6022 59.4942 47.4326 59.579C46.4467 60.0879 43.6588 59.1126 42.8849 58.8264C42.1429 59.5896 39.1217 62.6002 37.4892 62.6002ZM35.8355 56.6851C35.9733 58.8264 36.4397 61.7416 37.3196 62.049C38.21 62.3458 40.5422 60.4165 42.1217 58.8582C41.6765 58.8688 41.21 58.837 40.7436 58.7734C38.2312 58.3918 36.5988 57.2999 35.8355 56.6851ZM43.8178 58.6038C45.0899 59.0172 46.6587 59.3882 47.1782 59.1126C47.263 58.6356 46.1181 57.2575 44.8354 56.0066L44.9096 56.8441C44.9839 57.6179 44.5174 58.3388 43.8178 58.6038Z" fill="#8758E7"/>
    <path d="M140.69 20.5753C142.087 12.0058 136.272 3.92645 127.703 2.52946C119.134 1.13248 111.054 6.94689 109.657 15.5163C108.26 24.0858 114.075 32.1652 122.644 33.5622C131.213 34.9592 139.293 29.1447 140.69 20.5753Z" fill="#DCD7E0"/>
    <path d="M137.362 20.0559C138.457 13.3355 133.896 7.00005 127.176 5.90518C120.455 4.81032 114.12 9.37067 113.025 16.091C111.93 22.8114 116.491 29.1468 123.211 30.2417C129.931 31.3366 136.267 26.7762 137.362 20.0559Z" fill="#BCB5C6"/>
    <path d="M124.69 19.1165C124.658 19.1165 124.627 19.1059 124.595 19.0953C124.51 19.0635 124.457 18.9999 124.436 18.9151L122.952 12.7773C122.92 12.6395 123.005 12.4911 123.143 12.4593C123.28 12.4275 123.429 12.5123 123.461 12.6501L124.86 18.4169L133.393 12.8409C133.51 12.7561 133.68 12.7985 133.764 12.9151C133.849 13.0424 133.807 13.2014 133.69 13.2862L124.849 19.0635C124.796 19.0953 124.743 19.1165 124.69 19.1165Z" fill="white"/>
    <path d="M185.718 135.299C185.58 135.299 185.453 135.183 185.453 135.045C185.442 134.653 185.4 131.229 186.926 130.571C188.167 130.031 189.841 131.907 190.594 132.872C190.838 131.494 191.58 128.324 193.117 127.72C194.718 127.105 197.007 129.299 197.898 130.243C198.142 129.109 198.788 126.628 199.933 126.31C201.067 125.981 202.509 127.815 203.135 128.738C203.516 127.635 204.417 125.515 205.52 125.674C206.76 125.833 209.23 127.116 209.336 127.169C209.463 127.232 209.516 127.391 209.453 127.529C209.389 127.656 209.23 127.709 209.092 127.646C209.071 127.635 206.601 126.352 205.446 126.204C204.788 126.109 203.877 128.038 203.463 129.427C203.431 129.522 203.347 129.596 203.241 129.617C203.124 129.628 203.039 129.586 202.976 129.49C202.265 128.345 200.845 126.617 200.06 126.829C199.244 127.063 198.555 129.427 198.301 130.868C198.279 130.974 198.205 131.049 198.11 131.08C198.014 131.102 197.908 131.08 197.834 130.995C197.029 130.052 194.643 127.699 193.297 128.229C191.93 128.759 191.177 132.278 190.997 133.582C190.986 133.688 190.901 133.783 190.795 133.805C190.689 133.836 190.573 133.783 190.52 133.699C189.672 132.48 187.997 130.688 187.117 131.07C186.099 131.515 185.93 134.08 185.962 135.045C185.983 135.172 185.866 135.289 185.718 135.299Z" fill="#8758E7"/>
    <path d="M97.1707 143.165C97.0965 143.165 97.0329 143.133 96.9799 143.08C96.8739 142.974 96.8845 142.805 96.9905 142.709L117.482 123.056C117.588 122.96 117.757 122.96 117.853 123.066C117.959 123.172 117.948 123.342 117.842 123.437L97.351 143.091C97.298 143.133 97.2343 143.165 97.1707 143.165Z" fill="white"/>
</svg>
