<svg width="276" height="249" viewBox="0 0 276 249" fill="none" xmlns="http://www.w3.org/2000/svg">
    <path d="M205.575 82.8754H73.0512C70.7093 82.8754 68.822 80.9743 68.822 78.6462V4.22918C68.822 1.88729 70.7231 0 73.0512 0H205.575C207.917 0 209.804 1.90106 209.804 4.22918V78.6324C209.804 80.9743 207.917 82.8754 205.575 82.8754Z" fill="#DCD7E0"/>
    <path d="M200.298 82.8754H67.7748C65.433 82.8754 63.5457 80.9743 63.5457 78.6462V4.22918C63.5457 1.88729 65.4467 0 67.7748 0H200.298C202.64 0 204.528 1.90106 204.528 4.22918V78.6324C204.541 80.9743 202.64 82.8754 200.298 82.8754Z" fill="#EAE6EF"/>
    <path d="M209.721 83.5782H63.2014C61.7825 83.5782 60.6392 82.4348 60.6392 81.0159C60.6392 79.597 61.7825 78.4536 63.2014 78.4536H209.735C211.154 78.4536 212.297 79.597 212.297 81.0159C212.284 82.4348 211.14 83.5782 209.721 83.5782Z" fill="#BCB5C6"/>
    <path d="M99.8039 78.4532H75.5723C75.5723 73.2597 79.7739 69.0581 84.9674 69.0581H90.4088C95.6023 69.0719 99.8039 73.2735 99.8039 78.4532Z" fill="#FFAF45"/>
    <path d="M178.505 78.5501H153.929C153.227 78.5501 152.648 77.9715 152.648 77.2689C152.648 76.5664 153.227 75.9878 153.929 75.9878H178.505C179.208 75.9878 179.786 76.5664 179.786 77.2689C179.786 77.9715 179.221 78.5501 178.505 78.5501Z" fill="#50447E"/>
    <path d="M174.593 60.5031C174.593 60.5031 172.568 51.4524 170.074 51.2595C167.581 51.0804 169.537 58.5469 169.537 58.5469L162.801 55.9709C162.801 55.9709 155.127 53.8356 153.598 54.4968C152.069 55.1581 154.59 57.6515 154.59 57.6515C154.59 57.6515 149.121 56.0122 149.893 58.6709C150.664 61.3297 154.397 62.8725 154.397 62.8725C154.397 62.8725 149.052 60.9853 150.265 64.0986C150.912 65.7792 162.663 72.9014 170.57 72.6396C178.477 72.3916 175.323 66.2889 175.323 66.2889L174.593 60.5031Z" fill="#FC8165"/>
    <path d="M157.345 64.6091C157.249 64.6091 157.153 64.5678 157.084 64.4851C156.96 64.3473 156.974 64.1269 157.125 64.0029L163.917 58.2033C164.054 58.0793 164.275 58.0931 164.399 58.2446C164.523 58.3824 164.509 58.6028 164.357 58.7268L157.566 64.5264C157.497 64.5815 157.414 64.6091 157.345 64.6091Z" fill="black"/>
    <path d="M171.617 67.9283C171.493 67.9145 169.179 67.7079 168.118 65.8206C167.223 64.2502 167.471 62.0323 168.862 59.2495C168.945 59.0842 169.151 59.0154 169.331 59.098C169.496 59.1807 169.565 59.3873 169.482 59.5526C168.215 62.1287 167.953 64.1262 168.724 65.4762C169.62 67.0604 171.645 67.2395 171.659 67.2395C171.851 67.2533 171.989 67.4186 171.975 67.6115C171.948 67.7906 171.796 67.9283 171.617 67.9283Z" fill="black"/>
    <path d="M226.597 23.1845C226.597 23.1845 235.648 16.1726 243.376 20.9391C251.104 25.7193 248.129 35.7205 248.129 35.7205C248.129 35.7205 257.716 38.3379 259.108 50.5296C260.485 62.7212 248.9 65.0217 248.9 65.0217L232.245 55.1582L226.597 23.1845Z" fill="black"/>
    <path d="M253.308 212.878C253.308 212.878 216.127 204.158 211.802 176.055C206.47 141.478 215.92 124.547 215.92 124.547L240.207 153.532L247.495 188.564L257.096 195.507L262.441 206.83L253.308 212.878Z" fill="#FC7059"/>
    <path d="M273.255 192.545C273.173 191.181 271.96 190.12 270.486 190.134C264.701 190.203 251.696 189.652 251.71 190.713C251.724 192.063 255.581 205.549 255.581 205.549C255.581 205.549 247.563 206.031 249.065 211.597C250.222 215.867 255.388 220.771 257.73 222.824C258.474 223.472 258.997 224.312 259.245 225.235C260.292 229.216 263.709 240.154 269.591 240.237C276.796 240.347 275.942 237.468 275.914 236.118C275.928 234.961 273.848 201.885 273.255 192.545Z" fill="#CE1614"/>
    <path d="M225.247 153.394C225.247 153.394 229.848 220.868 232.699 227.99C235.551 235.112 251.159 227.99 251.159 227.99L254.851 155.02L225.247 153.394Z" fill="#FC8165"/>
    <path d="M259.094 162.004C259.355 163.519 254.658 167.776 239.022 168.712C234.311 169.002 229.834 168.809 225.853 168.368C216.65 167.376 210.066 165.034 209.156 164.153C207.848 162.899 209.156 148.682 209.156 135.719C209.156 126.049 210.617 113.912 211.361 108.388C211.622 106.515 211.788 105.399 211.788 105.399L212.821 99.5439H231.928C231.928 99.5439 249.712 101.734 253.873 111.763C258.047 121.778 257 159.235 257 159.235C257 159.235 258.832 160.502 259.094 162.004Z" fill="#E5302E"/>
    <path d="M225.853 168.369C216.65 167.377 210.066 165.035 209.156 164.153C207.848 162.9 209.156 148.683 209.156 135.72C209.156 126.049 210.617 113.913 211.361 108.389L217.904 111.53L225.853 168.369Z" fill="#CE1614"/>
    <path d="M233.154 169.057C232.989 169.057 232.837 168.933 232.81 168.754L226.252 114.656C226.225 114.463 226.362 114.298 226.555 114.27C226.762 114.243 226.914 114.38 226.941 114.573L233.498 168.671C233.526 168.864 233.388 169.029 233.195 169.057C233.182 169.057 233.168 169.057 233.154 169.057Z" fill="#8758E7"/>
    <path d="M240.042 168.712C239.863 168.712 239.711 168.575 239.697 168.409L233.608 110.124C233.595 109.931 233.732 109.766 233.911 109.752C234.104 109.724 234.27 109.876 234.297 110.055L240.386 168.34C240.4 168.533 240.262 168.699 240.083 168.712C240.069 168.712 240.056 168.712 240.042 168.712Z" fill="#8758E7"/>
    <path d="M246.503 167.79C246.31 167.79 246.158 167.638 246.158 167.445C245.855 145.983 241.915 110.469 241.874 110.11C241.847 109.918 241.984 109.752 242.177 109.725C242.356 109.697 242.535 109.835 242.563 110.028C242.604 110.386 246.544 145.928 246.847 167.432C246.847 167.638 246.696 167.79 246.503 167.79Z" fill="#8758E7"/>
    <path d="M252.895 166.729C252.688 166.715 252.537 166.564 252.55 166.371C252.55 166.261 253.046 155.805 252.661 142.36C252.275 128.928 248.597 111.02 248.569 110.841C248.528 110.648 248.652 110.469 248.831 110.427C249.024 110.386 249.203 110.51 249.244 110.689C249.286 110.868 252.964 128.832 253.35 142.318C253.735 155.805 253.253 166.288 253.239 166.385C253.226 166.591 253.074 166.729 252.895 166.729Z" fill="#8758E7"/>
    <path d="M214.997 166.729C214.805 166.729 214.653 166.564 214.653 166.371L215.976 110.758C215.976 110.565 216.113 110.427 216.334 110.427C216.527 110.427 216.678 110.593 216.664 110.785L215.342 166.398C215.342 166.591 215.177 166.729 214.997 166.729Z" fill="#8758E7"/>
    <path d="M225.37 167.79C225.205 167.79 225.054 167.666 225.026 167.487L217.835 113.485C217.808 113.293 217.945 113.127 218.124 113.1C218.331 113.072 218.483 113.21 218.51 113.389L225.701 167.39C225.729 167.583 225.591 167.748 225.412 167.776C225.398 167.79 225.384 167.79 225.37 167.79Z" fill="#8758E7"/>
    <path d="M238.623 103.153C238.623 103.153 220.053 104.296 212.6 100.66L213.041 78.3428C213.041 78.3428 217.091 49.7579 222.891 49.1518C228.704 48.5456 233.829 49.3171 233.829 49.3171L254.3 76.0146L238.623 103.153Z" fill="#FFAF45"/>
    <path d="M249.588 246.932C250.966 246.918 252.082 245.761 252.151 244.301C252.385 238.515 253.638 225.566 252.578 225.524C251.228 225.469 237.562 228.61 237.562 228.61C237.562 228.61 237.507 220.579 231.873 221.791C227.547 222.714 222.381 227.618 220.205 229.85C219.516 230.553 218.662 231.035 217.725 231.228C213.689 232.054 202.585 234.878 202.186 240.76C201.704 247.951 204.624 247.249 205.96 247.304C207.104 247.332 240.235 247.028 249.588 246.932Z" fill="#E5302E"/>
    <path d="M235.703 99.5991C235.703 99.5991 221.624 101.927 218.841 104.49C216.058 107.052 222.809 116.888 224.544 118.472C226.28 120.07 238.637 111.97 238.637 111.97L240.428 104.903L235.703 99.5991Z" fill="#FC8165"/>
    <path d="M218.841 104.49C218.841 104.49 212.959 112.907 213.923 116.378C214.901 119.85 221.982 109.118 221.982 109.118L218.841 104.49Z" fill="#FC8165"/>
    <path d="M229.2 116.144C229.2 116.144 236.487 115.111 235.055 117.756C233.622 120.401 225.825 119.946 224.53 118.472C223.235 117.012 227.313 113.017 227.313 113.017L229.2 116.144Z" fill="#FC8165"/>
    <path d="M230.151 116.984C230.013 116.984 229.875 116.901 229.834 116.764C229.765 116.584 229.862 116.392 230.027 116.323L231.528 115.744L230.371 114.89C230.22 114.78 230.192 114.559 230.302 114.408C230.413 114.256 230.633 114.229 230.785 114.339L232.451 115.579C232.548 115.648 232.603 115.772 232.589 115.909C232.575 116.033 232.493 116.144 232.369 116.185L230.275 116.984C230.234 116.984 230.192 116.984 230.151 116.984Z" fill="black"/>
    <path d="M219.681 111.874C219.64 111.874 219.599 111.86 219.557 111.846C219.378 111.777 219.296 111.584 219.365 111.405C219.502 111.061 220.701 107.989 221.431 107.369C221.569 107.245 221.789 107.259 221.913 107.41C222.037 107.548 222.023 107.768 221.872 107.892C221.417 108.278 220.494 110.4 220.012 111.653C219.957 111.791 219.819 111.874 219.681 111.874Z" fill="black"/>
    <path d="M221.913 115.428C221.858 115.428 221.803 115.414 221.761 115.387C221.596 115.304 221.527 115.097 221.61 114.918L224.145 109.918C224.227 109.752 224.434 109.683 224.613 109.766C224.778 109.849 224.847 110.055 224.765 110.234L222.23 115.235C222.161 115.359 222.037 115.428 221.913 115.428Z" fill="black"/>
    <path d="M219.268 37.3463C219.268 37.3463 216.595 34.3156 217.449 29.6731C218.028 26.5323 219.433 25.5266 219.433 25.5266C219.433 25.5266 217.353 21.201 223.704 21.5454C230.054 21.8898 233.746 25.072 233.746 25.072C233.746 25.072 236.667 23.6807 237.92 27.0971C239.174 30.4997 237.81 35.4865 237.81 35.4865L219.268 37.3463Z" fill="black"/>
    <path d="M233.154 42.7876L232.851 50.5434C232.851 50.5434 231.363 52.72 226.817 52.9128C223.428 53.0506 222.422 51.2735 222.422 51.2735L223.511 44.5234L231.776 43.0356L233.154 42.7876Z" fill="#FC8165"/>
    <path d="M233.154 42.3057C233.126 42.5123 233.03 42.7603 232.906 43.0496C231.019 46.8517 224.847 48.2293 222.891 48.3257L223.511 44.5098L233.154 42.3057Z" fill="black"/>
    <path d="M222.464 26.7665C222.464 26.7665 218.014 36.327 219.406 41.796C220.797 47.265 225.77 46.5211 228.746 45.543C231.735 44.5649 233.14 42.774 233.14 42.774C233.14 42.774 235.882 43.7797 237.796 41.2449C239.711 38.724 238.637 35.7346 237.08 35.0183C235.523 34.3019 233.609 35.404 233.609 35.404L235.151 32.635C235.151 32.6488 229.297 18.2255 222.464 26.7665Z" fill="#FC8165"/>
    <path d="M233.622 35.4177C233.622 35.4177 229.448 36.2029 226.638 31.5329C223.814 26.8629 224.103 24.9756 224.103 24.9756L221.155 29.7145C221.155 29.7145 220.563 26.3945 221.913 24.3006C223.263 22.2067 224.641 22.6613 224.641 22.6613L233.774 25.0858L236.088 32.4697L233.622 35.4177Z" fill="black"/>
    <path d="M222.629 39.0959C222.478 39.0959 222.34 38.9994 222.299 38.8479C221.693 36.754 223.194 34.66 223.249 34.5774C223.359 34.4259 223.58 34.3845 223.731 34.5085C223.883 34.6187 223.924 34.8391 223.8 34.9907C223.786 35.0044 222.436 36.9055 222.946 38.6688C223.001 38.8479 222.891 39.0408 222.712 39.0959C222.684 39.0959 222.657 39.0959 222.629 39.0959Z" fill="black"/>
    <path d="M233.953 39.9912C233.87 39.9912 233.774 39.9636 233.719 39.8947C233.581 39.757 233.581 39.5503 233.719 39.4126L236.391 36.6712C236.529 36.5334 236.735 36.5334 236.873 36.6712C237.011 36.8089 237.011 37.0156 236.873 37.1533L234.201 39.8947C234.132 39.9636 234.049 39.9912 233.953 39.9912Z" fill="black"/>
    <path d="M236.75 39.3024C236.694 39.3024 234.876 38.9856 234.876 38.9856C234.683 38.958 234.559 38.7789 234.6 38.5861C234.628 38.3932 234.793 38.2692 235 38.2968L236.805 38.5999C236.997 38.6274 237.121 38.8065 237.08 38.9994C237.053 39.1784 236.915 39.3024 236.75 39.3024Z" fill="black"/>
    <path d="M220.88 31.1473C220.714 31.1473 220.563 31.0233 220.535 30.858C220.508 30.6652 220.632 30.4999 220.825 30.4585L222.547 30.183C222.739 30.1555 222.905 30.2795 222.946 30.4723C222.974 30.6652 222.85 30.8305 222.657 30.8718L220.935 31.1473C220.907 31.1473 220.893 31.1473 220.88 31.1473Z" fill="black"/>
    <path d="M228.002 32.3733C227.946 32.3733 227.891 32.3595 227.836 32.332L225.04 30.8717C224.875 30.7891 224.806 30.5687 224.888 30.4034C224.971 30.238 225.191 30.1692 225.357 30.2518L228.153 31.7121C228.318 31.7947 228.387 32.0151 228.305 32.1804C228.236 32.3182 228.126 32.3733 228.002 32.3733Z" fill="black"/>
    <path d="M220.825 35.1145C220.783 35.1145 220.756 35.1145 220.714 35.1007C220.535 35.0456 220.439 34.8528 220.494 34.6737L221.004 33.117L220.59 32.5935C220.48 32.442 220.494 32.2216 220.646 32.1114C220.797 32.0012 221.004 32.0149 221.128 32.1665L221.651 32.8277C221.72 32.9241 221.748 33.0343 221.706 33.1446L221.141 34.8803C221.1 35.0318 220.962 35.1145 220.825 35.1145Z" fill="black"/>
    <path d="M225.701 35.6522C225.66 35.6522 225.632 35.6522 225.591 35.6384C225.412 35.5833 225.315 35.3905 225.371 35.2114L225.866 33.6547L225.26 32.9246C225.136 32.7731 225.164 32.5664 225.302 32.4425C225.453 32.3185 225.66 32.346 225.784 32.4838L226.514 33.3517C226.583 33.4481 226.61 33.5721 226.583 33.6823L226.018 35.418C225.977 35.5696 225.839 35.6522 225.701 35.6522Z" fill="black"/>
    <path d="M233.815 49.3037C233.815 49.3037 268.544 54.9518 269.811 89.6669C270.528 109.132 238.761 116.089 238.761 116.089L231.487 98.0977L245.869 86.8153L233.815 49.3037Z" fill="#FFAF45"/>
    <path d="M231.005 231.021C230.853 231.021 230.716 230.924 230.674 230.787C230.619 230.608 230.716 230.415 230.895 230.36L237.452 228.293C237.645 228.238 237.824 228.335 237.879 228.514C237.934 228.693 237.838 228.886 237.659 228.941L231.101 231.007C231.074 231.007 231.033 231.021 231.005 231.021Z" fill="#8758E7"/>
    <path d="M259.094 211.803C258.984 211.803 258.86 211.748 258.805 211.638L255.305 205.728C255.209 205.562 255.264 205.356 255.43 205.259C255.595 205.163 255.801 205.218 255.898 205.383L259.397 211.293C259.493 211.458 259.438 211.665 259.273 211.762C259.218 211.789 259.163 211.803 259.094 211.803Z" fill="#8758E7"/>
    <path d="M234.793 93.5105C234.683 93.5105 234.587 93.4691 234.518 93.3727C234.408 93.2212 234.435 93.0008 234.587 92.8906C234.986 92.5875 244.285 85.5205 248.004 84.2118C248.183 84.1429 248.376 84.2393 248.445 84.4184C248.514 84.5975 248.417 84.7904 248.238 84.8593C244.615 86.1404 235.096 93.3727 235 93.4416C234.945 93.4829 234.862 93.5105 234.793 93.5105Z" fill="white"/>
    <path d="M243.376 87.2975C243.321 87.2975 243.266 87.2837 243.211 87.2562C243.087 87.1873 243.018 87.0495 243.032 86.898C243.128 86.2643 244.037 80.7126 246.021 79.6657C246.462 79.4315 246.944 79.4315 247.398 79.6519C247.853 79.8723 248.129 80.2305 248.197 80.6989C248.487 82.8204 244.092 86.7602 243.583 87.2011C243.541 87.2699 243.459 87.2975 243.376 87.2975ZM246.737 80.1892C246.613 80.1892 246.489 80.2167 246.351 80.2856C245.167 80.9055 244.299 84.0464 243.899 86.0026C245.401 84.5561 247.701 82.0489 247.536 80.7953C247.509 80.5611 247.371 80.3958 247.123 80.2718C246.985 80.2167 246.861 80.1892 246.737 80.1892Z" fill="white"/>
    <path d="M168.366 74.4721C168.366 74.4721 176.398 85.5341 191.345 87.201C206.291 88.8817 215.521 80.6988 215.521 80.6988L221.982 49.3037C221.982 49.3037 207.2 56.7151 194.775 61.454C187.446 64.2505 175.433 58.3407 175.433 58.3407L168.366 74.4721Z" fill="#FFAF45"/>
    <path d="M195.601 70.0915C195.202 70.0915 194.844 69.94 194.568 69.6507C192.998 68.0113 194.292 62.0464 194.444 61.3714C194.472 61.2336 194.596 61.1234 194.733 61.1096C194.871 61.0959 195.009 61.1648 195.078 61.2887C195.395 61.8673 198.136 67.0608 197.117 69.1823C196.882 69.6644 196.483 69.9675 195.932 70.0639C195.822 70.0915 195.711 70.0915 195.601 70.0915ZM194.912 62.4872C194.527 64.6087 194.113 68.1904 195.064 69.1823C195.257 69.3751 195.505 69.444 195.808 69.3889C196.138 69.3338 196.359 69.1685 196.497 68.8792C197.117 67.5981 195.822 64.3607 194.912 62.4872Z" fill="white"/>
    <path d="M224.42 41.4514C224.324 41.4514 224.255 41.4377 224.241 41.4377C224.048 41.4101 223.924 41.231 223.965 41.0382C223.993 40.8591 224.158 40.7213 224.365 40.7626C224.406 40.7626 225.288 40.8729 226.128 39.4815C226.225 39.3162 226.431 39.2611 226.597 39.3575C226.762 39.4539 226.817 39.6606 226.721 39.8259C225.839 41.2861 224.82 41.4514 224.42 41.4514Z" fill="black"/>
    <path d="M61.4934 216.226V226.585L80.3112 225.855V216.226H61.4934Z" fill="#FC8165"/>
    <path d="M18.0581 215.068V225.414L35.4708 224.684V215.068H18.0581Z" fill="#FC8165"/>
    <path d="M86.4276 218.306H54.6742C54.6742 218.306 51.1476 191.787 50.2109 181.29C49.4119 172.529 47.1113 161.301 46.3674 157.83C46.2159 157.141 46.1333 156.755 46.1333 156.755C46.1333 156.755 41.78 217.286 40.7331 218.306C39.6999 219.325 9.31049 218.526 9.64111 217.135C9.95795 215.744 19.2428 115.373 20.0693 108.747C22.5903 88.3998 55.8865 100.95 55.8865 100.95C55.8865 100.95 60.3223 108.223 65.6122 121.117C69.5934 130.774 74.0568 143.6 77.5008 158.877C84.8433 191.402 86.4276 218.306 86.4276 218.306Z" fill="#FEA311"/>
    <path d="M39.7963 242.524C39.7963 244.356 39.2039 246.436 37.9917 246.974C36.7794 247.497 26.9572 248.599 18.3611 247.828C10.1369 247.084 8.42879 246.45 7.82265 245.679C7.51959 245.279 8.09817 243.461 8.77319 241.684C8.81452 241.601 8.84201 241.491 8.88334 241.408C9.22773 240.513 9.57213 239.659 9.83387 239.039C10.0818 238.46 10.3987 237.895 10.7706 237.358C11.666 236.091 13.4294 233.459 13.8702 232.096C14.4625 230.277 15.3718 226.365 15.9779 224.519C16.5841 222.701 18.0719 222.329 18.0719 222.329C18.0719 222.329 34.9886 221.13 36.2008 222.177C37.3993 223.21 38.0055 231.834 38.0055 233.143V234.438C38.0055 235.65 38.8045 238.047 39.328 240.031C39.4657 240.526 39.5759 240.995 39.6724 241.422C39.7275 241.863 39.7963 242.221 39.7963 242.524Z" fill="#50447E"/>
    <path d="M110.576 246.257C109.447 246.739 61.4243 248.102 60.3084 246.257C59.964 245.705 59.7299 243.818 59.5783 241.449C59.1788 235.87 59.1788 227.563 59.1788 227.563C59.1788 227.563 58.8206 224.725 58.9033 223.416C58.9584 222.121 82.0604 222.617 82.0604 222.617L97.0761 234.878C97.0761 234.878 101.195 234.12 105.7 234.878C108.083 235.277 109.626 238.294 110.384 241.146C111.059 243.667 111.114 246.022 110.576 246.257Z" fill="#50447E"/>
    <path d="M110.576 246.256C109.447 246.738 61.4243 248.102 60.3084 246.256C59.964 245.705 59.7299 243.818 59.5784 241.449C68.7117 242.124 91.1663 243.391 110.37 241.146C111.059 243.666 111.114 246.022 110.576 246.256Z" fill="#FFAF45"/>
    <path d="M39.7963 242.524C39.7963 244.356 39.2039 246.436 37.9917 246.973C36.7794 247.497 26.9572 248.599 18.3611 247.827C10.1369 247.083 8.42879 246.45 7.82265 245.678C7.51959 245.279 8.09817 243.46 8.77319 241.683C16.405 242.276 30.1946 242.827 39.328 240.044C39.4657 240.54 39.5759 241.008 39.6724 241.435C39.7275 241.862 39.7963 242.221 39.7963 242.524Z" fill="#FFAF45"/>
    <path d="M18.485 231.365C18.3335 231.365 18.1957 231.268 18.1544 231.117C18.0993 230.938 18.2095 230.745 18.3886 230.69C18.6641 230.607 25.1939 228.816 28.6654 229.422L30.773 229.794C28.9408 228.403 25.0974 225.841 22.7417 226.888C22.5626 226.97 22.3698 226.888 22.2871 226.709C22.2045 226.53 22.2872 226.337 22.4662 226.254C26.048 224.67 32.0129 229.877 32.2608 230.097C32.371 230.194 32.4124 230.373 32.3435 230.511C32.2746 230.649 32.123 230.731 31.9715 230.704L28.5413 230.097C25.2351 229.505 18.6365 231.324 18.5677 231.337C18.5401 231.351 18.5126 231.365 18.485 231.365Z" fill="white"/>
    <path d="M93.4808 232.274C93.4394 232.274 84.8846 231.365 84.8846 231.365C84.7607 231.351 84.6504 231.269 84.5953 231.158C84.5402 231.048 84.5677 230.911 84.6504 230.814L87.6398 227.177C87.7638 227.026 87.9842 227.012 88.1219 227.136C88.2735 227.26 88.2872 227.48 88.177 227.618L85.6009 230.759L93.522 231.599C93.7149 231.613 93.8527 231.792 93.8252 231.971C93.7976 232.137 93.6598 232.274 93.4808 232.274Z" fill="white"/>
    <path d="M20.5104 123.459C20.4002 123.459 20.3037 123.404 20.2348 123.321C20.1246 123.17 20.166 122.949 20.3176 122.839C25.6075 119.023 26.985 113.458 26.9988 113.403C27.0402 113.224 27.233 113.113 27.4121 113.141C27.5912 113.182 27.7151 113.375 27.66 113.554C27.6049 113.788 26.2136 119.409 20.717 123.39C20.6482 123.431 20.5793 123.459 20.5104 123.459Z" fill="#50447E"/>
    <path d="M33.611 50.3371C33.611 50.3371 24.2434 50.3096 19.1877 55.4066C14.132 60.5037 18.3749 110.427 18.3749 110.427C18.3749 110.427 33.8451 111.584 45.4031 110.427C52.4976 109.711 59.5785 107.011 59.5785 107.011C59.5785 107.011 51.9328 57.2526 49.3154 52.3346C46.698 47.4304 33.611 50.3371 33.611 50.3371Z" fill="#CE1614"/>
    <path d="M48.5715 51.3701C48.5715 51.3701 53.9166 53.712 61.4933 66.0138C68.4225 77.2687 69.4144 87.6832 66.2184 94.0752C63.0224 100.467 52.291 100.288 52.291 100.288L48.5715 51.3701Z" fill="#CE1614"/>
    <path d="M34.8649 30.0863C34.8649 30.0863 42.4966 30.7614 43.2268 23.4464C44.012 15.663 36.821 14.6161 33.625 17.6468C30.429 20.6775 30.8699 23.901 30.8699 23.901C30.8699 23.901 28.8173 21.8897 26.3789 24.1627C24.6019 25.8296 25.3595 28.7088 25.3595 28.7088C25.3595 28.7088 21.4197 28.3919 21.6538 31.8496C21.8743 35.3074 24.2713 37.1533 24.2713 37.1533L34.8649 30.0863Z" fill="black"/>
    <path d="M27.3293 43.2979L27.7978 51.4531C27.7978 51.4531 29.3957 53.7124 34.1897 53.8226C37.7576 53.9052 38.9561 53.0374 38.9561 53.0374L38.2261 48.9322L37.5097 44.9372L28.7896 43.532L27.3293 43.2979Z" fill="#FC8165"/>
    <path d="M28.7896 43.5317C28.8171 43.7522 28.9273 44.0139 29.0651 44.3032C31.1177 48.2706 36.1597 48.863 38.226 48.9319L37.5097 44.9369L28.7896 43.5317Z" fill="black"/>
    <path d="M38.2812 26.2567C38.2812 26.2567 43.1441 36.2304 41.7803 42.0025C40.4165 47.7746 35.1817 47.0996 32.027 46.1215C28.8724 45.1434 27.3432 43.2974 27.3432 43.2974C27.3432 43.2974 24.4778 44.3995 22.4252 41.7821C20.3726 39.1647 21.4334 36.01 23.0728 35.2248C24.6983 34.4396 26.7233 35.5554 26.7233 35.5554L25.0564 32.6625C25.0426 32.6763 30.9249 17.3989 38.2812 26.2567Z" fill="#FC8165"/>
    <path d="M26.6403 39.9915C26.5714 39.9915 26.5163 39.9777 26.4612 39.9364L22.6453 37.4981C22.48 37.4017 22.4387 37.1812 22.5351 37.0159C22.6453 36.8506 22.8519 36.8093 23.0035 36.9057L26.8194 39.344C26.9847 39.4405 27.0261 39.6609 26.9296 39.8262C26.8608 39.9364 26.7505 39.9915 26.6403 39.9915Z" fill="black"/>
    <path d="M23.2792 40.1424C23.1277 40.1424 23.0037 40.046 22.9486 39.9082C22.8935 39.7291 22.9899 39.5363 23.169 39.4811L25.5522 38.7235C25.7313 38.6684 25.9242 38.7648 25.9793 38.9439C26.0344 39.123 25.9379 39.3158 25.7588 39.3709L23.3756 40.1286C23.3619 40.1424 23.3205 40.1424 23.2792 40.1424Z" fill="black"/>
    <path d="M31.6686 30.9542C31.5997 30.9542 31.5308 30.9405 31.4757 30.8991C31.3242 30.7889 31.2829 30.5823 31.3931 30.417C32.4263 28.9154 33.9278 29.0945 34.5753 29.3976C34.7406 29.4802 34.8232 29.6869 34.7406 29.8522C34.6579 30.0175 34.4513 30.1001 34.286 30.0175C34.2309 29.9899 32.9084 29.4113 31.9578 30.8027C31.889 30.9129 31.7788 30.9542 31.6686 30.9542Z" fill="black"/>
    <path d="M39.5623 30.6098C39.4934 30.6098 39.4245 30.5823 39.3556 30.5409C38.4602 29.8797 37.5785 30.4583 37.5785 30.4583C37.427 30.5547 37.2066 30.5272 37.0964 30.3619C36.9862 30.2103 37.0275 29.9899 37.1929 29.8797C37.248 29.8522 38.4878 29.0394 39.7689 29.9761C39.9205 30.0863 39.948 30.3068 39.8378 30.4583C39.7689 30.5685 39.6725 30.6098 39.5623 30.6098Z" fill="black"/>
    <path d="M38.088 39.3301C38.0605 39.3301 38.0329 39.3301 38.0054 39.3163C37.8263 39.275 37.7023 39.0821 37.7436 38.903C38.46 35.9137 36.7794 33.8473 36.7518 33.8197C36.6278 33.6682 36.6553 33.4616 36.7931 33.3376C36.9308 33.2136 37.1513 33.2274 37.2753 33.3789C37.3579 33.4754 39.1901 35.7208 38.4048 39.0546C38.3911 39.2199 38.2533 39.3301 38.088 39.3301Z" fill="black"/>
    <path d="M39.7414 34.0399C39.6036 34.0399 39.4659 33.9434 39.4108 33.8057L38.7909 31.9597C38.7358 31.7806 38.8322 31.5878 39.0112 31.5189C39.1903 31.4638 39.3832 31.5602 39.4521 31.7393L40.072 33.5853C40.1271 33.7643 40.0307 33.9572 39.8516 34.0261C39.8103 34.0399 39.7827 34.0399 39.7414 34.0399Z" fill="black"/>
    <path d="M34.5893 34.4393C34.4515 34.4393 34.3138 34.3428 34.2587 34.2051L33.6388 32.3591C33.5837 32.18 33.6801 31.9872 33.8591 31.9183C34.0382 31.8632 34.2311 31.9596 34.3 32.1387L34.9199 33.9847C34.975 34.1638 34.8785 34.3566 34.6994 34.4255C34.6581 34.4393 34.6306 34.4393 34.5893 34.4393Z" fill="black"/>
    <path d="M39.2595 28.5021C39.2595 28.5021 38.2814 26.9179 36.2425 27.0143C34.2037 27.1108 33.1016 28.6123 33.1016 28.6123C33.1016 28.6123 34.1899 31.9874 31.5311 33.9573C28.8724 35.9273 26.6958 35.5416 26.6958 35.5416L24.6432 34.9354L23.0039 32.0838L28.4454 25.499L35.7328 21.1045L39.7554 24.3556L39.2595 28.5021Z" fill="black"/>
    <path d="M27.8804 51.0528C27.8804 51.0528 13.9668 49.4824 6.25232 63.1618C-0.291201 74.7748 0.0394057 85.3271 0.0394057 85.3271L21.7225 82.1862L27.8804 51.0528Z" fill="#E5302E"/>
    <path d="M0.0393066 85.3278C0.0393066 85.3278 0.452548 102.093 13.9529 100.137C29.2716 97.9051 35.3743 67.2952 35.3743 67.2952L39.9479 64.3885C39.9479 64.3885 39.0662 68.1218 42.7306 66.1105C46.395 64.0993 45.6648 60.3247 45.6648 60.3247L41.3806 52.7204C41.3806 52.7204 47.7037 46.6315 45.8302 46.3284C42.9372 45.8601 33.9416 52.073 33.9416 52.073C33.9416 52.073 34.4376 48.3259 32.3436 48.9458C30.0844 49.6209 29.2854 56.5225 29.2854 56.5225L5.26032 84.0467L0.0393066 85.3278Z" fill="#FC8165"/>
    <path d="M39.9481 64.7329C39.8516 64.7329 39.7552 64.6916 39.6863 64.6089C39.5899 64.4849 39.5761 64.3196 39.6588 64.1957L41.3394 61.7435C41.4496 61.592 41.67 61.5507 41.8216 61.6609C41.9731 61.7711 42.0144 61.9777 41.9042 62.1431L40.9675 63.5206L42.3175 62.8732C42.4828 62.7905 42.6895 62.8594 42.7721 63.0385C42.8548 63.2038 42.7859 63.4104 42.6068 63.4931L40.0858 64.7191C40.0445 64.7191 39.9894 64.7329 39.9481 64.7329Z" fill="black"/>
    <path d="M39.7412 54.2217C39.631 54.2217 39.5208 54.1666 39.4519 54.0701C39.3417 53.9186 39.383 53.6982 39.5346 53.588L41.1601 52.4446C41.3116 52.3344 41.5321 52.3757 41.6423 52.5272C41.7525 52.6788 41.7112 52.8992 41.5597 53.0094L39.9341 54.1528C39.879 54.1941 39.8101 54.2217 39.7412 54.2217Z" fill="black"/>
    <path d="M27.3294 56.8662L37.8127 69.0854C37.8127 69.0854 34.0106 92.9038 22.1634 100.301C10.3162 107.699 -0.745777 97.1605 0.0394451 85.3408C0.824667 73.5074 27.3294 56.8662 27.3294 56.8662Z" fill="#E5302E"/>
    <path d="M33.9553 52.4312C33.8727 52.4312 33.7901 52.4036 33.7349 52.3485C33.6247 52.2521 33.5834 52.0868 33.6385 51.949C33.6798 51.8664 34.5202 49.8964 33.2252 48.5188C33.0324 48.3122 32.9083 48.3122 32.8119 48.3398C32.0818 48.5051 31.1038 50.5852 30.6492 52.0041C30.5941 52.1832 30.4012 52.2796 30.2083 52.2245C30.0293 52.1694 29.9328 51.9766 29.9879 51.7975C30.1945 51.1638 31.2828 47.9816 32.6604 47.6785C32.9359 47.6234 33.3354 47.6372 33.7349 48.0505C34.7406 49.1112 34.7268 50.4337 34.5615 51.3016L37.234 49.5796C37.3993 49.4832 37.6059 49.5245 37.7161 49.6898C37.8263 49.8551 37.7713 50.0617 37.6197 50.1719L34.1758 52.3899C34.0794 52.4174 34.0104 52.4312 33.9553 52.4312Z" fill="black"/>
    <path d="M19.3255 67.9566C19.3255 67.9566 13.9116 67.874 11.4044 68.9209C8.89718 69.9679 4.24092 76.4701 4.99859 77.4344C5.75626 78.3987 7.43694 77.4344 7.43694 77.4344C7.43694 77.4344 6.52774 79.8038 8.64922 79.7487C10.7982 79.6798 19.3255 67.9566 19.3255 67.9566Z" fill="#FC8165"/>
    <path d="M61.4246 77.517C61.3695 77.517 61.3006 77.5033 61.2593 77.4757C54.3438 73.522 37.9919 72.9848 37.8266 72.971C37.6337 72.971 37.4822 72.8057 37.496 72.6128C37.496 72.42 37.6338 72.2822 37.8542 72.2822C38.5292 72.3098 54.5367 72.847 61.6037 76.8696C61.769 76.966 61.8241 77.1726 61.7277 77.338C61.6588 77.4482 61.5348 77.517 61.4246 77.517Z" fill="white"/>
    <path d="M58.2698 99.8747C58.0907 99.861 42.6204 98.6074 30.1532 91.6368C29.9879 91.5404 29.9329 91.3337 30.0155 91.1684C30.112 91.0031 30.3185 90.948 30.4839 91.0307C42.8132 97.9323 58.1457 99.1722 58.2973 99.1859C58.4901 99.1997 58.6279 99.365 58.6142 99.5579C58.5866 99.737 58.4488 99.8747 58.2698 99.8747Z" fill="white"/>
    <path d="M52.8971 74.1687C51.2991 74.1687 49.591 74.0309 48.544 73.9345C48.3925 73.9207 48.2685 73.8105 48.2409 73.659C48.2134 73.5074 48.296 73.3559 48.42 73.287C48.668 73.163 54.44 70.3252 56.4926 72.3778C56.9059 72.7911 56.8784 73.1355 56.7819 73.3421C56.4651 73.9896 54.7569 74.1687 52.8971 74.1687ZM49.9354 73.3697C53.1865 73.5901 55.8865 73.4799 56.1482 73.0528C56.1482 73.0528 56.1207 72.9839 55.9967 72.86C54.8809 71.7303 51.8916 72.5845 49.9354 73.3697Z" fill="white"/>
    <path d="M29.9879 53.3265C29.9327 53.3265 29.8914 53.3127 29.8363 53.2852C27.8939 52.3346 27.5634 51.1775 27.5496 51.1361C27.4945 50.957 27.6047 50.7642 27.7975 50.7091C27.9766 50.654 28.1695 50.7642 28.2246 50.9433C28.2246 50.957 28.5276 51.8663 30.1532 52.6652C30.3185 52.7479 30.3874 52.9545 30.3048 53.1199C30.2359 53.2576 30.1118 53.3265 29.9879 53.3265Z" fill="white"/>
    <path d="M7.29928 77.916C7.21662 77.916 7.13392 77.8885 7.07882 77.8334C6.94106 77.7094 6.92734 77.489 7.05132 77.3512L11.7351 71.9924C11.859 71.8547 12.0795 71.8409 12.2173 71.9649C12.355 72.0889 12.3687 72.3093 12.2448 72.447L7.56102 77.8058C7.49214 77.8747 7.39571 77.916 7.29928 77.916Z" fill="black"/>
    <path d="M86.4278 218.306H54.6745C54.6745 218.306 51.1479 191.787 50.2111 181.29C49.4121 172.529 47.1116 161.301 46.3677 157.83C46.7672 147.98 47.7177 129.231 47.7177 129.231L65.6125 121.117C69.5937 130.774 74.0571 143.599 77.501 158.877C84.8435 191.401 86.4278 218.306 86.4278 218.306Z" fill="#F7811A"/>
    <path d="M228.401 58.0925C228.153 58.0925 227.905 58.0374 227.685 57.941C226.376 57.3899 225.866 55.3373 225.674 54.0286C224.999 55.1445 223.814 56.8527 222.615 57.1695C222.202 57.2797 221.816 57.2246 221.458 56.9904C219.502 55.7093 221.844 51.549 222.12 51.0806C222.175 50.9704 222.299 50.9153 222.423 50.9153C222.547 50.9153 222.657 50.9842 222.726 51.0806C222.767 51.1495 223.58 52.4719 225.867 52.5684C225.894 52.5684 225.935 52.5684 225.963 52.5684C226.211 52.5822 226.5 52.5684 226.789 52.5408C229.655 52.2791 232.63 50.254 232.658 50.2403C232.754 50.1714 232.878 50.1576 232.989 50.2127C233.099 50.254 233.168 50.3505 233.195 50.4745C233.223 50.626 233.788 54.3041 230.729 56.9629C229.875 57.7205 229.09 58.0925 228.401 58.0925ZM226.266 53.2709C226.376 54.497 226.817 56.8251 227.947 57.3073C228.553 57.569 229.324 57.2659 230.275 56.4532C232.369 54.621 232.575 52.1964 232.548 51.1357C231.556 51.7418 229.2 53.023 226.845 53.2434C226.638 53.2572 226.445 53.2709 226.266 53.2709ZM222.478 51.8934C221.803 53.2021 220.783 55.7368 221.844 56.4256C222.023 56.5496 222.216 56.5771 222.436 56.5083C223.47 56.2327 224.709 54.3455 225.343 53.2296C223.814 53.0505 222.919 52.3617 222.478 51.8934Z" fill="white"/>
    <path d="M11.4044 68.9204C11.4044 68.9204 4.0067 72.1026 4.04802 74.3894C4.08935 76.6762 7.29918 75.3813 7.29918 75.3813L11.4044 68.9204Z" fill="#FC8165"/>
    <path d="M5.38444 75.919C5.30179 75.919 5.21917 75.8914 5.16407 75.8363C5.02631 75.7123 5.01251 75.4919 5.13649 75.3541L9.82022 69.9954C9.9442 69.8576 10.1647 69.8438 10.3024 69.9678C10.4402 70.0918 10.454 70.3122 10.33 70.45L5.64619 75.8087C5.57731 75.8776 5.48088 75.919 5.38444 75.919Z" fill="black"/>
    <path d="M17.8238 102.602C17.6861 102.602 17.5621 102.519 17.507 102.395C17.4381 102.216 17.5208 102.024 17.6861 101.941C17.8514 101.872 34.5615 94.4882 37.4407 69.1957L27.3292 57.4174L21.6536 64.6084C21.5296 64.7599 21.323 64.7875 21.1714 64.6635C21.0199 64.5395 20.9923 64.3329 21.1163 64.1813L27.0537 56.6597C27.1225 56.5771 27.219 56.5357 27.3154 56.522C27.4256 56.522 27.522 56.5633 27.5772 56.646L38.0605 68.8651C38.1294 68.934 38.157 69.0304 38.1432 69.1269C35.264 94.9565 18.1269 102.492 17.9479 102.575C17.9203 102.588 17.8652 102.602 17.8238 102.602Z" fill="white"/>
    <path d="M33.7626 106.997C25.07 106.997 18.1133 106.129 17.9755 106.101C17.7827 106.074 17.6587 105.908 17.6724 105.716C17.7 105.523 17.8653 105.385 18.0582 105.413C18.3199 105.44 44.494 108.733 58.7795 102.437C58.9448 102.354 59.1515 102.437 59.2342 102.616C59.3168 102.795 59.2342 102.988 59.0551 103.071C52.0018 106.198 42.0832 106.997 33.7626 106.997Z" fill="white"/>
    <path d="M22.7281 110.317C22.5627 110.317 22.4112 110.193 22.3837 110.014L21.9015 106.226C21.8739 106.033 22.0117 105.867 22.2046 105.84C22.3974 105.812 22.5627 105.95 22.5903 106.143L23.0725 109.931C23.1 110.124 22.9622 110.29 22.7693 110.317C22.7556 110.317 22.7418 110.317 22.7281 110.317Z" fill="white"/>
    <path d="M27.646 110.716C27.467 110.716 27.3154 110.578 27.3017 110.399L26.9848 106.542C26.9711 106.349 27.1088 106.184 27.3017 106.17C27.4945 106.17 27.6599 106.294 27.6736 106.487L27.9904 110.344C28.0042 110.537 27.8665 110.702 27.6736 110.716C27.6599 110.716 27.646 110.716 27.646 110.716Z" fill="white"/>
    <path d="M25.3181 53.3265C25.1941 53.3265 25.0701 53.2576 25.015 53.1474C24.9324 52.9821 24.9874 52.7754 25.1528 52.679L26.8335 51.7836C26.9988 51.7009 27.2054 51.756 27.3018 51.9213C27.3844 52.0867 27.3294 52.2933 27.1641 52.3897L25.4834 53.2851C25.4283 53.3127 25.3732 53.3265 25.3181 53.3265Z" fill="white"/>
    <path d="M27.8667 55.3649C27.7978 55.3649 27.7427 55.3511 27.6876 55.3098C27.5223 55.2134 27.4809 54.9929 27.5773 54.8414L28.5003 53.3812C28.5967 53.2159 28.8172 53.1745 28.9687 53.271C29.134 53.3674 29.1754 53.5878 29.079 53.7393L28.1559 55.1996C28.1008 55.3098 27.9907 55.3649 27.8667 55.3649Z" fill="white"/>
    <path d="M32.7293 110.716C32.5502 110.716 32.3987 110.579 32.3849 110.399L32.0957 106.694C32.0819 106.501 32.2196 106.336 32.4125 106.322C32.6329 106.28 32.7707 106.446 32.7845 106.639L33.0737 110.344C33.0875 110.537 32.9497 110.703 32.7569 110.716C32.7431 110.716 32.7293 110.716 32.7293 110.716Z" fill="white"/>
    <path d="M37.7853 110.717C37.6062 110.717 37.4547 110.579 37.4409 110.414L37.0551 106.708C37.0414 106.515 37.1792 106.35 37.3583 106.336C37.5511 106.322 37.7164 106.46 37.7302 106.639L38.1159 110.331C38.1297 110.524 37.9919 110.689 37.8128 110.703C37.799 110.717 37.7991 110.717 37.7853 110.717Z" fill="white"/>
    <path d="M43.5158 110.317C43.3367 110.317 43.1989 110.193 43.1714 110.014L42.7994 106.708C42.7719 106.515 42.9097 106.349 43.1025 106.322C43.2816 106.308 43.4606 106.432 43.4882 106.625L43.8602 109.931C43.8877 110.124 43.75 110.289 43.5571 110.317C43.5434 110.317 43.5296 110.317 43.5158 110.317Z" fill="white"/>
    <path d="M49.1227 109.628C48.9299 109.628 48.7783 109.477 48.7783 109.284V105.619C48.7783 105.426 48.9299 105.275 49.1227 105.275C49.3156 105.275 49.4671 105.426 49.4671 105.619V109.284C49.4671 109.477 49.3156 109.628 49.1227 109.628Z" fill="white"/>
    <path d="M54.5229 108.113C54.3438 108.113 54.1922 107.975 54.1785 107.796L53.9443 104.738C53.9305 104.545 54.0683 104.38 54.2611 104.366C54.4678 104.338 54.6193 104.49 54.6331 104.683L54.8673 107.741C54.881 107.934 54.7433 108.099 54.5504 108.113C54.5367 108.113 54.5229 108.113 54.5229 108.113Z" fill="white"/>
    <path d="M35.8153 41.8099C34.9612 41.8099 34.4377 40.8318 34.2586 40.1981C34.2035 40.0191 34.3137 39.8262 34.4928 39.7711C34.6719 39.716 34.8648 39.8262 34.9199 40.0053C34.9199 40.0191 35.3194 41.2727 35.953 41.1074C36.1321 41.0522 36.325 41.1625 36.3801 41.3553C36.4352 41.5344 36.325 41.7273 36.1321 41.7824C36.0219 41.7961 35.9118 41.8099 35.8153 41.8099Z" fill="black"/>
    <path d="M41.8767 210.756C41.8629 210.756 10.4264 209.764 10.4264 209.764C10.2336 209.764 10.0821 209.599 10.0958 209.406C10.0958 209.213 10.2474 209.076 10.454 209.076L41.8905 210.068C42.0833 210.068 42.2349 210.233 42.2211 210.426C42.2073 210.605 42.0558 210.756 41.8767 210.756Z" fill="#50447E"/>
    <path d="M54.2748 210.26C54.082 210.26 53.9304 210.109 53.9304 209.916C53.9304 209.723 54.082 209.572 54.2748 209.572L85.2566 209.076C85.422 209.076 85.601 209.227 85.601 209.42C85.601 209.613 85.4495 209.764 85.2566 209.764L54.2748 210.26C54.2886 210.26 54.2886 210.26 54.2748 210.26Z" fill="#50447E"/>
    <path d="M170.46 75.3266C169.579 75.3266 168.78 74.8582 168.724 74.8307C168.559 74.7342 168.504 74.5276 168.6 74.3623C168.697 74.197 168.904 74.1419 169.069 74.2383C169.083 74.2521 170.543 75.0924 171.369 74.2796C171.48 74.1832 171.521 74.073 171.507 73.9215C171.48 73.2878 170.501 72.2959 169.895 71.8138C169.771 71.7173 169.73 71.5658 169.785 71.428C169.84 71.2903 169.964 71.1938 170.116 71.1938C171.659 71.2352 173.973 70.9183 174.138 70.1607C174.345 69.2515 172.527 68.1769 171.879 67.8739C171.728 67.805 171.645 67.6397 171.686 67.4744C171.728 67.3091 171.865 67.1989 172.044 67.2126C172.954 67.2677 175.502 67.2264 176.453 66.3172C176.563 66.207 176.618 66.083 176.604 65.9177C176.535 65.0498 174.91 63.5896 173.89 62.8595C173.766 62.763 173.711 62.6115 173.766 62.46C173.821 62.3084 173.959 62.2258 174.125 62.2396C175.02 62.3222 176.618 62.2533 177.031 61.7161C177.362 61.3028 176.453 59.939 175.681 59.1262C175.543 58.9885 175.557 58.768 175.695 58.6441C175.833 58.5201 176.053 58.5201 176.177 58.6578C176.549 59.0573 178.395 61.0824 177.568 62.1431C177.086 62.763 175.971 62.9146 175.116 62.9421C175.984 63.6722 177.21 64.857 177.279 65.8626C177.307 66.2346 177.183 66.5514 176.921 66.8131C176.081 67.6259 174.455 67.8601 173.298 67.9152C174.111 68.48 175.02 69.3479 174.8 70.326C174.524 71.5382 172.32 71.8275 170.984 71.8826C171.507 72.4061 172.155 73.1776 172.182 73.8939C172.196 74.2383 172.072 74.5414 171.824 74.7893C171.438 75.2026 170.929 75.3266 170.46 75.3266Z" fill="white"/>
    <path d="M238.761 116.02C238.609 116.02 238.472 115.91 238.43 115.758C238.389 115.579 238.499 115.386 238.678 115.345C238.692 115.345 240.331 114.918 240.359 113.761C240.359 113.609 240.318 113.499 240.207 113.403C239.739 112.975 238.348 112.934 237.576 113.017C237.425 113.031 237.287 112.948 237.232 112.824C237.177 112.686 237.204 112.535 237.314 112.424C238.458 111.35 239.877 109.545 239.463 108.884C238.981 108.099 236.929 108.595 236.254 108.829C236.088 108.884 235.923 108.815 235.84 108.677C235.758 108.54 235.785 108.347 235.909 108.25C236.598 107.658 238.389 105.84 238.43 104.531C238.43 104.366 238.375 104.255 238.265 104.145C237.618 103.567 235.427 103.663 234.187 103.856C234.05 103.87 233.912 103.815 233.843 103.691C233.774 103.567 233.788 103.415 233.87 103.305C234.573 102.437 235.661 100.784 235.592 100.081C235.537 99.5854 233.788 99.0068 232.19 98.7726C231.997 98.745 231.873 98.5659 231.901 98.3869C231.928 98.194 232.093 98.07 232.286 98.0976C233.196 98.2216 236.143 98.7313 236.281 100.012C236.378 100.88 235.496 102.258 234.904 103.084C236.02 102.988 237.921 102.933 238.72 103.635C238.995 103.883 239.133 104.2 239.119 104.558C239.092 105.729 238.086 107.024 237.287 107.878C238.265 107.713 239.519 107.699 240.042 108.553C240.69 109.6 239.312 111.35 238.403 112.328C239.147 112.328 240.138 112.438 240.662 112.934C240.91 113.168 241.048 113.471 241.034 113.816C240.979 115.496 238.912 116.02 238.83 116.034C238.816 116.02 238.788 116.02 238.761 116.02Z" fill="white"/>
    <path d="M212.903 82.3796C212.766 82.3796 212.628 82.297 212.573 82.1454C208.578 70.5462 213.344 64.6088 213.551 64.3609C213.675 64.2093 213.882 64.1955 214.033 64.3195C214.185 64.4435 214.198 64.6639 214.074 64.8017C214.033 64.8568 209.363 70.7115 213.22 81.925C213.275 82.1041 213.193 82.297 213 82.3659C212.986 82.3796 212.945 82.3796 212.903 82.3796Z" fill="white"/>
    <path d="M254.465 160.75C254.341 160.75 254.217 160.681 254.148 160.557C254.065 160.392 254.148 160.185 254.313 160.102L256.862 158.918C257.027 158.835 257.234 158.918 257.317 159.083C257.399 159.248 257.317 159.455 257.151 159.538L254.603 160.722C254.561 160.75 254.506 160.75 254.465 160.75Z" fill="#8758E7"/>
    <path d="M46.1334 157.1C45.913 157.086 45.7753 156.921 45.789 156.728C45.8028 156.59 46.7947 143.572 47.0702 137.786C47.3595 132.014 47.3732 129.259 47.3732 129.231C47.3732 129.093 47.4559 128.969 47.5799 128.914L57.8567 124.175C58.022 124.093 58.2286 124.175 58.3112 124.341C58.3939 124.506 58.3112 124.713 58.1459 124.795L48.062 129.452C48.0482 130.209 48.0069 132.951 47.759 137.827C47.4697 143.613 46.4778 156.645 46.464 156.783C46.464 156.962 46.3125 157.1 46.1334 157.1Z" fill="#50447E"/>
    <path d="M158.422 34.4396C158.422 38.6731 157.338 42.8362 155.274 46.5322C153.209 50.2282 150.232 53.334 146.628 55.5539C143.023 57.7737 138.909 59.0337 134.68 59.2136C130.45 59.3936 126.245 58.4876 122.464 56.582C118.684 54.6764 115.454 51.8347 113.083 48.3274C110.712 44.8201 109.278 40.7642 108.919 36.5459C108.559 32.3277 109.285 28.0876 111.029 24.2296C112.772 20.3716 115.474 17.0241 118.877 14.506L133.626 34.4396H158.422Z" fill="#E5302E"/>
    <path d="M120.391 13.8672C123.891 11.2785 128.046 9.71809 132.396 9.35796C136.747 8.99783 141.125 9.85194 145.049 11.8262C148.972 13.8004 152.287 16.818 154.63 20.5466C156.973 24.2751 158.252 28.5698 158.327 32.9573L134.598 33.1074L120.391 13.8672Z" fill="#FFAF45"/>
</svg>
