<svg width="122" height="138" viewBox="0 0 122 138" fill="none" xmlns="http://www.w3.org/2000/svg">
    <path d="M84.0063 36.4602C84.0063 23.5745 73.7267 13.1136 61 13.1136C48.2733 13.1136 37.9937 23.5745 37.9937 36.4602C37.9937 49.346 48.2733 59.8068 61 59.8068C73.7267 59.8068 84.0063 49.346 84.0063 36.4602ZM95.9051 36.4602C95.9051 56.0652 80.2694 71.9205 61 71.9205C41.7306 71.9205 26.0949 56.0652 26.0949 36.4602C26.0949 16.8552 41.7306 1 61 1C80.2694 1 95.9051 16.8552 95.9051 36.4602ZM12.8987 118.622C12.8987 119.691 12.8767 120.532 12.8587 121.218C12.8515 121.492 12.845 121.741 12.8408 121.969C12.8336 122.36 12.8329 122.708 12.8527 123.004C12.8719 123.289 12.9141 123.608 13.0374 123.902C13.1778 124.236 13.4159 124.521 13.7671 124.7C14.0732 124.857 14.3944 124.896 14.6385 124.91C14.8891 124.924 15.1779 124.916 15.4627 124.907L15.5315 124.905C15.8127 124.896 16.1246 124.886 16.4877 124.886H105.512C105.875 124.886 106.187 124.896 106.469 124.905L106.537 124.907C106.822 124.916 107.111 124.924 107.362 124.91C107.606 124.896 107.927 124.857 108.233 124.7C108.584 124.521 108.822 124.236 108.963 123.902C109.086 123.608 109.128 123.289 109.147 123.004C109.167 122.708 109.166 122.36 109.159 121.969C109.155 121.741 109.148 121.492 109.141 121.218C109.123 120.533 109.101 119.691 109.101 118.622C109.101 110.637 103.318 104.434 94.5992 100.281C85.8563 96.1162 73.9226 93.875 61 93.875C48.0774 93.875 36.1437 96.1162 27.4008 100.281C18.6819 104.434 12.8987 110.637 12.8987 118.622ZM1 118.622C1 106.022 7.81621 96.8545 18.7454 90.7838C29.7144 84.6909 44.7776 81.7613 61 81.7613C77.2225 81.7613 92.2856 84.6909 103.255 90.7838C114.184 96.8545 121 106.022 121 118.622C121 125.329 119.69 129.883 117.198 132.759C114.735 135.603 110.946 137 105.512 137H16.4877C11.0542 137 7.26502 135.603 4.80188 132.759C2.3103 129.883 1 125.329 1 118.622Z" fill="#CBCBCB" stroke="#EBEBEB" stroke-width="2"/>
</svg>
