<svg width="41" height="41" viewBox="0 0 41 41" fill="none" xmlns="http://www.w3.org/2000/svg">
<path d="M26.1952 6.40625H14.8036C12.577 6.40795 10.4421 7.29321 8.86764 8.86764C7.29321 10.4421 6.40795 12.577 6.40625 14.8036V26.1952C6.40761 28.422 7.29272 30.5572 8.86719 32.1319C10.4417 33.7066 12.5768 34.5921 14.8036 34.5938H26.1952C28.4219 34.5917 30.5568 33.7062 32.1312 32.1315C33.7056 30.5569 34.5908 28.4219 34.5925 26.1952V14.8036C34.5915 12.5768 33.7064 10.4415 32.1318 8.86689C30.5573 7.29231 28.422 6.40727 26.1952 6.40625ZM31.7583 26.1952C31.758 27.6705 31.1718 29.0853 30.1286 30.1285C29.0853 31.1718 27.6705 31.758 26.1952 31.7583H14.8036C14.0731 31.7583 13.3497 31.6144 12.6748 31.3348C11.9999 31.0553 11.3867 30.6455 10.8702 30.1288C10.3538 29.6122 9.9441 28.9989 9.66466 28.324C9.38523 27.649 9.24149 26.9257 9.24166 26.1952V14.8036C9.24149 14.0731 9.38524 13.3498 9.66469 12.6749C9.94414 12 10.3538 11.3868 10.8703 10.8703C11.3868 10.3538 12 9.94414 12.6749 9.66469C13.3498 9.38524 14.0731 9.24149 14.8036 9.24166H26.1952C27.6702 9.242 29.0847 9.82809 30.1276 10.8711C31.1706 11.9141 31.7567 13.3286 31.7571 14.8036L31.7583 26.1952Z" fill="url(#paint0_linear_422_7653)"/>
<path d="M20.5 13.2121C16.4795 13.2121 13.2123 16.4805 13.2123 20.4998C13.2123 24.5191 16.4807 27.7876 20.5 27.7876C24.5193 27.7876 27.7878 24.5191 27.7878 20.4998C27.7878 16.4805 24.5206 13.2121 20.5 13.2121ZM20.5 24.9522C19.3192 24.9523 18.1867 24.4834 17.3516 23.6485C16.5165 22.8137 16.0472 21.6813 16.047 20.5005C16.0469 19.3196 16.5158 18.1871 17.3507 17.352C18.1855 16.5169 19.3179 16.0476 20.4987 16.0475C21.6796 16.0473 22.8121 16.5162 23.6472 17.3511C24.4823 18.1859 24.9516 19.3183 24.9517 20.4992C24.9519 21.68 24.483 22.8125 23.6481 23.6476C22.8133 24.4827 21.6809 24.952 20.5 24.9522ZM27.8032 11.5195C28.1484 11.5198 28.4859 11.6224 28.7729 11.8144C29.0599 12.0064 29.2835 12.2791 29.4155 12.5982C29.5475 12.9172 29.582 13.2682 29.5146 13.6069C29.4472 13.9455 29.2809 14.2566 29.0367 14.5007C28.7926 14.7449 28.4815 14.9112 28.1429 14.9786C27.8042 15.046 27.4532 15.0115 27.1342 14.8795C26.8151 14.7475 26.5424 14.5239 26.3504 14.2369C26.1584 13.9499 26.0558 13.6124 26.0555 13.2672C26.0555 12.3037 26.709 11.5195 27.8032 11.5195Z" fill="url(#paint1_linear_422_7653)"/>
<defs>
<linearGradient id="paint0_linear_422_7653" x1="6.40625" y1="20.7764" x2="34.5925" y2="20.7764" gradientUnits="userSpaceOnUse">
<stop stop-color="#E12131"/>
<stop offset="1" stop-color="#FEA310"/>
</linearGradient>
<linearGradient id="paint1_linear_422_7653" x1="13.2123" y1="19.813" x2="29.5482" y2="19.813" gradientUnits="userSpaceOnUse">
<stop stop-color="#E12131"/>
<stop offset="1" stop-color="#FEA310"/>
</linearGradient>
</defs>
</svg>
