<svg width="25" height="25" viewBox="0 0 25 25" fill="none" xmlns="http://www.w3.org/2000/svg">
<path d="M15.9727 3.90625H9.02656C7.66889 3.90728 6.36712 4.44708 5.4071 5.4071C4.44708 6.36712 3.90728 7.66889 3.90625 9.02656V15.9727C3.90708 17.3305 4.44678 18.6324 5.40682 19.5926C6.36686 20.5528 7.66875 21.0927 9.02656 21.0938H15.9727C17.3304 21.0925 18.6322 20.5525 19.5922 19.5924C20.5522 18.6323 21.0919 17.3304 21.093 15.9727V9.02656C21.0924 7.66876 20.5527 6.36675 19.5926 5.40664C18.6325 4.44653 17.3305 3.90687 15.9727 3.90625ZM19.3648 15.9727C19.3646 16.8723 19.0072 17.735 18.3711 18.3711C17.735 19.0072 16.8723 19.3646 15.9727 19.3648H9.02656C8.58113 19.3648 8.14006 19.2771 7.72855 19.1066C7.31703 18.9361 6.94313 18.6863 6.6282 18.3712C6.31327 18.0562 6.06348 17.6823 5.89309 17.2707C5.7227 16.8592 5.63505 16.4181 5.63516 15.9727V9.02656C5.63505 8.58117 5.72271 8.14012 5.8931 7.72861C6.0635 7.3171 6.31331 6.94319 6.62825 6.62825C6.94319 6.31331 7.3171 6.0635 7.72861 5.8931C8.14012 5.7227 8.58117 5.63505 9.02656 5.63516H15.9727C16.8721 5.63536 17.7345 5.99274 18.3705 6.6287C19.0065 7.26467 19.3639 8.12717 19.3641 9.02656L19.3648 15.9727Z" fill="white"/>
<path d="M12.5 8.0562C10.0485 8.0562 8.05627 10.0492 8.05627 12.5C8.05627 14.9507 10.0492 16.9437 12.5 16.9437C14.9508 16.9437 16.9438 14.9507 16.9438 12.5C16.9438 10.0492 14.9516 8.0562 12.5 8.0562ZM12.5 15.2148C11.78 15.2149 11.0894 14.929 10.5802 14.4199C10.071 13.9109 9.78489 13.2204 9.78479 12.5003C9.78469 11.7803 10.0706 11.0897 10.5797 10.5805C11.0887 10.0713 11.7792 9.78521 12.4992 9.78511C13.2193 9.785 13.9098 10.0709 14.419 10.58C14.9282 11.089 15.2144 11.7795 15.2145 12.4996C15.2146 13.2196 14.9287 13.9102 14.4196 14.4194C13.9105 14.9286 13.22 15.2147 12.5 15.2148ZM16.9531 7.02417C17.1637 7.02432 17.3695 7.08689 17.5444 7.20395C17.7194 7.32102 17.8558 7.48733 17.9363 7.68188C18.0168 7.87642 18.0378 8.09046 17.9967 8.29695C17.9556 8.50343 17.8542 8.6931 17.7053 8.84197C17.5565 8.99085 17.3668 9.09225 17.1603 9.13336C16.9538 9.17447 16.7398 9.15345 16.5452 9.07295C16.3507 8.99245 16.1844 8.85609 16.0673 8.6811C15.9502 8.5061 15.8877 8.30033 15.8875 8.08979C15.8875 7.50229 16.286 7.02417 16.9531 7.02417Z" fill="white"/>
</svg>
