<svg width="17" height="17" viewBox="0 0 17 17" fill="none" xmlns="http://www.w3.org/2000/svg">
<path fill-rule="evenodd" clip-rule="evenodd" d="M8.50003 0C9.02163 0 9.44448 0.422842 9.44448 0.944444V7.55555L16.0556 7.55556C16.5772 7.55556 17 7.9784 17 8.5C17 9.0216 16.5772 9.44444 16.0556 9.44444L9.44448 9.44444V16.0556C9.44448 16.5772 9.02163 17 8.50003 17C7.97843 17 7.55559 16.5772 7.55559 16.0556V9.44444H0.944444C0.422842 9.44444 0 9.02159 0 8.49999C0 7.97839 0.422842 7.55555 0.944444 7.55555H7.55559V0.944444C7.55559 0.422842 7.97843 0 8.50003 0Z" fill="url(#paint0_linear_468_9279)"/>
<defs>
<linearGradient id="paint0_linear_468_9279" x1="7.42379e-08" y1="8.66667" x2="17" y2="8.66667" gradientUnits="userSpaceOnUse">
<stop stop-color="#E12131"/>
<stop offset="1" stop-color="#FEA310"/>
</linearGradient>
</defs>
</svg>
