<svg width="32" height="32" viewBox="0 0 32 32" fill="none" xmlns="http://www.w3.org/2000/svg">
<path d="M13.0001 2C19.0753 2 24.0002 6.92513 24.0002 13.0006C24.0002 15.4974 23.1685 17.7999 21.7669 19.6461L29.5582 27.4467C30.1436 28.0328 30.1431 28.9825 29.5569 29.568C28.9708 30.1534 28.0211 30.1529 27.4356 29.5668L19.6453 21.7678C17.7992 23.1694 15.4968 24.0012 13.0001 24.0012C6.92492 24.0012 2 19.076 2 13.0006C2 6.92513 6.92492 2 13.0001 2ZM13.0001 5C8.5818 5 5 8.58195 5 13.0006C5 17.4192 8.5818 21.0012 13.0001 21.0012C17.4184 21.0012 21.0002 17.4192 21.0002 13.0006C21.0002 8.58195 17.4184 5 13.0001 5Z" fill="url(#paint0_linear_507_2746)"/>
<defs>
<linearGradient id="paint0_linear_507_2746" x1="2" y1="16.2779" x2="29.9969" y2="16.2779" gradientUnits="userSpaceOnUse">
<stop stop-color="#E12131"/>
<stop offset="1" stop-color="#FEA310"/>
</linearGradient>
</defs>
</svg>
