<svg width="25" height="25" viewBox="0 0 25 25" fill="none" xmlns="http://www.w3.org/2000/svg">
<path d="M2.57015 11.7793C2.57015 11.7793 11.0933 8.29204 14.0493 7.06418C15.1824 6.57303 19.0252 5.00129 19.0252 5.00129C19.0252 5.00129 20.7988 4.31379 20.651 5.98358C20.6017 6.67121 20.2075 9.07785 19.8134 11.681C19.2222 15.3647 18.5817 19.392 18.5817 19.392C18.5817 19.392 18.4833 20.5217 17.6458 20.7182C16.8082 20.9147 15.4287 20.0306 15.1824 19.8341C14.9854 19.6867 11.4875 17.4765 10.2066 16.3961C9.86169 16.1014 9.46755 15.512 10.2558 14.8243C12.0294 13.2036 14.1479 11.1898 15.4287 9.91288C16.0199 9.32342 16.6112 7.94816 14.1479 9.61809C10.65 12.0247 7.20127 14.2841 7.20127 14.2841C7.20127 14.2841 6.41312 14.7752 4.93513 14.3332C3.45713 13.8911 1.73278 13.3018 1.73278 13.3018C1.73278 13.3018 0.550493 12.565 2.57041 11.7793H2.57015Z" stroke="white" stroke-width="1.5"/>
</svg>
