<svg width="36" height="36" viewBox="0 0 36 36" fill="none" xmlns="http://www.w3.org/2000/svg">
<path d="M3.70098 16.9622C3.70098 16.9622 15.9744 11.9406 20.231 10.1725C21.8626 9.46521 27.3963 7.2019 27.3963 7.2019C27.3963 7.2019 29.9502 6.21189 29.7374 8.61639C29.6664 9.60658 29.0988 13.0721 28.5312 16.8206C27.68 22.1252 26.7577 27.9246 26.7577 27.9246C26.7577 27.9246 26.6159 29.5513 25.4099 29.8343C24.2037 30.1172 22.2174 28.8441 21.8626 28.5611C21.5789 28.3489 16.5419 25.1663 14.6975 23.6104C14.2008 23.1861 13.6332 22.3373 14.7684 21.3471C17.3223 19.0133 20.3729 16.1134 22.2174 14.2746C23.0686 13.4258 23.92 11.4454 20.3729 13.8501C15.3359 17.3156 10.3698 20.5691 10.3698 20.5691C10.3698 20.5691 9.23486 21.2764 7.10655 20.6398C4.97823 20.0033 2.49517 19.1546 2.49517 19.1546C2.49517 19.1546 0.792671 18.0936 3.70136 16.9622H3.70098Z" stroke="url(#paint0_linear_415_7651)" stroke-width="2"/>
<defs>
<linearGradient id="paint0_linear_415_7651" x1="2" y1="18.6618" x2="29.75" y2="18.6618" gradientUnits="userSpaceOnUse">
<stop stop-color="#E12131"/>
<stop offset="1" stop-color="#FEA310"/>
</linearGradient>
</defs>
</svg>
