<svg width="36" height="36" viewBox="0 0 36 36" fill="none" xmlns="http://www.w3.org/2000/svg">
    <path d="M3.70098 16.9622C3.70098 16.9622 15.9744 11.9406 20.231 10.1725C21.8626 9.46521 27.3963 7.2019 27.3963 7.2019C27.3963 7.2019 29.9502 6.21189 29.7374 8.61639C29.6664 9.60658 29.0988 13.0721 28.5312 16.8206C27.68 22.1252 26.7577 27.9246 26.7577 27.9246C26.7577 27.9246 26.6159 29.5513 25.4099 29.8343C24.2037 30.1172 22.2174 28.8441 21.8626 28.5611C21.5789 28.3489 16.5419 25.1663 14.6975 23.6104C14.2008 23.1861 13.6332 22.3373 14.7684 21.3471C17.3223 19.0133 20.3729 16.1134 22.2174 14.2746C23.0686 13.4258 23.92 11.4454 20.3729 13.8501C15.3359 17.3156 10.3698 20.5691 10.3698 20.5691C10.3698 20.5691 9.23486 21.2764 7.10655 20.6398C4.97823 20.0033 2.49517 19.1546 2.49517 19.1546C2.49517 19.1546 0.792671 18.0936 3.70136 16.9622H3.70098Z" stroke="url(#paint0_linear_989_2814)" stroke-width="4"/>
    <path d="M6.47112 16.7101C6.47112 16.7101 17.0859 12.3196 20.7673 10.7737C22.1785 10.1554 26.9643 8.17652 26.9643 8.17652C26.9643 8.17652 29.1732 7.31095 28.9891 9.41324C28.9276 10.279 28.4368 13.309 27.9459 16.5863C27.2097 21.2242 26.412 26.2947 26.412 26.2947C26.412 26.2947 26.2894 27.717 25.2464 27.9644C24.2032 28.2117 22.4853 27.0986 22.1785 26.8513C21.9331 26.6657 17.5768 23.8831 15.9816 22.5227C15.552 22.1518 15.0612 21.4096 16.0429 20.5439C18.2517 18.5034 20.8901 15.968 22.4853 14.3603C23.2215 13.6182 23.9579 11.8867 20.8901 13.9891C16.5338 17.0191 12.2387 19.8637 12.2387 19.8637C12.2387 19.8637 11.2572 20.4821 9.41647 19.9255C7.57577 19.369 5.42826 18.627 5.42826 18.627C5.42826 18.627 3.95582 17.6993 6.47144 16.7101H6.47112Z" stroke="white" stroke-width="2"/>
    <defs>
        <linearGradient id="paint0_linear_989_2814" x1="2" y1="18.6618" x2="29.75" y2="18.6618" gradientUnits="userSpaceOnUse">
            <stop stop-color="#E12131"/>
            <stop offset="1" stop-color="#FEA310"/>
        </linearGradient>
    </defs>
</svg>
