<svg width="18" height="18" viewBox="0 0 18 18" fill="none" xmlns="http://www.w3.org/2000/svg">
    <path d="M1.98075 8.66158C1.98075 8.66158 9.05728 5.80776 11.5116 4.80292C12.4523 4.40099 15.6429 3.11474 15.6429 3.11474C15.6429 3.11474 17.1154 2.55212 16.9927 3.91861C16.9518 4.48134 16.6245 6.45083 16.2973 8.58113C15.8065 11.5957 15.2747 14.8916 15.2747 14.8916C15.2747 14.8916 15.193 15.816 14.4976 15.9768C13.8021 16.1376 12.6568 15.4141 12.4523 15.2533C12.2887 15.1327 9.38452 13.324 8.32107 12.4398C8.03469 12.1986 7.70744 11.7163 8.36193 11.1535C9.83447 9.82721 11.5934 8.17919 12.6568 7.13418C13.1477 6.6518 13.6386 5.52634 11.5934 6.89294C8.68917 8.86244 5.82582 10.7114 5.82582 10.7114C5.82582 10.7114 5.17145 11.1134 3.94431 10.7516C2.71718 10.3898 1.2855 9.90755 1.2855 9.90755C1.2855 9.90755 0.303883 9.30454 1.98096 8.66158H1.98075Z" stroke="black" stroke-width="1.5"/>
</svg>
