<svg width="46" height="46" viewBox="0 0 46 46" fill="none" xmlns="http://www.w3.org/2000/svg">
<circle cx="23" cy="23" r="23" fill="white"/>
<path fill-rule="evenodd" clip-rule="evenodd" d="M21.587 12C21.6121 12 21.6376 12 21.6634 12H24.3367C24.3625 12 24.3879 12 24.413 12C24.882 11.9998 25.235 11.9997 25.574 12.0581C26.424 12.2047 27.2039 12.622 27.7974 13.248C28.0341 13.4977 28.2297 13.7914 28.4898 14.1818C28.5037 14.2027 28.5178 14.2238 28.5321 14.2453L28.6176 14.3735C28.7465 14.5669 28.7736 14.6054 28.7978 14.6349C28.9657 14.8392 29.2076 14.9686 29.4706 14.995C29.5086 14.9988 29.5556 15 29.7881 15C29.8184 15 29.8482 15 29.8776 15C30.4523 14.9998 30.8586 14.9997 31.2159 15.0573C33.1318 15.366 34.634 16.8682 34.9427 18.7841C35.0003 19.1414 35.0002 19.5477 35 20.1224C35 20.1518 35 20.1816 35 20.2119V24.5C35 25.0523 34.5523 25.5 34 25.5C33.4477 25.5 33 25.0523 33 24.5V20.2119C33 19.5116 32.9968 19.2799 32.9682 19.1023C32.7967 18.0379 31.9621 17.2033 30.8977 17.0318C30.7201 17.0032 30.4884 17 29.7881 17C29.7758 17 29.7637 17 29.7516 17C29.5758 17.0001 29.4218 17.0001 29.271 16.985C28.482 16.9059 27.7563 16.5175 27.2528 15.9048C27.1566 15.7878 27.0712 15.6596 26.9737 15.5133C26.967 15.5033 26.9603 15.4931 26.9535 15.4829L26.868 15.3547C26.5471 14.8734 26.4498 14.7335 26.3459 14.624C26.0492 14.311 25.6593 14.1023 25.2343 14.029C25.0855 14.0034 24.9152 14 24.3367 14H21.6634C21.0849 14 20.9145 14.0034 20.7658 14.029C20.3408 14.1023 19.9509 14.311 19.6541 14.624C19.5503 14.7335 19.4529 14.8734 19.1321 15.3547L19.0466 15.4829C19.0398 15.4931 19.033 15.5033 19.0263 15.5133C18.9289 15.6596 18.8435 15.7878 18.7473 15.9048C18.2438 16.5175 17.5181 16.9059 16.729 16.985C16.5783 17.0001 16.4243 17.0001 16.2484 17C16.2364 17 16.2242 17 16.2119 17C15.5117 17 15.28 17.0032 15.1023 17.0318C14.0379 17.2033 13.2034 18.0379 13.0319 19.1023C13.0032 19.2799 13 19.5116 13 20.2119V24C13 25.4166 13.0008 26.4189 13.0648 27.2025C13.1279 27.9745 13.2473 28.4456 13.436 28.8159C13.8195 29.5686 14.4314 30.1805 15.1841 30.564C15.5544 30.7527 16.0256 30.8721 16.7975 30.9352C17.5811 30.9992 18.5834 31 20 31H24.5C25.0523 31 25.5 31.4477 25.5 32C25.5 32.5523 25.0523 33 24.5 33H19.9562C18.5932 33 17.5092 33 16.6346 32.9285C15.739 32.8554 14.9753 32.7023 14.2761 32.346C13.1471 31.7708 12.2292 30.8529 11.654 29.7239C11.2977 29.0247 11.1446 28.261 11.0715 27.3654C11 26.4908 11 25.4068 11 24.0437V20.2119C11 20.1816 11 20.1518 11 20.1224C10.9999 19.5477 10.9998 19.1414 11.0573 18.7841C11.366 16.8682 12.8682 15.366 14.7842 15.0573C15.1415 14.9997 15.5477 14.9998 16.1224 15C16.1518 15 16.1816 15 16.2119 15C16.4444 15 16.4914 14.9988 16.5294 14.995C16.7925 14.9686 17.0344 14.8392 17.2022 14.6349C17.2265 14.6054 17.2535 14.567 17.3825 14.3735L17.468 14.2453C17.4823 14.2238 17.4964 14.2027 17.5103 14.1818C17.7703 13.7914 17.966 13.4977 18.2027 13.248C18.7961 12.622 19.576 12.2047 20.426 12.0581C20.7651 11.9997 21.118 11.9998 21.587 12ZM23 20C21.3432 20 20 21.3431 20 23C20 24.6568 21.3432 26 23 26C24.6569 26 26 24.6568 26 23C26 21.3431 24.6569 20 23 20ZM18 23C18 20.2385 20.2386 18 23 18C25.7615 18 28 20.2385 28 23C28 25.7614 25.7615 28 23 28C20.2386 28 18 25.7614 18 23ZM31 26C31.5523 26 32 26.4477 32 27V29H34C34.5523 29 35 29.4477 35 30C35 30.5523 34.5523 31 34 31H32V33C32 33.5523 31.5523 34 31 34C30.4477 34 30 33.5523 30 33V31H28C27.4477 31 27 30.5523 27 30C27 29.4477 27.4477 29 28 29H30V27C30 26.4477 30.4477 26 31 26Z" fill="#E12031"/>
</svg>
