<svg width="24" height="26" viewBox="0 0 24 26" fill="none" xmlns="http://www.w3.org/2000/svg">
<path fill-rule="evenodd" clip-rule="evenodd" d="M1.15479 24.1046C0.627582 23.5647 0.627582 22.6892 1.15479 22.1493L20.8831 1.94369C21.4103 1.40373 22.265 1.40373 22.7923 1.94369C23.3195 2.48365 23.3195 3.35911 22.7923 3.89907L3.06398 24.1046C2.53677 24.6446 1.682 24.6446 1.15479 24.1046Z" fill="#E01D31"/>
<path d="M1.15478 1.944C1.68199 1.40403 2.53676 1.40403 3.06397 1.944L22.7922 22.1496C23.3195 22.6895 23.3195 23.565 22.7922 24.1049C22.265 24.6449 21.4103 24.6449 20.8831 24.105L1.15478 3.89938C0.627573 3.35941 0.627573 2.48396 1.15478 1.944Z" fill="#E01D31"/>
</svg>
