<svg width="9" height="9" viewBox="0 0 9 9" fill="none" xmlns="http://www.w3.org/2000/svg">
<circle cx="4.5" cy="4.5" r="4.5" fill="white"/>
<path d="M6.90225 4.8904L6.95955 4.28158C7.00455 3.80343 7.02705 3.56435 6.94525 3.46552C6.901 3.41206 6.84083 3.3793 6.7765 3.37365C6.65758 3.36321 6.50823 3.53322 6.20953 3.87327C6.05505 4.04912 5.97783 4.13705 5.89165 4.15068C5.84393 4.1582 5.79528 4.15045 5.75118 4.12827C5.67163 4.08822 5.61858 3.97953 5.51248 3.76213L4.95328 2.61621C4.7528 2.2054 4.65255 2 4.5 2C4.34745 2 4.2472 2.2054 4.04673 2.61622L3.48752 3.76213C3.38142 3.97953 3.32838 4.08822 3.24881 4.12827C3.20473 4.15045 3.15608 4.1582 3.10834 4.15068C3.02218 4.13705 2.94494 4.04912 2.79047 3.87327C2.49177 3.53322 2.34242 3.36321 2.2235 3.37365C2.15916 3.3793 2.09899 3.41206 2.05475 3.46552C1.97295 3.56435 1.99545 3.80343 2.04045 4.28158L2.09775 4.8904C2.19216 5.89355 2.23937 6.39512 2.53502 6.69755C2.83068 7 3.27379 7 4.16003 7H4.83998C5.7262 7 6.16933 7 6.46498 6.69755C6.76063 6.39512 6.80783 5.89355 6.90225 4.8904Z" stroke="url(#paint0_linear_201_349)" stroke-width="0.5"/>
<defs>
<linearGradient id="paint0_linear_201_349" x1="7.5" y1="5" x2="2" y2="5" gradientUnits="userSpaceOnUse">
<stop stop-color="#FEA510"/>
<stop offset="1" stop-color="#E22231"/>
</linearGradient>
</defs>
</svg>
