<svg width="48" height="48" viewBox="0 0 48 48" fill="none" xmlns="http://www.w3.org/2000/svg">
<path d="M15.243 18.662C17.1221 18.001 18.9792 17.2904 20.8143 16.5304C22.6084 15.7879 24.2099 14.7709 25.619 13.4797C28.2758 10.8944 29.7502 7.46516 30.053 3.74345C30.0553 3.71523 30.0487 3.68728 30.034 3.66376C29.3606 2.56445 28.8037 1.40357 28.2179 0.254455C27.8889 -0.390279 26.8583 0.463632 26.5799 0.801393C26.1297 1.34712 25.6602 1.89587 25.1715 2.44764C24.2476 3.23454 23.4132 3.12138 22.6747 2.16786C22.1305 1.46517 21.6161 0.587692 20.808 0.145795C20.6235 0.0479985 20.4265 -0.000598129 20.2167 5.55537e-06C20.1854 5.55537e-06 20.1574 0.00936244 20.1327 0.0280766C19.0822 0.824947 18.3594 2.66332 17.8866 3.86613L17.8818 3.87837C17.8762 3.89241 17.8674 3.9049 17.8563 3.91481C17.8451 3.92473 17.8319 3.93179 17.8176 3.93542C16.7427 4.21251 15.6064 3.30518 14.7648 2.76458C14.3309 2.45851 13.4405 2.04652 12.9623 2.34896C12.5962 2.58078 12.381 3.70997 12.3123 4.12198C12.1526 5.07399 11.9902 6.01061 11.8251 6.93183C11.818 6.97053 11.7999 7.00643 11.773 7.03531C11.7461 7.06418 11.7115 7.08483 11.6732 7.09483C11.2646 7.19926 10.85 7.20409 10.4293 7.10931C9.82182 6.95356 9.22189 6.79118 8.62947 6.62215C7.95239 6.43018 6.7085 6.20652 6.66421 7.24878C6.60003 8.73384 7.1831 10.1446 7.16592 11.6034C7.16569 11.6318 7.15672 11.6594 7.14023 11.6826C7.12374 11.7057 7.10052 11.7233 7.07371 11.7329C6.03323 12.0979 4.81827 12.1911 3.72897 12.3704C3.05188 12.4818 2.11716 12.6195 2.31604 13.6128C2.60893 15.078 4.22797 16.0586 4.00559 17.7348C4.00148 17.7648 3.98965 17.7932 3.97125 17.8172C3.95286 17.8412 3.92854 17.8599 3.90073 17.8715L3.89363 17.8745C2.98451 18.2522 0.304791 19.3657 0.00455003 20.4432C-0.00361624 20.4729 -0.000722454 20.5045 0.0126863 20.5319C0.389648 21.2917 1.30177 21.9174 1.94089 22.4616C2.67312 23.0855 3.55992 24.0825 2.61616 24.9898C1.84778 25.7287 0.960966 26.4043 0.294729 27.2374C0.0172057 27.5851 -0.112968 27.9364 0.227835 28.2325C0.924807 28.8383 2.09456 29.1897 2.95064 29.5591C3.59699 29.838 4.23068 30.2084 4.06254 30.9491C3.88717 31.726 3.33122 32.4487 2.89369 33.1024C2.5348 33.6403 1.79896 35.0439 2.77979 35.3617C3.98932 35.7538 5.30733 35.6397 6.53584 35.9521C7.36299 36.1631 7.20931 37.0768 7.06016 37.7369C6.91492 38.3799 6.76998 39.0228 6.62534 39.6657C6.29177 41.1471 6.71755 41.3599 8.12957 41.2649C8.51045 41.2389 9.29691 41.1523 10.489 41.005L11.6343 40.9696C11.6663 40.9684 11.691 40.9811 11.7084 41.0077C11.9218 41.3282 11.9869 41.8317 12.0456 42.2084C12.1643 42.9757 12.2951 43.7406 12.438 44.503C12.5121 44.8984 12.6118 45.2045 12.7372 45.4212C13.2235 46.2624 14.8416 45.2039 15.3651 44.8489C15.8487 44.5184 16.768 43.8936 17.3556 43.8945C17.8836 43.8954 18.4657 45.2962 18.7161 45.873C18.9159 46.3838 19.5053 47.7837 20.0504 47.9694C20.9029 48.2591 22.2263 46.4137 22.7443 45.8115C23.133 45.3678 23.8083 44.6407 24.4347 45.0672C25.1362 45.5435 25.7582 46.372 26.3476 47.0258C26.6902 47.407 27.21 47.9015 27.7081 47.9404C28.3201 47.9875 28.7395 47.3101 28.9185 46.7849C29.1903 45.9899 29.4166 45.3581 29.5974 44.8897C29.7848 44.4043 30.0871 44.0675 30.5041 43.8791C31.296 43.823 32.294 44.4976 32.9892 44.935C33.5252 45.2791 34.6046 45.8921 35.1542 45.6521C35.5682 45.471 35.6523 44.848 35.683 44.4414C35.7526 43.4906 35.7716 42.567 35.9524 41.6216C36.2354 40.1384 38.1075 40.8881 38.9907 41.1652C39.5358 41.3717 41.3131 41.8734 41.3501 40.8184C41.3827 39.8685 41.0907 39.0753 40.8529 38.1996C40.7083 37.6672 40.5302 36.5081 41.0898 36.183C41.335 36.0406 41.6686 35.9313 42.0905 35.8552C43.5821 35.6578 44.8079 35.6044 45.597 35.2395C45.6242 35.2268 45.6449 35.2075 45.6594 35.1815C46.04 34.4843 44.5999 32.4849 44.2194 31.8438C43.8252 31.1809 43.5821 30.3777 44.3405 29.8833C45.032 29.4323 45.9252 29.2168 46.7008 28.9388C47.3788 28.6952 48.4238 28.0605 47.8181 27.1912C47.1953 26.2974 45.9207 25.5503 45.1351 24.538C44.5439 23.7773 45.2463 23.062 45.8239 22.6336C46.4522 22.1673 47.4755 21.5289 47.7982 20.8316C48.1915 19.9832 47.8145 19.7459 47.1311 19.3955C46.4429 19.0429 45.7483 18.7034 45.0474 18.3768C44.6126 18.1739 43.7457 17.7918 43.8623 17.1851C43.9256 16.8531 44.1067 16.4534 44.4056 15.9862C44.7654 15.4242 45.1014 14.8485 45.4135 14.2593C45.9044 13.3339 45.8764 12.5316 44.6108 12.3822C43.6905 12.2735 42.7727 12.1691 41.8573 12.0689C40.9117 11.8878 40.7472 11.5382 40.8186 10.6255C40.8819 9.81502 41.3049 8.63331 41.37 7.62093C41.4116 6.97891 41.2471 6.50894 40.5203 6.5352C39.6615 6.56599 38.8244 6.81411 37.7306 7.08305C37.7004 7.0909 37.6802 7.10931 37.67 7.13829L37.3437 8.11988C36.6042 10.3674 35.5529 12.5642 34.0486 14.3535C32.6426 16.0064 30.904 17.1733 28.8326 17.8543C27.9437 18.1718 27.0409 18.4284 26.1243 18.624C26.1114 18.6269 26.0999 18.634 26.0917 18.6442C26.0835 18.6544 26.079 18.6671 26.0791 18.6801V36.0689C26.0791 36.107 26.0598 36.126 26.0212 36.126H22.3068L22.2851 19.4761C22.2851 19.4483 22.2715 19.4377 22.2444 19.4444L19.7295 20.0429C18.1867 20.4329 16.6861 20.9472 15.2277 21.5859C15.1891 21.6028 15.1698 21.5905 15.1698 21.5488L15.196 18.7281C15.1966 18.6955 15.2123 18.6735 15.243 18.662Z" fill="url(#paint0_linear_8_1008)"/>
<rect x="31.7289" y="17.6831" width="2.98315" height="12.2246" fill="white" fill-opacity="0.7"/>
<rect x="27.2994" y="19.7658" width="2.98315" height="12.2246" fill="white" fill-opacity="0.7"/>
<rect x="17.9884" y="21.5769" width="2.98315" height="12.2246" fill="white" fill-opacity="0.7"/>
<rect x="13.6493" y="23.7502" width="2.98315" height="12.2246" fill="white" fill-opacity="0.7"/>
<defs>
<linearGradient id="paint0_linear_8_1008" x1="0" y1="24.233" x2="48" y2="24.233" gradientUnits="userSpaceOnUse">
<stop stop-color="#DD1333"/>
<stop offset="1" stop-color="#FFAC0C"/>
</linearGradient>
</defs>
</svg>
