<svg width="28" height="28" viewBox="0 0 28 28" fill="none" xmlns="http://www.w3.org/2000/svg">
<path d="M11.0001 0C17.0753 0 22.0002 4.92513 22.0002 11.0006C22.0002 13.4974 21.1685 15.7999 19.7669 17.6461L27.5582 25.4467C28.1436 26.0328 28.1431 26.9825 27.5569 27.568C26.9708 28.1534 26.0211 28.1529 25.4356 27.5668L17.6453 19.7678C15.7992 21.1694 13.4968 22.0012 11.0001 22.0012C4.92492 22.0012 0 17.076 0 11.0006C0 4.92513 4.92492 0 11.0001 0ZM11.0001 3C6.5818 3 3 6.58195 3 11.0006C3 15.4192 6.5818 19.0012 11.0001 19.0012C15.4184 19.0012 19.0002 15.4192 19.0002 11.0006C19.0002 6.58195 15.4184 3 11.0001 3Z" fill="url(#paint0_linear_694_2494)"/>
<defs>
<linearGradient id="paint0_linear_694_2494" x1="1.22261e-07" y1="14.2779" x2="27.9969" y2="14.2779" gradientUnits="userSpaceOnUse">
<stop stop-color="#E12131"/>
<stop offset="1" stop-color="#FEA310"/>
</linearGradient>
</defs>
</svg>
