<svg width="57" height="55" viewBox="0 0 57 55" fill="none" xmlns="http://www.w3.org/2000/svg">
    <path fill-rule="evenodd" clip-rule="evenodd" d="M45.024 8.5841C42.874 8.5841 41.131 10.3271 41.131 12.4771C41.131 14.6271 42.874 16.3701 45.024 16.3701C47.1741 16.3701 48.917 14.6271 48.917 12.4771C48.917 10.3271 47.1741 8.5841 45.024 8.5841ZM42.491 12.4771C42.491 11.0782 43.6251 9.9441 45.024 9.9441C46.423 9.9441 47.557 11.0782 47.557 12.4771C47.557 13.876 46.423 15.0101 45.024 15.0101C43.6251 15.0101 42.491 13.876 42.491 12.4771Z" fill="url(#paint0_linear_3_147)"/>
    <path fill-rule="evenodd" clip-rule="evenodd" d="M56.5554 0.882935L56.496 2.33233C56.3838 5.06904 55.666 14.4262 48.3417 22.7138C47.7538 23.3792 47.1546 24.0022 46.5489 24.5856C46.5436 24.8588 46.5346 25.226 46.5191 25.6638C46.4844 26.6422 46.4169 27.9794 46.2854 29.4082C46.1544 30.8322 45.9576 32.3725 45.659 33.7489C45.3703 35.0796 44.9524 36.4296 44.2911 37.3418C43.8834 37.9042 43.2995 38.3144 42.7063 38.6227C42.1021 38.9367 41.4052 39.1874 40.6803 39.3916C39.2312 39.7997 37.5374 40.0582 35.9548 40.2248C34.3637 40.3923 32.8423 40.4711 31.7219 40.5082C31.1606 40.5269 30.6974 40.5351 30.3734 40.5387C30.2113 40.5405 30.0839 40.5411 29.9962 40.5412L29.8952 40.5413L29.8682 40.5412L29.8586 40.5411C29.8584 40.5411 29.8575 40.5411 29.865 39.2911L29.8575 40.5411L28.4105 40.5324L29.6987 32.1177L25.4491 28.1449L25.4275 28.2224L23.9122 26.707L24.0073 26.6087C22.6615 26.3885 21.316 26.1685 19.9703 25.9486L19.8846 25.9345C18.3929 25.6907 16.9012 25.4468 15.4092 25.2027L14.1837 25.0022L14.3761 23.7754L15.611 23.9691C14.3761 23.7754 14.3761 23.7756 14.3761 23.7754L14.3766 23.7722L14.3778 23.765L14.382 23.7388L14.3979 23.641C14.4119 23.5562 14.4326 23.433 14.4599 23.2765C14.5145 22.9636 14.5955 22.5168 14.7021 21.9768C14.9148 20.8988 15.2311 19.4394 15.6442 17.9265C16.055 16.4218 16.5725 14.8231 17.1966 13.4843C17.5088 12.8146 17.862 12.1786 18.2623 11.6421C18.6535 11.1178 19.1425 10.6166 19.7517 10.3083L19.7757 10.2963C19.7956 10.2865 19.817 10.2765 19.8401 10.2664C19.8861 10.2461 19.9392 10.225 20.0005 10.2033C20.1227 10.1601 20.2812 10.1134 20.4876 10.067C20.8985 9.97451 21.5194 9.87826 22.4544 9.81659C24.2998 9.69489 27.4361 9.70383 32.7183 10.1812C33.1625 9.78028 33.6267 9.38746 34.1119 9.00472C38.0826 5.87246 42.3312 4.31174 44.4727 3.52508L44.498 3.51579C48.7135 1.96828 52.4401 1.3263 55.1132 1.03832L56.5554 0.882935ZM30.4332 12.5001C26.4707 12.2026 24.0541 12.2165 22.6189 12.3112C21.776 12.3668 21.2891 12.4491 21.0366 12.506C20.9402 12.5277 20.8812 12.5449 20.8521 12.5542C20.7196 12.6297 20.5178 12.7996 20.2661 13.137C20.0019 13.4911 19.7314 13.9639 19.4625 14.5406C18.9245 15.6947 18.4505 17.1395 18.0559 18.585C17.6635 20.0222 17.3602 21.4196 17.1548 22.4607C17.1213 22.6307 17.0904 22.7909 17.0622 22.9399L24.0155 24.0768C25.0166 20.9586 26.8948 16.5317 30.4332 12.5001ZM24.5611 25.7585L24.5065 26.0924L24.7725 25.8173L24.5611 25.7585ZM32.144 32.6649C34.6656 31.9989 39.3068 30.4403 43.9653 26.8219C43.927 27.5382 43.8728 28.3437 43.7959 29.1791C43.6696 30.5524 43.4843 31.9813 43.2158 33.2188C42.9374 34.5021 42.6032 35.4107 42.267 35.8745C42.1759 36.0001 41.9666 36.1897 41.5535 36.4044C41.1513 36.6134 40.6288 36.8088 40.0026 36.9852C38.7496 37.3381 37.2146 37.5784 35.6931 37.7385C34.18 37.8978 32.7219 37.9737 31.639 38.0096C31.5301 38.0132 31.4251 38.0164 31.3243 38.0193L32.144 32.6649ZM31.3912 30.2777C34.4133 29.4925 40.9807 27.2685 46.4684 21.0584C52.2366 14.5314 53.5684 7.26908 53.899 3.70991C51.5538 4.04625 48.6107 4.66917 45.3601 5.86246C43.2412 6.64083 39.3077 8.09028 35.6602 10.9675C29.9003 15.5112 27.3483 21.6615 26.2111 25.4349L31.3912 30.2777Z" fill="url(#paint1_linear_3_147)"/>
    <path d="M23.6747 32.0355C24.2605 32.6213 24.2605 33.571 23.6747 34.1568L12.7487 45.0828C12.1629 45.6686 11.2132 45.6686 10.6274 45.0828C10.0416 44.497 10.0416 43.5473 10.6274 42.9615L21.5534 32.0355C22.1392 31.4497 23.0889 31.4497 23.6747 32.0355Z" fill="url(#paint2_linear_3_147)"/>
    <path d="M27.0453 44.8996C27.6702 44.2748 27.6703 43.2617 27.0455 42.6368C26.4207 42.0119 25.4076 42.0119 24.7827 42.6367L16.0197 51.3987C15.3948 52.0235 15.3948 53.0366 16.0196 53.6614C16.6444 54.2863 17.6575 54.2864 18.2823 53.6616L27.0453 44.8996Z" fill="url(#paint3_linear_3_147)"/>
    <path d="M12.4774 28.6648C13.1022 29.2896 13.1022 30.3027 12.4774 30.9275L3.7144 39.6905C3.08956 40.3153 2.0765 40.3153 1.45166 39.6905C0.826823 39.0657 0.826823 38.0526 1.45166 37.4278L10.2147 28.6648C10.8395 28.0399 11.8526 28.0399 12.4774 28.6648Z" fill="url(#paint4_linear_3_147)"/>
    <defs>
        <linearGradient id="paint0_linear_3_147" x1="28.7692" y1="0.882935" x2="28.7692" y2="54.1301" gradientUnits="userSpaceOnUse">
            <stop stop-color="#E3172B"/>
            <stop offset="1" stop-color="#E39117"/>
        </linearGradient>
        <linearGradient id="paint1_linear_3_147" x1="28.7692" y1="0.882935" x2="28.7692" y2="54.1301" gradientUnits="userSpaceOnUse">
            <stop stop-color="#E3172B"/>
            <stop offset="1" stop-color="#E39117"/>
        </linearGradient>
        <linearGradient id="paint2_linear_3_147" x1="28.7692" y1="0.882935" x2="28.7692" y2="54.1301" gradientUnits="userSpaceOnUse">
            <stop stop-color="#E3172B"/>
            <stop offset="1" stop-color="#E39117"/>
        </linearGradient>
        <linearGradient id="paint3_linear_3_147" x1="28.7692" y1="0.882935" x2="28.7692" y2="54.1301" gradientUnits="userSpaceOnUse">
            <stop stop-color="#E3172B"/>
            <stop offset="1" stop-color="#E39117"/>
        </linearGradient>
        <linearGradient id="paint4_linear_3_147" x1="28.7692" y1="0.882935" x2="28.7692" y2="54.1301" gradientUnits="userSpaceOnUse">
            <stop stop-color="#E3172B"/>
            <stop offset="1" stop-color="#E39117"/>
        </linearGradient>
    </defs>
</svg>
