<svg width="68" height="68" viewBox="0 0 68 68" fill="none" xmlns="http://www.w3.org/2000/svg">
<path d="M33.23 0.929212C33.6299 0.446617 34.3701 0.446617 34.77 0.929212L37.9594 4.77809C38.2804 5.16555 38.8394 5.25408 39.2645 4.9848L43.4871 2.30987C44.0166 1.97447 44.7205 2.2032 44.9517 2.78575L46.7956 7.43182C46.9813 7.89953 47.4855 8.15646 47.973 8.03172L52.8156 6.79258C53.4228 6.63721 54.0216 7.07228 54.0615 7.69776L54.3794 12.6862C54.4114 13.1884 54.8116 13.5886 55.3138 13.6206L60.3022 13.9385C60.9277 13.9784 61.3628 14.5772 61.2074 15.1844L59.9683 20.027C59.8435 20.5145 60.1005 21.0187 60.5682 21.2044L65.2142 23.0483C65.7968 23.2795 66.0255 23.9834 65.6901 24.5129L63.0152 28.7355C62.7459 29.1606 62.8344 29.7196 63.2219 30.0406L67.0708 33.23C67.5534 33.6299 67.5534 34.3701 67.0708 34.77L63.2219 37.9594C62.8344 38.2804 62.7459 38.8394 63.0152 39.2645L65.6901 43.4871C66.0255 44.0166 65.7968 44.7205 65.2142 44.9517L60.5682 46.7956C60.1005 46.9813 59.8435 47.4855 59.9683 47.973L61.2074 52.8156C61.3628 53.4228 60.9277 54.0216 60.3022 54.0615L55.3138 54.3794C54.8116 54.4114 54.4114 54.8116 54.3794 55.3138L54.0615 60.3022C54.0216 60.9277 53.4228 61.3628 52.8156 61.2074L47.973 59.9683C47.4855 59.8435 46.9813 60.1005 46.7956 60.5682L44.9517 65.2142C44.7205 65.7968 44.0166 66.0255 43.4871 65.6901L39.2645 63.0152C38.8394 62.7459 38.2804 62.8344 37.9594 63.2219L34.77 67.0708C34.3701 67.5534 33.6299 67.5534 33.23 67.0708L30.0406 63.2219C29.7196 62.8344 29.1606 62.7459 28.7355 63.0152L24.5129 65.6901C23.9834 66.0255 23.2795 65.7968 23.0483 65.2142L21.2044 60.5682C21.0187 60.1005 20.5145 59.8435 20.027 59.9683L15.1844 61.2074C14.5772 61.3628 13.9784 60.9277 13.9385 60.3022L13.6206 55.3138C13.5886 54.8116 13.1884 54.4114 12.6862 54.3794L7.69776 54.0615C7.07228 54.0216 6.63721 53.4228 6.79258 52.8156L8.03172 47.973C8.15646 47.4855 7.89953 46.9813 7.43182 46.7956L2.78575 44.9517C2.2032 44.7205 1.97447 44.0166 2.30987 43.4871L4.9848 39.2645C5.25408 38.8394 5.16555 38.2804 4.77809 37.9594L0.929212 34.77C0.446617 34.3701 0.446617 33.6299 0.929212 33.23L4.77809 30.0406C5.16555 29.7196 5.25408 29.1606 4.9848 28.7355L2.30987 24.5129C1.97447 23.9834 2.2032 23.2795 2.78575 23.0483L7.43182 21.2044C7.89953 21.0187 8.15646 20.5145 8.03172 20.027L6.79258 15.1844C6.63721 14.5772 7.07228 13.9784 7.69776 13.9385L12.6862 13.6206C13.1884 13.5886 13.5886 13.1884 13.6206 12.6862L13.9385 7.69776C13.9784 7.07228 14.5772 6.63721 15.1844 6.79258L20.027 8.03172C20.5145 8.15646 21.0187 7.89953 21.2044 7.43182L23.0483 2.78575C23.2795 2.2032 23.9834 1.97447 24.5129 2.30987L28.7355 4.9848C29.1606 5.25408 29.7196 5.16555 30.0406 4.77809L33.23 0.929212Z" fill="url(#paint0_linear_427_7900)"/>
<path d="M33.23 0.929212C33.6299 0.446617 34.3701 0.446617 34.77 0.929212L37.9594 4.77809C38.2804 5.16555 38.8394 5.25408 39.2645 4.9848L43.4871 2.30987C44.0166 1.97447 44.7205 2.2032 44.9517 2.78575L46.7956 7.43182C46.9813 7.89953 47.4855 8.15646 47.973 8.03172L52.8156 6.79258C53.4228 6.63721 54.0216 7.07228 54.0615 7.69776L54.3794 12.6862C54.4114 13.1884 54.8116 13.5886 55.3138 13.6206L60.3022 13.9385C60.9277 13.9784 61.3628 14.5772 61.2074 15.1844L59.9683 20.027C59.8435 20.5145 60.1005 21.0187 60.5682 21.2044L65.2142 23.0483C65.7968 23.2795 66.0255 23.9834 65.6901 24.5129L63.0152 28.7355C62.7459 29.1606 62.8344 29.7196 63.2219 30.0406L67.0708 33.23C67.5534 33.6299 67.5534 34.3701 67.0708 34.77L63.2219 37.9594C62.8344 38.2804 62.7459 38.8394 63.0152 39.2645L65.6901 43.4871C66.0255 44.0166 65.7968 44.7205 65.2142 44.9517L60.5682 46.7956C60.1005 46.9813 59.8435 47.4855 59.9683 47.973L61.2074 52.8156C61.3628 53.4228 60.9277 54.0216 60.3022 54.0615L55.3138 54.3794C54.8116 54.4114 54.4114 54.8116 54.3794 55.3138L54.0615 60.3022C54.0216 60.9277 53.4228 61.3628 52.8156 61.2074L47.973 59.9683C47.4855 59.8435 46.9813 60.1005 46.7956 60.5682L44.9517 65.2142C44.7205 65.7968 44.0166 66.0255 43.4871 65.6901L39.2645 63.0152C38.8394 62.7459 38.2804 62.8344 37.9594 63.2219L34.77 67.0708C34.3701 67.5534 33.6299 67.5534 33.23 67.0708L30.0406 63.2219C29.7196 62.8344 29.1606 62.7459 28.7355 63.0152L24.5129 65.6901C23.9834 66.0255 23.2795 65.7968 23.0483 65.2142L21.2044 60.5682C21.0187 60.1005 20.5145 59.8435 20.027 59.9683L15.1844 61.2074C14.5772 61.3628 13.9784 60.9277 13.9385 60.3022L13.6206 55.3138C13.5886 54.8116 13.1884 54.4114 12.6862 54.3794L7.69776 54.0615C7.07228 54.0216 6.63721 53.4228 6.79258 52.8156L8.03172 47.973C8.15646 47.4855 7.89953 46.9813 7.43182 46.7956L2.78575 44.9517C2.2032 44.7205 1.97447 44.0166 2.30987 43.4871L4.9848 39.2645C5.25408 38.8394 5.16555 38.2804 4.77809 37.9594L0.929212 34.77C0.446617 34.3701 0.446617 33.6299 0.929212 33.23L4.77809 30.0406C5.16555 29.7196 5.25408 29.1606 4.9848 28.7355L2.30987 24.5129C1.97447 23.9834 2.2032 23.2795 2.78575 23.0483L7.43182 21.2044C7.89953 21.0187 8.15646 20.5145 8.03172 20.027L6.79258 15.1844C6.63721 14.5772 7.07228 13.9784 7.69776 13.9385L12.6862 13.6206C13.1884 13.5886 13.5886 13.1884 13.6206 12.6862L13.9385 7.69776C13.9784 7.07228 14.5772 6.63721 15.1844 6.79258L20.027 8.03172C20.5145 8.15646 21.0187 7.89953 21.2044 7.43182L23.0483 2.78575C23.2795 2.2032 23.9834 1.97447 24.5129 2.30987L28.7355 4.9848C29.1606 5.25408 29.7196 5.16555 30.0406 4.77809L33.23 0.929212Z" fill="url(#paint1_linear_427_7900)" style="mix-blend-mode:overlay"/>
<path d="M33.23 0.929212C33.6299 0.446617 34.3701 0.446617 34.77 0.929212L37.9594 4.77809C38.2804 5.16555 38.8394 5.25408 39.2645 4.9848L43.4871 2.30987C44.0166 1.97447 44.7205 2.2032 44.9517 2.78575L46.7956 7.43182C46.9813 7.89953 47.4855 8.15646 47.973 8.03172L52.8156 6.79258C53.4228 6.63721 54.0216 7.07228 54.0615 7.69776L54.3794 12.6862C54.4114 13.1884 54.8116 13.5886 55.3138 13.6206L60.3022 13.9385C60.9277 13.9784 61.3628 14.5772 61.2074 15.1844L59.9683 20.027C59.8435 20.5145 60.1005 21.0187 60.5682 21.2044L65.2142 23.0483C65.7968 23.2795 66.0255 23.9834 65.6901 24.5129L63.0152 28.7355C62.7459 29.1606 62.8344 29.7196 63.2219 30.0406L67.0708 33.23C67.5534 33.6299 67.5534 34.3701 67.0708 34.77L63.2219 37.9594C62.8344 38.2804 62.7459 38.8394 63.0152 39.2645L65.6901 43.4871C66.0255 44.0166 65.7968 44.7205 65.2142 44.9517L60.5682 46.7956C60.1005 46.9813 59.8435 47.4855 59.9683 47.973L61.2074 52.8156C61.3628 53.4228 60.9277 54.0216 60.3022 54.0615L55.3138 54.3794C54.8116 54.4114 54.4114 54.8116 54.3794 55.3138L54.0615 60.3022C54.0216 60.9277 53.4228 61.3628 52.8156 61.2074L47.973 59.9683C47.4855 59.8435 46.9813 60.1005 46.7956 60.5682L44.9517 65.2142C44.7205 65.7968 44.0166 66.0255 43.4871 65.6901L39.2645 63.0152C38.8394 62.7459 38.2804 62.8344 37.9594 63.2219L34.77 67.0708C34.3701 67.5534 33.6299 67.5534 33.23 67.0708L30.0406 63.2219C29.7196 62.8344 29.1606 62.7459 28.7355 63.0152L24.5129 65.6901C23.9834 66.0255 23.2795 65.7968 23.0483 65.2142L21.2044 60.5682C21.0187 60.1005 20.5145 59.8435 20.027 59.9683L15.1844 61.2074C14.5772 61.3628 13.9784 60.9277 13.9385 60.3022L13.6206 55.3138C13.5886 54.8116 13.1884 54.4114 12.6862 54.3794L7.69776 54.0615C7.07228 54.0216 6.63721 53.4228 6.79258 52.8156L8.03172 47.973C8.15646 47.4855 7.89953 46.9813 7.43182 46.7956L2.78575 44.9517C2.2032 44.7205 1.97447 44.0166 2.30987 43.4871L4.9848 39.2645C5.25408 38.8394 5.16555 38.2804 4.77809 37.9594L0.929212 34.77C0.446617 34.3701 0.446617 33.6299 0.929212 33.23L4.77809 30.0406C5.16555 29.7196 5.25408 29.1606 4.9848 28.7355L2.30987 24.5129C1.97447 23.9834 2.2032 23.2795 2.78575 23.0483L7.43182 21.2044C7.89953 21.0187 8.15646 20.5145 8.03172 20.027L6.79258 15.1844C6.63721 14.5772 7.07228 13.9784 7.69776 13.9385L12.6862 13.6206C13.1884 13.5886 13.5886 13.1884 13.6206 12.6862L13.9385 7.69776C13.9784 7.07228 14.5772 6.63721 15.1844 6.79258L20.027 8.03172C20.5145 8.15646 21.0187 7.89953 21.2044 7.43182L23.0483 2.78575C23.2795 2.2032 23.9834 1.97447 24.5129 2.30987L28.7355 4.9848C29.1606 5.25408 29.7196 5.16555 30.0406 4.77809L33.23 0.929212Z" fill="url(#paint2_radial_427_7900)" style="mix-blend-mode:color"/>
<path fill-rule="evenodd" clip-rule="evenodd" d="M27.8125 20.2856C27.5718 20.2856 27.3344 20.3409 27.1185 20.4472L20.7545 23.5803C20.5037 23.6991 20.2818 23.8854 20.1187 24.1318C20.1041 24.1538 20.0901 24.1762 20.0767 24.1989L15.3859 32.0168C15.378 32.0293 15.3702 32.042 15.3626 32.0548C15.2996 32.1609 15.25 32.2729 15.2141 32.3882C15.1774 32.5053 15.1551 32.6249 15.1466 32.7446C15.1341 32.9163 15.1503 33.0858 15.1918 33.2473C15.2338 33.4115 15.3026 33.5703 15.3984 33.7165C15.4626 33.815 15.5384 33.907 15.6252 33.9904L32.8801 51.2453C32.9003 51.2658 32.9211 51.2857 32.9423 51.305C33.2118 51.5507 33.5462 51.6857 33.887 51.7102L33.9246 51.7124L33.9281 51.7126C33.9521 51.7137 33.976 51.7142 34 51.7142C34.0448 51.7142 34.0896 51.7123 34.1343 51.7085C34.4677 51.6801 34.7938 51.5456 35.0577 51.305C35.079 51.2857 35.0997 51.2658 35.1199 51.2453L52.3746 33.9905C52.3822 33.9832 52.3898 33.9758 52.3973 33.9683C52.4992 33.8665 52.5849 33.753 52.6536 33.6314C52.72 33.5142 52.7702 33.3902 52.8041 33.2629C52.8507 33.0894 52.8678 32.9064 52.8516 32.7212C52.8388 32.5721 52.8046 32.4237 52.7481 32.2808C52.72 32.2093 52.6864 32.1394 52.6473 32.0718C52.6183 32.0214 52.5867 31.9731 52.5528 31.9268L47.0731 24.0988C46.9263 23.889 46.7375 23.7261 46.526 23.6134L40.9568 20.4868C40.7219 20.3549 40.457 20.2856 40.1875 20.2856H27.8125ZM45.1898 26.8887L39.863 28.8257L41.7571 33.8767C41.7587 33.8809 41.7603 33.8851 41.7618 33.8894L48.7265 31.9412L45.1898 26.8887ZM38.6075 34.4285L36.8396 29.7142H31.1605L29.3926 34.4285H38.6075ZM26.2383 33.8894C26.2398 33.8852 26.2414 33.8809 26.243 33.8767L28.1148 28.8851L22.1276 26.8893L19.1219 31.8988L26.2383 33.8894ZM25.5563 24.7194L28.1784 23.4285H39.7766L42.03 24.6936L36.866 26.5714H31.1122L25.5563 24.7194ZM29.1268 43.0472L22.0651 35.9855L26.5452 37.2387L29.1268 43.0472ZM34 46.2736L30.1324 37.5714H37.8677L34 46.2736ZM38.8732 43.0472L41.4548 37.2387L45.9349 35.9856L38.8732 43.0472Z" fill="url(#paint3_linear_427_7900)"/>
<path fill-rule="evenodd" clip-rule="evenodd" d="M27.8125 20.2856C27.5718 20.2856 27.3344 20.3409 27.1185 20.4472L20.7545 23.5803C20.5037 23.6991 20.2818 23.8854 20.1187 24.1318C20.1041 24.1538 20.0901 24.1762 20.0767 24.1989L15.3859 32.0168C15.378 32.0293 15.3702 32.042 15.3626 32.0548C15.2996 32.1609 15.25 32.2729 15.2141 32.3882C15.1774 32.5053 15.1551 32.6249 15.1466 32.7446C15.1341 32.9163 15.1503 33.0858 15.1918 33.2473C15.2338 33.4115 15.3026 33.5703 15.3984 33.7165C15.4626 33.815 15.5384 33.907 15.6252 33.9904L32.8801 51.2453C32.9003 51.2658 32.9211 51.2857 32.9423 51.305C33.2118 51.5507 33.5462 51.6857 33.887 51.7102L33.9246 51.7124L33.9281 51.7126C33.9521 51.7137 33.976 51.7142 34 51.7142C34.0448 51.7142 34.0896 51.7123 34.1343 51.7085C34.4677 51.6801 34.7938 51.5456 35.0577 51.305C35.079 51.2857 35.0997 51.2658 35.1199 51.2453L52.3746 33.9905C52.3822 33.9832 52.3898 33.9758 52.3973 33.9683C52.4992 33.8665 52.5849 33.753 52.6536 33.6314C52.72 33.5142 52.7702 33.3902 52.8041 33.2629C52.8507 33.0894 52.8678 32.9064 52.8516 32.7212C52.8388 32.5721 52.8046 32.4237 52.7481 32.2808C52.72 32.2093 52.6864 32.1394 52.6473 32.0718C52.6183 32.0214 52.5867 31.9731 52.5528 31.9268L47.0731 24.0988C46.9263 23.889 46.7375 23.7261 46.526 23.6134L40.9568 20.4868C40.7219 20.3549 40.457 20.2856 40.1875 20.2856H27.8125ZM45.1898 26.8887L39.863 28.8257L41.7571 33.8767C41.7587 33.8809 41.7603 33.8851 41.7618 33.8894L48.7265 31.9412L45.1898 26.8887ZM38.6075 34.4285L36.8396 29.7142H31.1605L29.3926 34.4285H38.6075ZM26.2383 33.8894C26.2398 33.8852 26.2414 33.8809 26.243 33.8767L28.1148 28.8851L22.1276 26.8893L19.1219 31.8988L26.2383 33.8894ZM25.5563 24.7194L28.1784 23.4285H39.7766L42.03 24.6936L36.866 26.5714H31.1122L25.5563 24.7194ZM29.1268 43.0472L22.0651 35.9855L26.5452 37.2387L29.1268 43.0472ZM34 46.2736L30.1324 37.5714H37.8677L34 46.2736ZM38.8732 43.0472L41.4548 37.2387L45.9349 35.9856L38.8732 43.0472Z" fill="url(#paint4_linear_427_7900)" style="mix-blend-mode:overlay"/>
<path fill-rule="evenodd" clip-rule="evenodd" d="M27.8125 20.2856C27.5718 20.2856 27.3344 20.3409 27.1185 20.4472L20.7545 23.5803C20.5037 23.6991 20.2818 23.8854 20.1187 24.1318C20.1041 24.1538 20.0901 24.1762 20.0767 24.1989L15.3859 32.0168C15.378 32.0293 15.3702 32.042 15.3626 32.0548C15.2996 32.1609 15.25 32.2729 15.2141 32.3882C15.1774 32.5053 15.1551 32.6249 15.1466 32.7446C15.1341 32.9163 15.1503 33.0858 15.1918 33.2473C15.2338 33.4115 15.3026 33.5703 15.3984 33.7165C15.4626 33.815 15.5384 33.907 15.6252 33.9904L32.8801 51.2453C32.9003 51.2658 32.9211 51.2857 32.9423 51.305C33.2118 51.5507 33.5462 51.6857 33.887 51.7102L33.9246 51.7124L33.9281 51.7126C33.9521 51.7137 33.976 51.7142 34 51.7142C34.0448 51.7142 34.0896 51.7123 34.1343 51.7085C34.4677 51.6801 34.7938 51.5456 35.0577 51.305C35.079 51.2857 35.0997 51.2658 35.1199 51.2453L52.3746 33.9905C52.3822 33.9832 52.3898 33.9758 52.3973 33.9683C52.4992 33.8665 52.5849 33.753 52.6536 33.6314C52.72 33.5142 52.7702 33.3902 52.8041 33.2629C52.8507 33.0894 52.8678 32.9064 52.8516 32.7212C52.8388 32.5721 52.8046 32.4237 52.7481 32.2808C52.72 32.2093 52.6864 32.1394 52.6473 32.0718C52.6183 32.0214 52.5867 31.9731 52.5528 31.9268L47.0731 24.0988C46.9263 23.889 46.7375 23.7261 46.526 23.6134L40.9568 20.4868C40.7219 20.3549 40.457 20.2856 40.1875 20.2856H27.8125ZM45.1898 26.8887L39.863 28.8257L41.7571 33.8767C41.7587 33.8809 41.7603 33.8851 41.7618 33.8894L48.7265 31.9412L45.1898 26.8887ZM38.6075 34.4285L36.8396 29.7142H31.1605L29.3926 34.4285H38.6075ZM26.2383 33.8894C26.2398 33.8852 26.2414 33.8809 26.243 33.8767L28.1148 28.8851L22.1276 26.8893L19.1219 31.8988L26.2383 33.8894ZM25.5563 24.7194L28.1784 23.4285H39.7766L42.03 24.6936L36.866 26.5714H31.1122L25.5563 24.7194ZM29.1268 43.0472L22.0651 35.9855L26.5452 37.2387L29.1268 43.0472ZM34 46.2736L30.1324 37.5714H37.8677L34 46.2736ZM38.8732 43.0472L41.4548 37.2387L45.9349 35.9856L38.8732 43.0472Z" fill="white" style="mix-blend-mode:color"/>
<defs>
<linearGradient id="paint0_linear_427_7900" x1="3.77016" y1="42.5298" x2="67.1888" y2="27.6738" gradientUnits="userSpaceOnUse">
<stop stop-color="#576265"/>
<stop offset="0.172016" stop-color="#9EA1A1"/>
<stop offset="0.45741" stop-color="#848B8A"/>
<stop offset="0.553567" stop-color="#576265"/>
<stop offset="0.823421" stop-color="#576265"/>
<stop offset="0.925155" stop-color="#757A7B"/>
<stop offset="1" stop-color="#576265"/>
</linearGradient>
<linearGradient id="paint1_linear_427_7900" x1="27.1452" y1="34" x2="13.5821" y2="-1.39578" gradientUnits="userSpaceOnUse">
<stop stop-color="white" stop-opacity="0"/>
<stop offset="1" stop-color="white"/>
</linearGradient>
<radialGradient id="paint2_radial_427_7900" cx="0" cy="0" r="1" gradientUnits="userSpaceOnUse" gradientTransform="translate(34 34) rotate(90) scale(34)">
<stop offset="0.298277" stop-color="#6A6A6A"/>
<stop offset="1" stop-color="#C5C5C5" stop-opacity="0"/>
</radialGradient>
<linearGradient id="paint3_linear_427_7900" x1="17.2335" y1="39.9423" x2="51.6204" y2="30.2758" gradientUnits="userSpaceOnUse">
<stop stop-color="#535556"/>
<stop offset="0.172016" stop-color="white"/>
<stop offset="0.34375" stop-color="#848B8A"/>
<stop offset="0.553567" stop-color="white"/>
<stop offset="0.823421" stop-color="#8F9799"/>
<stop offset="0.925155" stop-color="#757A7B"/>
<stop offset="1" stop-color="#CACACA"/>
</linearGradient>
<linearGradient id="paint4_linear_427_7900" x1="30.1981" y1="35.9999" x2="24.7617" y2="18.9744" gradientUnits="userSpaceOnUse">
<stop stop-color="white" stop-opacity="0"/>
<stop offset="1" stop-color="white"/>
</linearGradient>
</defs>
</svg>
