<svg width="68" height="68" viewBox="0 0 68 68" fill="none" xmlns="http://www.w3.org/2000/svg">
<path d="M33.23 0.929212C33.6299 0.446617 34.3701 0.446617 34.77 0.929212L37.9594 4.77809C38.2804 5.16555 38.8394 5.25408 39.2645 4.9848L43.4871 2.30987C44.0166 1.97447 44.7205 2.2032 44.9517 2.78575L46.7956 7.43182C46.9813 7.89953 47.4855 8.15646 47.973 8.03172L52.8156 6.79258C53.4228 6.63721 54.0216 7.07228 54.0615 7.69776L54.3794 12.6862C54.4114 13.1884 54.8116 13.5886 55.3138 13.6206L60.3022 13.9385C60.9277 13.9784 61.3628 14.5772 61.2074 15.1844L59.9683 20.027C59.8435 20.5145 60.1005 21.0187 60.5682 21.2044L65.2142 23.0483C65.7968 23.2795 66.0255 23.9834 65.6901 24.5129L63.0152 28.7355C62.7459 29.1606 62.8344 29.7196 63.2219 30.0406L67.0708 33.23C67.5534 33.6299 67.5534 34.3701 67.0708 34.77L63.2219 37.9594C62.8344 38.2804 62.7459 38.8394 63.0152 39.2645L65.6901 43.4871C66.0255 44.0166 65.7968 44.7205 65.2142 44.9517L60.5682 46.7956C60.1005 46.9813 59.8435 47.4855 59.9683 47.973L61.2074 52.8156C61.3628 53.4228 60.9277 54.0216 60.3022 54.0615L55.3138 54.3794C54.8116 54.4114 54.4114 54.8116 54.3794 55.3138L54.0615 60.3022C54.0216 60.9277 53.4228 61.3628 52.8156 61.2074L47.973 59.9683C47.4855 59.8435 46.9813 60.1005 46.7956 60.5682L44.9517 65.2142C44.7205 65.7968 44.0166 66.0255 43.4871 65.6901L39.2645 63.0152C38.8394 62.7459 38.2804 62.8344 37.9594 63.2219L34.77 67.0708C34.3701 67.5534 33.6299 67.5534 33.23 67.0708L30.0406 63.2219C29.7196 62.8344 29.1606 62.7459 28.7355 63.0152L24.5129 65.6901C23.9834 66.0255 23.2795 65.7968 23.0483 65.2142L21.2044 60.5682C21.0187 60.1005 20.5145 59.8435 20.027 59.9683L15.1844 61.2074C14.5772 61.3628 13.9784 60.9277 13.9385 60.3022L13.6206 55.3138C13.5886 54.8116 13.1884 54.4114 12.6862 54.3794L7.69776 54.0615C7.07228 54.0216 6.63721 53.4228 6.79258 52.8156L8.03172 47.973C8.15646 47.4855 7.89953 46.9813 7.43182 46.7956L2.78575 44.9517C2.2032 44.7205 1.97447 44.0166 2.30987 43.4871L4.9848 39.2645C5.25408 38.8394 5.16555 38.2804 4.77809 37.9594L0.929212 34.77C0.446617 34.3701 0.446617 33.6299 0.929212 33.23L4.77809 30.0406C5.16555 29.7196 5.25408 29.1606 4.9848 28.7355L2.30987 24.5129C1.97447 23.9834 2.2032 23.2795 2.78575 23.0483L7.43182 21.2044C7.89953 21.0187 8.15646 20.5145 8.03172 20.027L6.79258 15.1844C6.63721 14.5772 7.07228 13.9784 7.69776 13.9385L12.6862 13.6206C13.1884 13.5886 13.5886 13.1884 13.6206 12.6862L13.9385 7.69776C13.9784 7.07228 14.5772 6.63721 15.1844 6.79258L20.027 8.03172C20.5145 8.15646 21.0187 7.89953 21.2044 7.43182L23.0483 2.78575C23.2795 2.2032 23.9834 1.97447 24.5129 2.30987L28.7355 4.9848C29.1606 5.25408 29.7196 5.16555 30.0406 4.77809L33.23 0.929212Z" fill="url(#paint0_radial_427_7901)"/>
<path d="M33.5645 15.3003C34.6759 15.5503 35.3741 16.654 35.124 17.7658C35.0086 18.2781 34.8508 18.7043 34.6204 19.0601C31.3796 24.0644 31.9008 27.3654 34.0629 27.6852C36.1767 27.9978 37.3583 26.6463 37.0177 23.5C36.9378 22.7613 36.8709 22.1387 36.8171 21.6318C36.7678 21.1669 36.8815 20.6992 37.1388 20.3088C37.752 19.3785 39.0032 19.1214 39.9334 19.7344C41.0514 20.4712 42.3038 21.7254 43.7346 23.5099C47.7987 28.5788 49.0548 33.0104 48.998 37.5485C48.892 46.0029 42.5886 52 33.999 52C25.3732 52 19 45.9671 19 37.5209C19.0439 30.0512 23.1109 21.9357 30.7169 16.5083C31.0115 16.2981 31.4007 16.0136 31.8832 15.6558C32.3652 15.2984 32.979 15.1686 33.5645 15.3003ZM30.4463 20.5329C24.9402 25.2953 22.0343 31.6917 22 37.5297C22 44.2723 26.9944 49 33.999 49C40.9708 49 45.9131 44.2979 45.9982 37.5109C46.047 33.62 44.9815 29.8609 41.394 25.3865C40.917 24.7916 40.4691 24.2705 40.0527 23.8238C40.2971 28.4259 37.6325 31.2458 33.6239 30.6529C29.564 30.0524 28.2505 25.775 30.4463 20.5329Z" fill="url(#paint1_linear_427_7901)"/>
<defs>
<radialGradient id="paint0_radial_427_7901" cx="0" cy="0" r="1" gradientUnits="userSpaceOnUse" gradientTransform="translate(34 34) rotate(90) scale(34)">
<stop stop-color="#FF4D00"/>
<stop offset="0.442708" stop-color="#FF6B00"/>
<stop offset="1" stop-color="#FFA800"/>
</radialGradient>
<linearGradient id="paint1_linear_427_7901" x1="49" y1="23" x2="19" y2="47" gradientUnits="userSpaceOnUse">
<stop stop-color="#FF7B01"/>
<stop offset="0.134385" stop-color="#FFD38A"/>
<stop offset="0.306495" stop-color="#FF8A3C"/>
<stop offset="0.422985" stop-color="#FFD38A"/>
<stop offset="0.615035" stop-color="#FF9901"/>
<stop offset="0.764057" stop-color="#FFB801"/>
<stop offset="0.864805" stop-color="#FF8A3C"/>
<stop offset="1" stop-color="#FFD38A"/>
</linearGradient>
</defs>
</svg>
