<svg width="69" height="69" viewBox="0 0 69 69" fill="none" xmlns="http://www.w3.org/2000/svg">
    <path d="M33.5375 1.16151C34.0374 0.558271 34.9626 0.558272 35.4625 1.16152L38.3854 4.68889C38.7868 5.17322 39.4855 5.28388 40.0169 4.94728L43.8868 2.49579C44.5486 2.07654 45.4285 2.36245 45.7175 3.09064L47.4074 7.34862C47.6395 7.93326 48.2698 8.25442 48.8791 8.0985L53.3172 6.96286C54.0762 6.76865 54.8247 7.31248 54.8745 8.09434L55.1659 12.6661C55.2059 13.2938 55.7062 13.7941 56.3339 13.8341L60.9057 14.1255C61.6875 14.1753 62.2314 14.9238 62.0371 15.6828L60.9015 20.1209C60.7456 20.7302 61.0667 21.3605 61.6514 21.5926L65.9094 23.2825C66.6375 23.5715 66.9235 24.4514 66.5042 25.1132L64.0527 28.9831C63.7161 29.5145 63.8268 30.2132 64.3111 30.6146L67.8385 33.5375C68.4417 34.0374 68.4417 34.9626 67.8385 35.4625L64.3111 38.3854C63.8268 38.7868 63.7161 39.4855 64.0527 40.0169L66.5042 43.8868C66.9235 44.5486 66.6375 45.4285 65.9094 45.7175L61.6514 47.4074C61.0667 47.6395 60.7456 48.2698 60.9015 48.8791L62.0371 53.3172C62.2314 54.0762 61.6875 54.8247 60.9057 54.8745L56.3339 55.1659C55.7062 55.2059 55.2059 55.7062 55.1659 56.3339L54.8745 60.9057C54.8247 61.6875 54.0762 62.2314 53.3172 62.0371L48.8791 60.9015C48.2698 60.7456 47.6395 61.0667 47.4074 61.6514L45.7175 65.9094C45.4285 66.6375 44.5486 66.9235 43.8868 66.5042L40.0169 64.0527C39.4855 63.7161 38.7868 63.8268 38.3854 64.3111L35.4625 67.8385C34.9626 68.4417 34.0374 68.4417 33.5375 67.8385L30.6146 64.3111C30.2132 63.8268 29.5145 63.7161 28.9831 64.0527L25.1132 66.5042C24.4514 66.9235 23.5715 66.6375 23.2825 65.9094L21.5926 61.6514C21.3605 61.0667 20.7302 60.7456 20.1209 60.9015L15.6828 62.0371C14.9238 62.2314 14.1753 61.6875 14.1255 60.9057L13.8341 56.3339C13.7941 55.7062 13.2938 55.2059 12.6661 55.1659L8.09434 54.8745C7.31248 54.8247 6.76865 54.0762 6.96286 53.3172L8.0985 48.8791C8.25442 48.2698 7.93326 47.6395 7.34862 47.4074L3.09064 45.7175C2.36245 45.4285 2.07654 44.5486 2.49579 43.8868L4.94728 40.0169C5.28388 39.4855 5.17322 38.7868 4.68889 38.3854L1.16151 35.4625C0.558271 34.9626 0.558272 34.0374 1.16152 33.5375L4.68889 30.6146C5.17322 30.2132 5.28388 29.5145 4.94728 28.9831L2.49579 25.1132C2.07654 24.4514 2.36245 23.5715 3.09064 23.2825L7.34862 21.5926C7.93326 21.3605 8.25442 20.7302 8.0985 20.1209L6.96286 15.6828C6.76865 14.9238 7.31248 14.1753 8.09434 14.1255L12.6661 13.8341C13.2938 13.7941 13.7941 13.2938 13.8341 12.6661L14.1255 8.09434C14.1753 7.31248 14.9238 6.76865 15.6828 6.96286L20.1209 8.0985C20.7302 8.25442 21.3605 7.93326 21.5926 7.34862L23.2825 3.09064C23.5715 2.36245 24.4514 2.07654 25.1132 2.49579L28.9831 4.94728C29.5145 5.28388 30.2132 5.17322 30.6146 4.68889L33.5375 1.16151Z" fill="url(#paint0_linear_8_13)"/>
    <path d="M34.5 33.3704C33.4144 33.3707 32.3651 33.7519 31.544 34.4444C30.7229 35.1368 30.1848 36.0941 30.0281 37.1414C29.8713 38.1888 30.1064 39.2561 30.6903 40.1484C31.2743 41.0406 32.168 41.6983 33.2083 42.001V44.7037C33.2083 45.0377 33.3444 45.358 33.5867 45.5941C33.8289 45.8303 34.1574 45.963 34.5 45.963C34.8426 45.963 35.1711 45.8303 35.4133 45.5941C35.6556 45.358 35.7917 45.0377 35.7917 44.7037V42.001C36.8319 41.6983 37.7257 41.0406 38.3097 40.1484C38.8936 39.2561 39.1287 38.1888 38.9719 37.1414C38.8152 36.0941 38.2771 35.1368 37.456 34.4444C36.6349 33.7519 35.5856 33.3707 34.5 33.3704ZM34.5 39.6667C34.1168 39.6667 33.7422 39.5559 33.4236 39.3483C33.105 39.1408 32.8566 38.8458 32.71 38.5006C32.5633 38.1555 32.525 37.7757 32.5997 37.4093C32.6745 37.0429 32.859 36.7063 33.13 36.4421C33.4009 36.178 33.7462 35.9981 34.122 35.9252C34.4978 35.8523 34.8874 35.8897 35.2414 36.0327C35.5955 36.1756 35.8981 36.4177 36.111 36.7284C36.3239 37.039 36.4375 37.4042 36.4375 37.7778C36.4375 38.2787 36.2334 38.7592 35.87 39.1134C35.5067 39.4677 35.0139 39.6667 34.5 39.6667ZM47.4167 28.3333H42.25V24.5556C42.25 22.5517 41.4335 20.6299 39.9801 19.213C38.5267 17.796 36.5554 17 34.5 17C32.4446 17 30.4733 17.796 29.0199 19.213C27.5665 20.6299 26.75 22.5517 26.75 24.5556V28.3333H21.5833C20.8982 28.3333 20.2411 28.5987 19.7566 29.071C19.2722 29.5433 19 30.1839 19 30.8519V48.4815C19 49.1494 19.2722 49.79 19.7566 50.2623C20.2411 50.7347 20.8982 51 21.5833 51H47.4167C48.1018 51 48.7589 50.7347 49.2434 50.2623C49.7278 49.79 50 49.1494 50 48.4815V30.8519C50 30.1839 49.7278 29.5433 49.2434 29.071C48.7589 28.5987 48.1018 28.3333 47.4167 28.3333ZM29.3333 24.5556C29.3333 23.2197 29.8777 21.9385 30.8466 20.9938C31.8156 20.0492 33.1297 19.5185 34.5 19.5185C35.8703 19.5185 37.1844 20.0492 38.1534 20.9938C39.1223 21.9385 39.6667 23.2197 39.6667 24.5556V28.3333H29.3333V24.5556ZM47.4167 48.4815H21.5833V30.8519H47.4167V48.4815Z" fill="url(#paint1_linear_8_13)"/>
    <defs>
        <linearGradient id="paint0_linear_8_13" x1="-23.5412" y1="-17.0471" x2="74.2765" y2="59.6647" gradientUnits="userSpaceOnUse">
            <stop offset="0.349872" stop-color="#1E3F4D"/>
            <stop offset="0.45022" stop-color="#477087"/>
            <stop offset="0.636705" stop-color="#6698A8"/>
            <stop offset="0.782368" stop-color="#396674"/>
            <stop offset="0.890904" stop-color="#2D6374"/>
        </linearGradient>
        <linearGradient id="paint1_linear_8_13" x1="19" y1="26.4913" x2="56.496" y2="51.8445" gradientUnits="userSpaceOnUse">
            <stop offset="0.0895796" stop-color="#5785A6"/>
            <stop offset="0.254079" stop-color="#7DB1B8" stop-opacity="0.920918"/>
            <stop offset="0.428474" stop-color="#B1D4DC" stop-opacity="0.864583"/>
            <stop offset="0.616454" stop-color="#8AB2BB"/>
            <stop offset="0.773975" stop-color="#68A4BD"/>
            <stop offset="0.996976" stop-color="#4B6780"/>
        </linearGradient>
    </defs>
</svg>
