<svg width="68" height="68" viewBox="0 0 68 68" fill="none" xmlns="http://www.w3.org/2000/svg">
<path d="M33.23 0.929212C33.6299 0.446617 34.3701 0.446617 34.77 0.929212L37.9594 4.77809C38.2804 5.16555 38.8394 5.25408 39.2645 4.9848L43.4871 2.30987C44.0166 1.97447 44.7205 2.2032 44.9517 2.78575L46.7956 7.43182C46.9813 7.89953 47.4855 8.15646 47.973 8.03172L52.8156 6.79258C53.4228 6.63721 54.0216 7.07228 54.0615 7.69776L54.3794 12.6862C54.4114 13.1884 54.8116 13.5886 55.3138 13.6206L60.3022 13.9385C60.9277 13.9784 61.3628 14.5772 61.2074 15.1844L59.9683 20.027C59.8435 20.5145 60.1005 21.0187 60.5682 21.2044L65.2142 23.0483C65.7968 23.2795 66.0255 23.9834 65.6901 24.5129L63.0152 28.7355C62.7459 29.1606 62.8344 29.7196 63.2219 30.0406L67.0708 33.23C67.5534 33.6299 67.5534 34.3701 67.0708 34.77L63.2219 37.9594C62.8344 38.2804 62.7459 38.8394 63.0152 39.2645L65.6901 43.4871C66.0255 44.0166 65.7968 44.7205 65.2142 44.9517L60.5682 46.7956C60.1005 46.9813 59.8435 47.4855 59.9683 47.973L61.2074 52.8156C61.3628 53.4228 60.9277 54.0216 60.3022 54.0615L55.3138 54.3794C54.8116 54.4114 54.4114 54.8116 54.3794 55.3138L54.0615 60.3022C54.0216 60.9277 53.4228 61.3628 52.8156 61.2074L47.973 59.9683C47.4855 59.8435 46.9813 60.1005 46.7956 60.5682L44.9517 65.2142C44.7205 65.7968 44.0166 66.0255 43.4871 65.6901L39.2645 63.0152C38.8394 62.7459 38.2804 62.8344 37.9594 63.2219L34.77 67.0708C34.3701 67.5534 33.6299 67.5534 33.23 67.0708L30.0406 63.2219C29.7196 62.8344 29.1606 62.7459 28.7355 63.0152L24.5129 65.6901C23.9834 66.0255 23.2795 65.7968 23.0483 65.2142L21.2044 60.5682C21.0187 60.1005 20.5145 59.8435 20.027 59.9683L15.1844 61.2074C14.5772 61.3628 13.9784 60.9277 13.9385 60.3022L13.6206 55.3138C13.5886 54.8116 13.1884 54.4114 12.6862 54.3794L7.69776 54.0615C7.07228 54.0216 6.63721 53.4228 6.79258 52.8156L8.03172 47.973C8.15646 47.4855 7.89953 46.9813 7.43182 46.7956L2.78575 44.9517C2.2032 44.7205 1.97447 44.0166 2.30987 43.4871L4.9848 39.2645C5.25408 38.8394 5.16555 38.2804 4.77809 37.9594L0.929212 34.77C0.446617 34.3701 0.446617 33.6299 0.929212 33.23L4.77809 30.0406C5.16555 29.7196 5.25408 29.1606 4.9848 28.7355L2.30987 24.5129C1.97447 23.9834 2.2032 23.2795 2.78575 23.0483L7.43182 21.2044C7.89953 21.0187 8.15646 20.5145 8.03172 20.027L6.79258 15.1844C6.63721 14.5772 7.07228 13.9784 7.69776 13.9385L12.6862 13.6206C13.1884 13.5886 13.5886 13.1884 13.6206 12.6862L13.9385 7.69776C13.9784 7.07228 14.5772 6.63721 15.1844 6.79258L20.027 8.03172C20.5145 8.15646 21.0187 7.89953 21.2044 7.43182L23.0483 2.78575C23.2795 2.2032 23.9834 1.97447 24.5129 2.30987L28.7355 4.9848C29.1606 5.25408 29.7196 5.16555 30.0406 4.77809L33.23 0.929212Z" fill="url(#paint0_radial_427_7902)"/>
<path fill-rule="evenodd" clip-rule="evenodd" d="M33.5149 23.3588C32.6141 25.5903 31.3791 28.0102 29.6947 29.6947C28.0102 31.3791 25.5902 32.6141 23.3587 33.515C25.5902 34.4158 28.0102 35.6508 29.6947 37.3353C31.3782 39.0189 32.6136 41.434 33.5149 43.6611C34.4163 41.434 35.6516 39.0189 37.3352 37.3353C39.0188 35.6517 41.4339 34.4163 43.661 33.515C41.4339 32.6136 39.0188 31.3783 37.3352 29.6947C35.6507 28.0102 34.4157 25.5903 33.5149 23.3588ZM31.9152 18.6264C30.9221 21.9144 29.4622 25.5852 27.5237 27.5237C25.5852 29.4623 21.9143 30.9221 18.6263 31.9153C18.3084 32.0113 17.9941 32.1029 17.6853 32.1902C17.0958 32.3569 16.5262 32.5077 15.99 32.6427C15.8535 32.6771 15.7191 32.7105 15.5871 32.7428C14.8991 32.9113 14.8991 34.1186 15.5871 34.2871C15.7191 34.3195 15.8535 34.3528 15.99 34.3872C16.5262 34.5222 17.0958 34.673 17.6853 34.8397C17.9941 34.927 18.3084 35.0186 18.6263 35.1147C21.9143 36.1078 25.5852 37.5677 27.5237 39.5062C29.462 41.4445 30.9217 45.1043 31.9148 48.3813C32.0104 48.6968 32.1017 49.0087 32.1887 49.3152C32.3558 49.9042 32.507 50.4731 32.6423 51.0087C32.6769 51.1456 32.7105 51.2805 32.7431 51.4129C32.912 52.1003 34.1178 52.1003 34.2868 51.4129C34.3193 51.2805 34.3529 51.1456 34.3875 51.0087C34.5228 50.4731 34.674 49.9042 34.8411 49.3152C34.9281 49.0087 35.0194 48.6968 35.115 48.3813C36.1081 45.1043 37.5679 41.4445 39.5061 39.5062C41.4444 37.5679 45.1042 36.1082 48.3812 35.1151C48.6966 35.0195 49.0086 34.9282 49.3151 34.8412C49.904 34.6741 50.4729 34.5229 51.0085 34.3876C51.1455 34.3529 51.2803 34.3194 51.4127 34.2868C52.1001 34.1178 52.1001 32.9121 51.4127 32.7431C51.2803 32.7106 51.1455 32.677 51.0085 32.6424C50.4729 32.507 49.904 32.3558 49.3151 32.1887C49.0086 32.1018 48.6966 32.0105 48.3812 31.9149C45.1042 30.9217 41.4444 29.462 39.5061 27.5237C37.5676 25.5852 36.1077 21.9144 35.1146 18.6264C35.0186 18.3086 34.9269 17.9943 34.8396 17.6855C34.673 17.0959 34.5222 16.5264 34.3871 15.9901C34.3528 15.8536 34.3194 15.7193 34.2871 15.5873C34.1185 14.8993 32.9113 14.8993 32.7427 15.5873C32.7104 15.7193 32.6771 15.8536 32.6427 15.9901C32.5077 16.5264 32.3568 17.0959 32.1902 17.6855C32.1029 17.9943 32.0112 18.3086 31.9152 18.6264Z" fill="url(#paint1_linear_427_7902)"/>
<defs>
<radialGradient id="paint0_radial_427_7902" cx="0" cy="0" r="1" gradientUnits="userSpaceOnUse" gradientTransform="translate(34 34) rotate(90) scale(34)">
<stop offset="0.398261" stop-color="#94161E"/>
<stop offset="0.605359" stop-color="#AB1F28"/>
<stop offset="1" stop-color="#FF0921"/>
</radialGradient>
<linearGradient id="paint1_linear_427_7902" x1="44.5" y1="20.5002" x2="21" y2="44.0002" gradientUnits="userSpaceOnUse">
<stop offset="0.0845614" stop-color="#FF2626"/>
<stop offset="0.296935" stop-color="#DB0000"/>
<stop offset="0.429669" stop-color="#FFA1A1"/>
<stop offset="0.571916" stop-color="#FF0101"/>
<stop offset="0.757079" stop-color="#FF0000"/>
<stop offset="1" stop-color="white"/>
</linearGradient>
</defs>
</svg>
