<svg width="68" height="68" viewBox="0 0 68 68" fill="none" xmlns="http://www.w3.org/2000/svg">
<path d="M33.23 0.929212C33.6299 0.446617 34.3701 0.446617 34.77 0.929212L37.9594 4.77809C38.2804 5.16555 38.8394 5.25408 39.2645 4.9848L43.4871 2.30987C44.0166 1.97447 44.7205 2.2032 44.9517 2.78575L46.7956 7.43182C46.9813 7.89953 47.4855 8.15646 47.973 8.03172L52.8156 6.79258C53.4228 6.63721 54.0216 7.07228 54.0615 7.69776L54.3794 12.6862C54.4114 13.1884 54.8116 13.5886 55.3138 13.6206L60.3022 13.9385C60.9277 13.9784 61.3628 14.5772 61.2074 15.1844L59.9683 20.027C59.8435 20.5145 60.1005 21.0187 60.5682 21.2044L65.2142 23.0483C65.7968 23.2795 66.0255 23.9834 65.6901 24.5129L63.0152 28.7355C62.7459 29.1606 62.8344 29.7196 63.2219 30.0406L67.0708 33.23C67.5534 33.6299 67.5534 34.3701 67.0708 34.77L63.2219 37.9594C62.8344 38.2804 62.7459 38.8394 63.0152 39.2645L65.6901 43.4871C66.0255 44.0166 65.7968 44.7205 65.2142 44.9517L60.5682 46.7956C60.1005 46.9813 59.8435 47.4855 59.9683 47.973L61.2074 52.8156C61.3628 53.4228 60.9277 54.0216 60.3022 54.0615L55.3138 54.3794C54.8116 54.4114 54.4114 54.8116 54.3794 55.3138L54.0615 60.3022C54.0216 60.9277 53.4228 61.3628 52.8156 61.2074L47.973 59.9683C47.4855 59.8435 46.9813 60.1005 46.7956 60.5682L44.9517 65.2142C44.7205 65.7968 44.0166 66.0255 43.4871 65.6901L39.2645 63.0152C38.8394 62.7459 38.2804 62.8344 37.9594 63.2219L34.77 67.0708C34.3701 67.5534 33.6299 67.5534 33.23 67.0708L30.0406 63.2219C29.7196 62.8344 29.1606 62.7459 28.7355 63.0152L24.5129 65.6901C23.9834 66.0255 23.2795 65.7968 23.0483 65.2142L21.2044 60.5682C21.0187 60.1005 20.5145 59.8435 20.027 59.9683L15.1844 61.2074C14.5772 61.3628 13.9784 60.9277 13.9385 60.3022L13.6206 55.3138C13.5886 54.8116 13.1884 54.4114 12.6862 54.3794L7.69776 54.0615C7.07228 54.0216 6.63721 53.4228 6.79258 52.8156L8.03172 47.973C8.15646 47.4855 7.89953 46.9813 7.43182 46.7956L2.78575 44.9517C2.2032 44.7205 1.97447 44.0166 2.30987 43.4871L4.9848 39.2645C5.25408 38.8394 5.16555 38.2804 4.77809 37.9594L0.929212 34.77C0.446617 34.3701 0.446617 33.6299 0.929212 33.23L4.77809 30.0406C5.16555 29.7196 5.25408 29.1606 4.9848 28.7355L2.30987 24.5129C1.97447 23.9834 2.2032 23.2795 2.78575 23.0483L7.43182 21.2044C7.89953 21.0187 8.15646 20.5145 8.03172 20.027L6.79258 15.1844C6.63721 14.5772 7.07228 13.9784 7.69776 13.9385L12.6862 13.6206C13.1884 13.5886 13.5886 13.1884 13.6206 12.6862L13.9385 7.69776C13.9784 7.07228 14.5772 6.63721 15.1844 6.79258L20.027 8.03172C20.5145 8.15646 21.0187 7.89953 21.2044 7.43182L23.0483 2.78575C23.2795 2.2032 23.9834 1.97447 24.5129 2.30987L28.7355 4.9848C29.1606 5.25408 29.7196 5.16555 30.0406 4.77809L33.23 0.929212Z" fill="url(#paint0_linear_427_7899)"/>
<path d="M33.23 0.929212C33.6299 0.446617 34.3701 0.446617 34.77 0.929212L37.9594 4.77809C38.2804 5.16555 38.8394 5.25408 39.2645 4.9848L43.4871 2.30987C44.0166 1.97447 44.7205 2.2032 44.9517 2.78575L46.7956 7.43182C46.9813 7.89953 47.4855 8.15646 47.973 8.03172L52.8156 6.79258C53.4228 6.63721 54.0216 7.07228 54.0615 7.69776L54.3794 12.6862C54.4114 13.1884 54.8116 13.5886 55.3138 13.6206L60.3022 13.9385C60.9277 13.9784 61.3628 14.5772 61.2074 15.1844L59.9683 20.027C59.8435 20.5145 60.1005 21.0187 60.5682 21.2044L65.2142 23.0483C65.7968 23.2795 66.0255 23.9834 65.6901 24.5129L63.0152 28.7355C62.7459 29.1606 62.8344 29.7196 63.2219 30.0406L67.0708 33.23C67.5534 33.6299 67.5534 34.3701 67.0708 34.77L63.2219 37.9594C62.8344 38.2804 62.7459 38.8394 63.0152 39.2645L65.6901 43.4871C66.0255 44.0166 65.7968 44.7205 65.2142 44.9517L60.5682 46.7956C60.1005 46.9813 59.8435 47.4855 59.9683 47.973L61.2074 52.8156C61.3628 53.4228 60.9277 54.0216 60.3022 54.0615L55.3138 54.3794C54.8116 54.4114 54.4114 54.8116 54.3794 55.3138L54.0615 60.3022C54.0216 60.9277 53.4228 61.3628 52.8156 61.2074L47.973 59.9683C47.4855 59.8435 46.9813 60.1005 46.7956 60.5682L44.9517 65.2142C44.7205 65.7968 44.0166 66.0255 43.4871 65.6901L39.2645 63.0152C38.8394 62.7459 38.2804 62.8344 37.9594 63.2219L34.77 67.0708C34.3701 67.5534 33.6299 67.5534 33.23 67.0708L30.0406 63.2219C29.7196 62.8344 29.1606 62.7459 28.7355 63.0152L24.5129 65.6901C23.9834 66.0255 23.2795 65.7968 23.0483 65.2142L21.2044 60.5682C21.0187 60.1005 20.5145 59.8435 20.027 59.9683L15.1844 61.2074C14.5772 61.3628 13.9784 60.9277 13.9385 60.3022L13.6206 55.3138C13.5886 54.8116 13.1884 54.4114 12.6862 54.3794L7.69776 54.0615C7.07228 54.0216 6.63721 53.4228 6.79258 52.8156L8.03172 47.973C8.15646 47.4855 7.89953 46.9813 7.43182 46.7956L2.78575 44.9517C2.2032 44.7205 1.97447 44.0166 2.30987 43.4871L4.9848 39.2645C5.25408 38.8394 5.16555 38.2804 4.77809 37.9594L0.929212 34.77C0.446617 34.3701 0.446617 33.6299 0.929212 33.23L4.77809 30.0406C5.16555 29.7196 5.25408 29.1606 4.9848 28.7355L2.30987 24.5129C1.97447 23.9834 2.2032 23.2795 2.78575 23.0483L7.43182 21.2044C7.89953 21.0187 8.15646 20.5145 8.03172 20.027L6.79258 15.1844C6.63721 14.5772 7.07228 13.9784 7.69776 13.9385L12.6862 13.6206C13.1884 13.5886 13.5886 13.1884 13.6206 12.6862L13.9385 7.69776C13.9784 7.07228 14.5772 6.63721 15.1844 6.79258L20.027 8.03172C20.5145 8.15646 21.0187 7.89953 21.2044 7.43182L23.0483 2.78575C23.2795 2.2032 23.9834 1.97447 24.5129 2.30987L28.7355 4.9848C29.1606 5.25408 29.7196 5.16555 30.0406 4.77809L33.23 0.929212Z" fill="url(#paint1_linear_427_7899)" style="mix-blend-mode:overlay"/>
<path d="M33.23 0.929212C33.6299 0.446617 34.3701 0.446617 34.77 0.929212L37.9594 4.77809C38.2804 5.16555 38.8394 5.25408 39.2645 4.9848L43.4871 2.30987C44.0166 1.97447 44.7205 2.2032 44.9517 2.78575L46.7956 7.43182C46.9813 7.89953 47.4855 8.15646 47.973 8.03172L52.8156 6.79258C53.4228 6.63721 54.0216 7.07228 54.0615 7.69776L54.3794 12.6862C54.4114 13.1884 54.8116 13.5886 55.3138 13.6206L60.3022 13.9385C60.9277 13.9784 61.3628 14.5772 61.2074 15.1844L59.9683 20.027C59.8435 20.5145 60.1005 21.0187 60.5682 21.2044L65.2142 23.0483C65.7968 23.2795 66.0255 23.9834 65.6901 24.5129L63.0152 28.7355C62.7459 29.1606 62.8344 29.7196 63.2219 30.0406L67.0708 33.23C67.5534 33.6299 67.5534 34.3701 67.0708 34.77L63.2219 37.9594C62.8344 38.2804 62.7459 38.8394 63.0152 39.2645L65.6901 43.4871C66.0255 44.0166 65.7968 44.7205 65.2142 44.9517L60.5682 46.7956C60.1005 46.9813 59.8435 47.4855 59.9683 47.973L61.2074 52.8156C61.3628 53.4228 60.9277 54.0216 60.3022 54.0615L55.3138 54.3794C54.8116 54.4114 54.4114 54.8116 54.3794 55.3138L54.0615 60.3022C54.0216 60.9277 53.4228 61.3628 52.8156 61.2074L47.973 59.9683C47.4855 59.8435 46.9813 60.1005 46.7956 60.5682L44.9517 65.2142C44.7205 65.7968 44.0166 66.0255 43.4871 65.6901L39.2645 63.0152C38.8394 62.7459 38.2804 62.8344 37.9594 63.2219L34.77 67.0708C34.3701 67.5534 33.6299 67.5534 33.23 67.0708L30.0406 63.2219C29.7196 62.8344 29.1606 62.7459 28.7355 63.0152L24.5129 65.6901C23.9834 66.0255 23.2795 65.7968 23.0483 65.2142L21.2044 60.5682C21.0187 60.1005 20.5145 59.8435 20.027 59.9683L15.1844 61.2074C14.5772 61.3628 13.9784 60.9277 13.9385 60.3022L13.6206 55.3138C13.5886 54.8116 13.1884 54.4114 12.6862 54.3794L7.69776 54.0615C7.07228 54.0216 6.63721 53.4228 6.79258 52.8156L8.03172 47.973C8.15646 47.4855 7.89953 46.9813 7.43182 46.7956L2.78575 44.9517C2.2032 44.7205 1.97447 44.0166 2.30987 43.4871L4.9848 39.2645C5.25408 38.8394 5.16555 38.2804 4.77809 37.9594L0.929212 34.77C0.446617 34.3701 0.446617 33.6299 0.929212 33.23L4.77809 30.0406C5.16555 29.7196 5.25408 29.1606 4.9848 28.7355L2.30987 24.5129C1.97447 23.9834 2.2032 23.2795 2.78575 23.0483L7.43182 21.2044C7.89953 21.0187 8.15646 20.5145 8.03172 20.027L6.79258 15.1844C6.63721 14.5772 7.07228 13.9784 7.69776 13.9385L12.6862 13.6206C13.1884 13.5886 13.5886 13.1884 13.6206 12.6862L13.9385 7.69776C13.9784 7.07228 14.5772 6.63721 15.1844 6.79258L20.027 8.03172C20.5145 8.15646 21.0187 7.89953 21.2044 7.43182L23.0483 2.78575C23.2795 2.2032 23.9834 1.97447 24.5129 2.30987L28.7355 4.9848C29.1606 5.25408 29.7196 5.16555 30.0406 4.77809L33.23 0.929212Z" fill="#C2A75D" style="mix-blend-mode:color"/>
<path fill-rule="evenodd" clip-rule="evenodd" d="M37.495 21.5592C35.9411 18.147 31.0589 18.1469 29.505 21.5592L26.9749 27.1151L22.5113 24.669C19.1171 22.8089 15.1396 25.9162 16.1639 29.6277L18.8863 39.4924V41.9082L18.8863 41.9641C18.8863 42.7287 18.8863 43.3883 18.931 43.9316C18.9782 44.505 19.0824 45.0753 19.3642 45.6241C19.7845 46.4429 20.4552 47.1086 21.2801 47.5257C21.833 47.8054 22.4077 47.9088 22.9854 47.9557C23.5328 48 24.1974 48 24.9677 48H25.0241H41.9759H42.0322C42.8026 48 43.4672 48 44.0145 47.9557C44.5923 47.9088 45.1669 47.8054 45.7199 47.5257C46.5448 47.1086 47.2155 46.4429 47.6358 45.6241C47.9175 45.0753 48.0218 44.505 48.069 43.9316C48.1137 43.3883 48.1137 42.7287 48.1136 41.9641V41.9082V39.4925L50.8361 29.6277C51.8604 25.9162 47.8829 22.8089 44.4887 24.6689L40.0251 27.1151L37.495 21.5592ZM45.1909 40.7478H21.8091V41.9082C21.8091 42.7444 21.8102 43.2844 21.844 43.6953C21.8765 44.0894 21.9315 44.2355 21.9683 44.3072C22.1084 44.5801 22.332 44.802 22.607 44.941C22.6792 44.9776 22.8264 45.0322 23.2234 45.0644C23.6375 45.098 24.1815 45.0991 25.0241 45.0991H41.9759C42.8185 45.0991 43.3625 45.098 43.7765 45.0644C44.1735 45.0322 44.3207 44.9776 44.393 44.941C44.668 44.802 44.8915 44.5801 45.0316 44.3072C45.0684 44.2355 45.1235 44.0894 45.1559 43.6953C45.1898 43.2844 45.1909 42.7444 45.1909 41.9082V40.7478ZM32.1683 22.7539C32.6863 21.6165 34.3137 21.6165 34.8317 22.7539L38.0138 29.7417C38.1818 30.1106 38.4974 30.393 38.8845 30.5207C39.2715 30.6484 39.6948 30.6098 40.0518 30.4141L45.9014 27.2084C47.0328 26.5884 48.3586 27.6242 48.0172 28.8614L45.5374 37.847H21.4626L18.9828 28.8614C18.6414 27.6242 19.9672 26.5884 21.0986 27.2084L26.9482 30.4141C27.3052 30.6098 27.7284 30.6484 28.1155 30.5207C28.5025 30.3931 28.8182 30.1106 28.9862 29.7417L32.1683 22.7539Z" fill="url(#paint2_linear_427_7899)"/>
<path fill-rule="evenodd" clip-rule="evenodd" d="M37.495 21.5592C35.9411 18.147 31.0589 18.1469 29.505 21.5592L26.9749 27.1151L22.5113 24.669C19.1171 22.8089 15.1396 25.9162 16.1639 29.6277L18.8863 39.4924V41.9082L18.8863 41.9641C18.8863 42.7287 18.8863 43.3883 18.931 43.9316C18.9782 44.505 19.0824 45.0753 19.3642 45.6241C19.7845 46.4429 20.4552 47.1086 21.2801 47.5257C21.833 47.8054 22.4077 47.9088 22.9854 47.9557C23.5328 48 24.1974 48 24.9677 48H25.0241H41.9759H42.0322C42.8026 48 43.4672 48 44.0145 47.9557C44.5923 47.9088 45.1669 47.8054 45.7199 47.5257C46.5448 47.1086 47.2155 46.4429 47.6358 45.6241C47.9175 45.0753 48.0218 44.505 48.069 43.9316C48.1137 43.3883 48.1137 42.7287 48.1136 41.9641V41.9082V39.4925L50.8361 29.6277C51.8604 25.9162 47.8829 22.8089 44.4887 24.6689L40.0251 27.1151L37.495 21.5592ZM45.1909 40.7478H21.8091V41.9082C21.8091 42.7444 21.8102 43.2844 21.844 43.6953C21.8765 44.0894 21.9315 44.2355 21.9683 44.3072C22.1084 44.5801 22.332 44.802 22.607 44.941C22.6792 44.9776 22.8264 45.0322 23.2234 45.0644C23.6375 45.098 24.1815 45.0991 25.0241 45.0991H41.9759C42.8185 45.0991 43.3625 45.098 43.7765 45.0644C44.1735 45.0322 44.3207 44.9776 44.393 44.941C44.668 44.802 44.8915 44.5801 45.0316 44.3072C45.0684 44.2355 45.1235 44.0894 45.1559 43.6953C45.1898 43.2844 45.1909 42.7444 45.1909 41.9082V40.7478ZM32.1683 22.7539C32.6863 21.6165 34.3137 21.6165 34.8317 22.7539L38.0138 29.7417C38.1818 30.1106 38.4974 30.393 38.8845 30.5207C39.2715 30.6484 39.6948 30.6098 40.0518 30.4141L45.9014 27.2084C47.0328 26.5884 48.3586 27.6242 48.0172 28.8614L45.5374 37.847H21.4626L18.9828 28.8614C18.6414 27.6242 19.9672 26.5884 21.0986 27.2084L26.9482 30.4141C27.3052 30.6098 27.7284 30.6484 28.1155 30.5207C28.5025 30.3931 28.8182 30.1106 28.9862 29.7417L32.1683 22.7539Z" fill="url(#paint3_linear_427_7899)" style="mix-blend-mode:overlay"/>
<path fill-rule="evenodd" clip-rule="evenodd" d="M37.495 21.5592C35.9411 18.147 31.0589 18.1469 29.505 21.5592L26.9749 27.1151L22.5113 24.669C19.1171 22.8089 15.1396 25.9162 16.1639 29.6277L18.8863 39.4924V41.9082L18.8863 41.9641C18.8863 42.7287 18.8863 43.3883 18.931 43.9316C18.9782 44.505 19.0824 45.0753 19.3642 45.6241C19.7845 46.4429 20.4552 47.1086 21.2801 47.5257C21.833 47.8054 22.4077 47.9088 22.9854 47.9557C23.5328 48 24.1974 48 24.9677 48H25.0241H41.9759H42.0322C42.8026 48 43.4672 48 44.0145 47.9557C44.5923 47.9088 45.1669 47.8054 45.7199 47.5257C46.5448 47.1086 47.2155 46.4429 47.6358 45.6241C47.9175 45.0753 48.0218 44.505 48.069 43.9316C48.1137 43.3883 48.1137 42.7287 48.1136 41.9641V41.9082V39.4925L50.8361 29.6277C51.8604 25.9162 47.8829 22.8089 44.4887 24.6689L40.0251 27.1151L37.495 21.5592ZM45.1909 40.7478H21.8091V41.9082C21.8091 42.7444 21.8102 43.2844 21.844 43.6953C21.8765 44.0894 21.9315 44.2355 21.9683 44.3072C22.1084 44.5801 22.332 44.802 22.607 44.941C22.6792 44.9776 22.8264 45.0322 23.2234 45.0644C23.6375 45.098 24.1815 45.0991 25.0241 45.0991H41.9759C42.8185 45.0991 43.3625 45.098 43.7765 45.0644C44.1735 45.0322 44.3207 44.9776 44.393 44.941C44.668 44.802 44.8915 44.5801 45.0316 44.3072C45.0684 44.2355 45.1235 44.0894 45.1559 43.6953C45.1898 43.2844 45.1909 42.7444 45.1909 41.9082V40.7478ZM32.1683 22.7539C32.6863 21.6165 34.3137 21.6165 34.8317 22.7539L38.0138 29.7417C38.1818 30.1106 38.4974 30.393 38.8845 30.5207C39.2715 30.6484 39.6948 30.6098 40.0518 30.4141L45.9014 27.2084C47.0328 26.5884 48.3586 27.6242 48.0172 28.8614L45.5374 37.847H21.4626L18.9828 28.8614C18.6414 27.6242 19.9672 26.5884 21.0986 27.2084L26.9482 30.4141C27.3052 30.6098 27.7284 30.6484 28.1155 30.5207C28.5025 30.3931 28.8182 30.1106 28.9862 29.7417L32.1683 22.7539Z" fill="#AE8E36" style="mix-blend-mode:color"/>
<defs>
<linearGradient id="paint0_linear_427_7899" x1="3.77016" y1="42.5298" x2="67.1888" y2="27.6738" gradientUnits="userSpaceOnUse">
<stop stop-color="#576265"/>
<stop offset="0.172016" stop-color="#9EA1A1"/>
<stop offset="0.45741" stop-color="#848B8A"/>
<stop offset="0.553567" stop-color="#576265"/>
<stop offset="0.823421" stop-color="#576265"/>
<stop offset="0.925155" stop-color="#757A7B"/>
<stop offset="1" stop-color="#576265"/>
</linearGradient>
<linearGradient id="paint1_linear_427_7899" x1="27.1452" y1="34" x2="13.5821" y2="-1.39578" gradientUnits="userSpaceOnUse">
<stop stop-color="white" stop-opacity="0"/>
<stop offset="1" stop-color="white"/>
</linearGradient>
<linearGradient id="paint2_linear_427_7899" x1="17.9405" y1="37.1377" x2="49.8251" y2="28.1233" gradientUnits="userSpaceOnUse">
<stop stop-color="#626262"/>
<stop offset="0.172016" stop-color="#E5E5E5"/>
<stop offset="0.45741" stop-color="#848B8A"/>
<stop offset="0.553567" stop-color="#F8FDFF"/>
<stop offset="0.823421" stop-color="#A5A9AB"/>
<stop offset="0.925155" stop-color="#AAACAC"/>
<stop offset="1" stop-color="#6B7679"/>
</linearGradient>
<linearGradient id="paint3_linear_427_7899" x1="29.9718" y1="33.5" x2="24.9787" y2="17.7736" gradientUnits="userSpaceOnUse">
<stop stop-color="white" stop-opacity="0"/>
<stop offset="1" stop-color="white"/>
</linearGradient>
</defs>
</svg>
