<svg width="70" height="70" viewBox="0 0 70 70" fill="none" xmlns="http://www.w3.org/2000/svg">
    <path d="M34.0375 1.16151C34.5374 0.558271 35.4626 0.558272 35.9625 1.16152L38.9519 4.76912C39.3533 5.25345 40.052 5.36411 40.5833 5.02751L44.5413 2.52026C45.2031 2.10101 46.083 2.38692 46.372 3.11511L48.1004 7.46994C48.3324 8.05458 48.9627 8.37575 49.5721 8.21982L54.1111 7.05835C54.8701 6.86414 55.6186 7.40797 55.6684 8.18983L55.9664 12.8656C56.0065 13.4933 56.5067 13.9935 57.1344 14.0336L61.8102 14.3316C62.592 14.3814 63.1359 15.1299 62.9416 15.8889L61.7802 20.4279C61.6243 21.0373 61.9454 21.6676 62.5301 21.8996L66.8849 23.628C67.6131 23.917 67.899 24.7969 67.4797 25.4587L64.9725 29.4167C64.6359 29.948 64.7466 30.6467 65.2309 31.0481L68.8385 34.0375C69.4417 34.5374 69.4417 35.4626 68.8385 35.9625L65.2309 38.9519C64.7466 39.3533 64.6359 40.052 64.9725 40.5833L67.4797 44.5413C67.899 45.2031 67.6131 46.083 66.8849 46.372L62.5301 48.1004C61.9454 48.3324 61.6243 48.9627 61.7802 49.5721L62.9417 54.1111C63.1359 54.8701 62.592 55.6186 61.8102 55.6684L57.1344 55.9664C56.5067 56.0065 56.0065 56.5067 55.9664 57.1344L55.6684 61.8102C55.6186 62.592 54.8701 63.1359 54.1111 62.9416L49.5721 61.7802C48.9627 61.6243 48.3324 61.9454 48.1004 62.5301L46.372 66.8849C46.083 67.6131 45.2031 67.899 44.5413 67.4797L40.5833 64.9725C40.052 64.6359 39.3533 64.7466 38.9519 65.2309L35.9625 68.8385C35.4626 69.4417 34.5374 69.4417 34.0375 68.8385L31.0481 65.2309C30.6467 64.7466 29.948 64.6359 29.4167 64.9725L25.4587 67.4797C24.7969 67.899 23.917 67.6131 23.628 66.8849L21.8996 62.5301C21.6676 61.9454 21.0373 61.6243 20.4279 61.7802L15.8889 62.9417C15.1299 63.1359 14.3814 62.592 14.3316 61.8102L14.0336 57.1344C13.9935 56.5067 13.4933 56.0065 12.8656 55.9664L8.18983 55.6684C7.40797 55.6186 6.86414 54.8701 7.05835 54.1111L8.21982 49.5721C8.37575 48.9627 8.05458 48.3324 7.46994 48.1004L3.11511 46.372C2.38692 46.083 2.10101 45.2031 2.52026 44.5413L5.02751 40.5833C5.36411 40.052 5.25345 39.3533 4.76912 38.9519L1.16151 35.9625C0.558271 35.4626 0.558272 34.5374 1.16152 34.0375L4.76912 31.0481C5.25345 30.6467 5.36411 29.948 5.02751 29.4167L2.52026 25.4587C2.10101 24.7969 2.38692 23.917 3.11511 23.628L7.46994 21.8996C8.05458 21.6676 8.37575 21.0373 8.21982 20.4279L7.05835 15.8889C6.86414 15.1299 7.40797 14.3814 8.18983 14.3316L12.8656 14.0336C13.4933 13.9935 13.9935 13.4933 14.0336 12.8656L14.3316 8.18983C14.3814 7.40797 15.1299 6.86414 15.8889 7.05835L20.4279 8.21982C21.0373 8.37575 21.6676 8.05458 21.8996 7.46994L23.628 3.11511C23.917 2.38692 24.7969 2.10101 25.4587 2.52026L29.4167 5.02751C29.948 5.36411 30.6467 5.25345 31.0481 4.76912L34.0375 1.16151Z" fill="url(#paint0_linear_8_12)"/>
    <path fill-rule="evenodd" clip-rule="evenodd" d="M26.4225 24.1672C26.6997 24.0709 26.9278 23.8695 27.0573 23.6065C27.1869 23.3436 27.2076 23.0403 27.1148 22.7623C27.0221 22.4843 26.8234 22.2539 26.5618 22.1211C26.3002 21.9883 25.9967 21.9636 25.717 22.0525L24.891 22.3275C24.0426 22.6098 23.3207 22.8491 22.7492 23.1106C22.1405 23.3885 21.6076 23.7288 21.1849 24.2637C20.7607 24.7987 20.5509 25.3931 20.4184 26.047C20.2949 26.6637 20.2264 27.4186 20.146 28.3087L19.1072 39.7065C19.0361 40.1103 19.0003 40.5195 19 40.9295C19.0074 44.8214 22.1702 48 26.0698 48C27.7478 48 29.3712 47.4042 30.6497 46.3191C31.9282 45.2339 32.7785 43.7302 33.0487 42.0767L33.3747 41.9608C34.4258 41.5865 35.5742 41.5865 36.6253 41.9608L36.9527 42.0767C37.2229 43.73 38.073 45.2335 39.3512 46.3186C40.6294 47.4037 42.2524 47.9996 43.9302 48C47.8298 48 50.9911 44.8199 51 40.9295C51 40.5134 50.9628 40.1033 50.8913 39.7065L49.854 28.3102C49.7736 27.4186 49.7051 26.6652 49.5816 26.0499C49.4491 25.3946 49.2393 24.7987 48.8151 24.2652C48.3909 23.7303 47.8595 23.3885 47.2508 23.1121C46.6793 22.8505 45.9589 22.6113 45.109 22.3289L44.283 22.054C44.0033 21.9651 43.6998 21.9897 43.4382 22.1226C43.1766 22.2554 42.9779 22.4858 42.8852 22.7638C42.7924 23.0418 42.8131 23.3451 42.9427 23.608C43.0722 23.871 43.3003 24.0724 43.5775 24.1686L44.3485 24.4242C45.2668 24.7304 45.8726 24.9339 46.322 25.139C46.7477 25.3322 46.9382 25.4882 47.0662 25.6487C47.1927 25.8077 47.2999 26.0291 47.3922 26.4868C47.4889 26.9713 47.5485 27.6058 47.6363 28.5688L48.254 35.3584C47.2901 34.6148 46.1501 34.1324 44.9447 33.958C43.7392 33.7836 42.509 33.923 41.3733 34.3628C40.2377 34.8026 39.2351 35.5278 38.4627 36.4682C37.6902 37.4086 37.1742 38.5323 36.9646 39.7303C35.6812 39.3596 34.3188 39.3596 33.0353 39.7303C32.8258 38.5323 32.3098 37.4086 31.5373 36.4682C30.7649 35.5278 29.7623 34.8026 28.6267 34.3628C27.491 33.923 26.2608 33.7836 25.0553 33.958C23.8499 34.1324 22.7099 34.6148 21.746 35.3584L21.8175 34.5678L22.3637 28.5688C22.4515 27.6058 22.5111 26.9713 22.6078 26.4883C22.7001 26.0291 22.8073 25.8077 22.9353 25.6487C23.0618 25.4882 23.2523 25.3337 23.678 25.139C24.1274 24.9339 24.7332 24.7304 25.6515 24.4257L26.4225 24.1672ZM48.6781 40.0141L48.7674 40.9889C48.7547 42.2273 48.2659 43.4135 47.4021 44.3023C46.5383 45.1911 45.3655 45.7147 44.1261 45.7648C42.8867 45.8149 41.6754 45.3877 40.7425 44.5714C39.8096 43.7552 39.2264 42.6124 39.1134 41.379C39.0004 40.1457 39.3663 38.9162 40.1354 37.9446C40.9045 36.9729 42.0181 36.3334 43.2461 36.1582C44.474 35.9829 45.7224 36.2854 46.7334 37.003C47.7444 37.7206 48.4406 38.7986 48.6781 40.0141ZM21.3219 40.0141L21.2326 40.9889C21.2453 42.2273 21.7341 43.4135 22.5979 44.3023C23.4617 45.1911 24.6345 45.7147 25.8739 45.7648C27.1133 45.8149 28.3246 45.3877 29.2575 44.5714C30.1904 43.7552 30.7736 42.6124 30.8866 41.379C30.9996 40.1457 30.6337 38.9162 29.8646 37.9446C29.0955 36.9729 27.9819 36.3334 26.7539 36.1582C25.526 35.9829 24.2776 36.2854 23.2666 37.003C22.2557 37.7206 21.5594 38.7986 21.3219 40.0141Z" fill="url(#paint1_linear_8_12)"/>
    <defs>
        <linearGradient id="paint0_linear_8_12" x1="1.18992e-06" y1="5.76471" x2="68.7647" y2="68.7647" gradientUnits="userSpaceOnUse">
            <stop offset="0.105903" stop-color="#305028"/>
            <stop offset="0.256805" stop-color="#538346"/>
            <stop offset="0.350609" stop-color="#84B875"/>
            <stop offset="0.486503" stop-color="#618E51"/>
            <stop offset="0.574024" stop-color="#6E935E"/>
            <stop offset="0.661578" stop-color="#8CB27A"/>
            <stop offset="0.745614" stop-color="#72985E"/>
            <stop offset="0.875869" stop-color="#315818"/>
        </linearGradient>
        <linearGradient id="paint1_linear_8_12" x1="23.3179" y1="27.0949" x2="51.1669" y2="42.8093" gradientUnits="userSpaceOnUse">
            <stop offset="0.0412489" stop-color="#A5C29A"/>
            <stop offset="0.142361" stop-color="#ECF5E9"/>
            <stop offset="0.33775" stop-color="#6EA75B"/>
            <stop offset="0.468374" stop-color="#9EC192"/>
            <stop offset="0.602521" stop-color="#8BA980"/>
            <stop offset="0.755315" stop-color="#D6E2D2"/>
            <stop offset="0.887796" stop-color="#B9D1B1"/>
            <stop offset="0.974302" stop-color="#8EB87F"/>
        </linearGradient>
    </defs>
</svg>
