<svg width="68" height="68" viewBox="0 0 68 68" fill="none" xmlns="http://www.w3.org/2000/svg">
<path d="M33.23 0.929212C33.6299 0.446617 34.3701 0.446617 34.77 0.929212L37.9594 4.77809C38.2804 5.16555 38.8394 5.25408 39.2645 4.9848L43.4871 2.30987C44.0166 1.97447 44.7205 2.2032 44.9517 2.78575L46.7956 7.43182C46.9813 7.89953 47.4855 8.15646 47.973 8.03172L52.8156 6.79258C53.4228 6.63721 54.0216 7.07228 54.0615 7.69776L54.3794 12.6862C54.4114 13.1884 54.8116 13.5886 55.3138 13.6206L60.3022 13.9385C60.9277 13.9784 61.3628 14.5772 61.2074 15.1844L59.9683 20.027C59.8435 20.5145 60.1005 21.0187 60.5682 21.2044L65.2142 23.0483C65.7968 23.2795 66.0255 23.9834 65.6901 24.5129L63.0152 28.7355C62.7459 29.1606 62.8344 29.7196 63.2219 30.0406L67.0708 33.23C67.5534 33.6299 67.5534 34.3701 67.0708 34.77L63.2219 37.9594C62.8344 38.2804 62.7459 38.8394 63.0152 39.2645L65.6901 43.4871C66.0255 44.0166 65.7968 44.7205 65.2142 44.9517L60.5682 46.7956C60.1005 46.9813 59.8435 47.4855 59.9683 47.973L61.2074 52.8156C61.3628 53.4228 60.9277 54.0216 60.3022 54.0615L55.3138 54.3794C54.8116 54.4114 54.4114 54.8116 54.3794 55.3138L54.0615 60.3022C54.0216 60.9277 53.4228 61.3628 52.8156 61.2074L47.973 59.9683C47.4855 59.8435 46.9813 60.1005 46.7956 60.5682L44.9517 65.2142C44.7205 65.7968 44.0166 66.0255 43.4871 65.6901L39.2645 63.0152C38.8394 62.7459 38.2804 62.8344 37.9594 63.2219L34.77 67.0708C34.3701 67.5534 33.6299 67.5534 33.23 67.0708L30.0406 63.2219C29.7196 62.8344 29.1606 62.7459 28.7355 63.0152L24.5129 65.6901C23.9834 66.0255 23.2795 65.7968 23.0483 65.2142L21.2044 60.5682C21.0187 60.1005 20.5145 59.8435 20.027 59.9683L15.1844 61.2074C14.5772 61.3628 13.9784 60.9277 13.9385 60.3022L13.6206 55.3138C13.5886 54.8116 13.1884 54.4114 12.6862 54.3794L7.69776 54.0615C7.07228 54.0216 6.63721 53.4228 6.79258 52.8156L8.03172 47.973C8.15646 47.4855 7.89953 46.9813 7.43182 46.7956L2.78575 44.9517C2.2032 44.7205 1.97447 44.0166 2.30987 43.4871L4.9848 39.2645C5.25408 38.8394 5.16555 38.2804 4.77809 37.9594L0.929212 34.77C0.446617 34.3701 0.446617 33.6299 0.929212 33.23L4.77809 30.0406C5.16555 29.7196 5.25408 29.1606 4.9848 28.7355L2.30987 24.5129C1.97447 23.9834 2.2032 23.2795 2.78575 23.0483L7.43182 21.2044C7.89953 21.0187 8.15646 20.5145 8.03172 20.027L6.79258 15.1844C6.63721 14.5772 7.07228 13.9784 7.69776 13.9385L12.6862 13.6206C13.1884 13.5886 13.5886 13.1884 13.6206 12.6862L13.9385 7.69776C13.9784 7.07228 14.5772 6.63721 15.1844 6.79258L20.027 8.03172C20.5145 8.15646 21.0187 7.89953 21.2044 7.43182L23.0483 2.78575C23.2795 2.2032 23.9834 1.97447 24.5129 2.30987L28.7355 4.9848C29.1606 5.25408 29.7196 5.16555 30.0406 4.77809L33.23 0.929212Z" fill="url(#paint0_radial_427_7903)"/>
<path fill-rule="evenodd" clip-rule="evenodd" d="M41.2125 16.8879C41.2989 17.7509 41.1609 18.7895 40.85 19.9491L38.6675 27.9112L43.6731 28.8776C46.0376 29.2547 48.0381 30.2886 48.6275 32.2696C49.2566 34.3842 47.9532 36.4918 46.6035 38.0122L34.1942 51.4021C33.3639 52.241 32.5441 52.8967 31.7592 53.289C31.025 53.656 29.9564 53.9622 28.9588 53.421C27.9668 52.8829 27.68 51.8498 27.6192 51.0516C27.5543 50.1993 27.7012 49.1743 28.0075 48.0328L30.0351 39.9684L24.8959 39.1182C22.6004 38.7487 20.4185 37.7559 19.5642 35.8515C18.5339 33.5549 19.9889 31.1916 21.5687 29.5739C22.7868 28.3828 24.0073 27.193 25.1986 25.9749C28.3039 22.7994 31.5817 19.8001 34.6606 16.5962C35.444 15.7685 36.2388 15.1154 37.0167 14.7201C37.7526 14.3462 38.7995 14.05 39.7922 14.5507C40.7965 15.0572 41.1303 16.0663 41.2125 16.8879ZM38.2787 17.2951C37.7344 17.6103 37.267 18.0632 36.8378 18.517C34.7411 20.699 32.8994 22.5073 31.3153 24.0432C30.9476 24.3997 30.5953 24.7402 30.2578 25.0663C29.1327 26.1534 28.1722 27.0813 27.3542 27.9178C26.59 28.6993 25.3706 29.9083 23.7027 31.539C22.0328 33.2541 22.0752 34.2725 22.2798 34.7287C22.762 35.8034 24.3712 36.1555 25.3912 36.3196L31.3943 37.3128C32.5576 37.5053 33.4204 38.6398 33.1156 39.814L30.8763 48.7205C30.7058 49.3541 30.5524 50.0195 30.5611 50.6798C30.9256 50.4654 31.4214 50.0805 32.0344 49.4632L44.3732 36.1483C45.7772 34.5626 45.9286 33.5341 45.7844 33.0492C45.4924 32.068 43.9693 31.8006 43.1417 31.6706L37.2635 30.5356C36.1144 30.328 35.2764 29.1769 35.58 28.0205L37.9865 19.2416C38.2265 18.3464 38.2958 17.7081 38.2787 17.2951Z" fill="url(#paint1_linear_427_7903)"/>
<defs>
<radialGradient id="paint0_radial_427_7903" cx="0" cy="0" r="1" gradientUnits="userSpaceOnUse" gradientTransform="translate(34 34) rotate(90) scale(40.5)">
<stop stop-color="#460410"/>
<stop offset="0.527168" stop-color="#871126"/>
<stop offset="1" stop-color="#E6342D"/>
</radialGradient>
<linearGradient id="paint1_linear_427_7903" x1="51.5526" y1="32.1841" x2="19.4737" y2="39.4473" gradientUnits="userSpaceOnUse">
<stop stop-color="#AE0707"/>
<stop offset="0.208333" stop-color="#FF8181"/>
<stop offset="0.505208" stop-color="#D21515"/>
<stop offset="0.651042" stop-color="#AE0707"/>
<stop offset="1" stop-color="#FF8181"/>
</linearGradient>
</defs>
</svg>
