<svg width="25" height="21" viewBox="0 0 25 21" fill="none" xmlns="http://www.w3.org/2000/svg">
<path fill-rule="evenodd" clip-rule="evenodd" d="M11.9598 5.56811e-07H13.0402C13.706 -1.37487e-05 14.2656 -2.57716e-05 14.7234 0.0373833C15.2022 0.0764964 15.6571 0.161437 16.089 0.381479C16.7475 0.717036 17.283 1.25247 17.6185 1.91103C17.8386 2.34289 17.9235 2.79785 17.9626 3.27657C18.0094 3.84914 18 4.42606 18 5L19.5402 5C20.206 4.99999 20.7656 4.99997 21.2234 5.03738C21.7022 5.0765 22.1571 5.16144 22.589 5.38148C23.2475 5.71704 23.783 6.25247 24.1185 6.91103C24.3386 7.34289 24.4235 7.79785 24.4626 8.27658C24.5 8.73443 24.5 9.29393 24.5 9.95976V11.6361C24.5 12.0252 24.5 12.3753 24.4762 12.6666C24.3862 13.769 23.6263 14.7344 22.5 14.9344C22.5 15.7063 22.5187 16.4819 22.4558 17.2518C22.4099 17.8139 22.3113 18.3306 22.064 18.816C21.6805 19.5686 21.0686 20.1805 20.316 20.564C19.8306 20.8113 19.3139 20.9099 18.7518 20.9558C18.2106 21 17.5463 21 16.7413 21H8.2587C7.45374 21 6.78937 21 6.24818 20.9558C5.68608 20.9099 5.16938 20.8113 4.68404 20.564C3.93139 20.1805 3.31947 19.5686 2.93598 18.816C2.68869 18.3306 2.59012 17.8139 2.5442 17.2518C2.48129 16.4819 2.5 15.7063 2.5 14.9344C1.37372 14.7344 0.613831 13.769 0.523761 12.6666C0.499961 12.3753 0.49998 12.0252 0.500001 11.6362L0.500003 9.95984C0.499988 9.29397 0.499976 8.73445 0.537386 8.27658C0.576499 7.79785 0.661439 7.34289 0.881481 6.91103C1.21704 6.25247 1.75247 5.71704 2.41104 5.38148C2.84289 5.16144 3.29786 5.0765 3.77658 5.03738C4.23444 4.99997 4.79396 4.99999 5.45982 5L7 5C7 4.42606 6.99061 3.84914 7.03739 3.27657C7.0765 2.79785 7.16144 2.34289 7.38148 1.91103C7.71704 1.25247 8.25247 0.717036 8.91104 0.381479C9.34289 0.161437 9.79786 0.0764964 10.2766 0.0373833C10.7344 -2.57716e-05 11.294 -1.37487e-05 11.9598 5.56811e-07ZM3.9 13H21.1C21.5365 13 21.8038 12.9992 22.0038 12.9829C22.3094 12.9579 22.4596 12.7893 22.4829 12.5038C22.4992 12.3038 22.5 12.0365 22.5 11.6V10C22.5 9.28343 22.4992 8.80615 22.4693 8.43944C22.4403 8.0844 22.389 7.92194 22.3365 7.81902C22.1927 7.53677 21.9632 7.3073 21.681 7.16349C21.5781 7.11105 21.4156 7.05975 21.0606 7.03074C20.6939 7.00078 20.2166 7 19.5 7H5.5C4.78344 7 4.30615 7.00078 3.93944 7.03074C3.5844 7.05975 3.42194 7.11105 3.31902 7.16349C3.03678 7.3073 2.8073 7.53677 2.66349 7.81902C2.61105 7.92194 2.55975 8.0844 2.53074 8.43944C2.50078 8.80615 2.5 9.28343 2.5 10V11.6C2.5 12.0365 2.50078 12.3038 2.51712 12.5038C2.54254 12.8149 2.7039 12.959 2.99624 12.9829C3.1962 12.9992 3.46346 13 3.9 13ZM4.5 15C4.5 15.6954 4.48088 16.3953 4.53756 17.089C4.57338 17.5274 4.6383 17.7516 4.71799 17.908C4.90974 18.2843 5.2157 18.5903 5.59202 18.782C5.74842 18.8617 5.97263 18.9266 6.41104 18.9625C6.86113 18.9992 7.44342 19 8.3 19H16.7C17.5566 19 18.1389 18.9992 18.589 18.9625C19.0274 18.9266 19.2516 18.8617 19.408 18.782C19.7843 18.5903 20.0903 18.2843 20.282 17.908C20.3617 17.7516 20.4266 17.5274 20.4625 17.089C20.5191 16.3953 20.5 15.6954 20.5 15H4.5ZM15.9693 3.43944C15.9992 3.80615 16 4.28344 16 5H9C9 4.28344 9.00078 3.80615 9.03074 3.43944C9.05975 3.0844 9.11105 2.92194 9.16349 2.81902C9.3073 2.53677 9.53677 2.3073 9.81902 2.16349C9.92194 2.11105 10.0844 2.05975 10.4394 2.03074C10.8062 2.00078 11.2834 2 12 2H13C13.7166 2 14.1939 2.00078 14.5606 2.03074C14.9156 2.05975 15.0781 2.11105 15.181 2.16349C15.4632 2.3073 15.6927 2.53677 15.8365 2.81902C15.889 2.92194 15.9403 3.0844 15.9693 3.43944Z" fill="url(#paint0_linear_317_2703)"/>
<defs>
<linearGradient id="paint0_linear_317_2703" x1="0.5" y1="10.7059" x2="24.5" y2="10.7059" gradientUnits="userSpaceOnUse">
<stop stop-color="#E12131"/>
<stop offset="1" stop-color="#FEA310"/>
</linearGradient>
</defs>
</svg>
