<svg width="25" height="21" viewBox="0 0 25 21" fill="none" xmlns="http://www.w3.org/2000/svg">
<path d="M16.2951 0.5C17.4621 0.5 18.065 0.616415 18.6927 0.952103C19.2743 1.26319 19.7368 1.72567 20.0479 2.30734C20.3654 2.9011 20.4868 3.47263 20.499 4.52047C21.344 4.57473 21.8821 4.72221 22.4369 5.01889C23.1 5.37355 23.6265 5.89997 23.9811 6.56313C24.3663 7.28341 24.5 7.97564 24.5 9.34583V15.6542C24.5 17.0244 24.3663 17.7166 23.9811 18.4369C23.6265 19.1 23.1 19.6265 22.4369 19.9811C21.7166 20.3663 21.0244 20.5 19.6542 20.5H5.34583C3.97564 20.5 3.28342 20.3663 2.56313 19.9811C1.89998 19.6265 1.37355 19.1 1.01889 18.4369C0.633674 17.7166 0.5 17.0244 0.5 15.6542V4.5H0.502L0.502113 4.4453C0.519207 3.44498 0.642237 2.88674 0.952103 2.30734C1.26319 1.72567 1.72567 1.26319 2.30734 0.952103C2.93503 0.616415 3.53787 0.5 4.70486 0.5H16.2951ZM19.6542 6.5H2.5V15.6542C2.5 16.7224 2.57344 17.1027 2.78251 17.4937C2.95077 17.8083 3.19171 18.0492 3.50633 18.2175C3.89726 18.4266 4.27757 18.5 5.34583 18.5H19.6542C20.7224 18.5 21.1027 18.4266 21.4937 18.2175C21.8083 18.0492 22.0492 17.8083 22.2175 17.4937C22.4266 17.1027 22.5 16.7224 22.5 15.6542V9.34583C22.5 8.27757 22.4266 7.89726 22.2175 7.50633C22.0492 7.19171 21.8083 6.95077 21.4937 6.78251C21.1027 6.57344 20.7224 6.5 19.6542 6.5ZM18.5 11.5C19.0523 11.5 19.5 11.9477 19.5 12.5C19.5 13.0523 19.0523 13.5 18.5 13.5H16.5C15.9477 13.5 15.5 13.0523 15.5 12.5C15.5 11.9477 15.9477 11.5 16.5 11.5H18.5ZM16.2951 2.5H4.70486C3.8398 2.5 3.54887 2.55618 3.25054 2.71573C3.0174 2.84041 2.84041 3.0174 2.71573 3.25054C2.56949 3.52398 2.51009 3.79121 2.5012 4.5H18.4988C18.4899 3.79121 18.4305 3.52398 18.2843 3.25054C18.1596 3.0174 17.9826 2.84041 17.7495 2.71573C17.4511 2.55618 17.1602 2.5 16.2951 2.5Z" fill="url(#paint0_linear_317_2863)"/>
<defs>
<linearGradient id="paint0_linear_317_2863" x1="0.5" y1="10.6961" x2="24.5" y2="10.6961" gradientUnits="userSpaceOnUse">
<stop stop-color="#E12131"/>
<stop offset="1" stop-color="#FEA310"/>
</linearGradient>
</defs>
</svg>
