<svg width="27" height="26" viewBox="0 0 27 26" fill="none" xmlns="http://www.w3.org/2000/svg">
<path fill-rule="evenodd" clip-rule="evenodd" d="M19.8759 2.40536C19.3052 1.83475 18.834 1.36362 18.4175 1.01165C17.9921 0.652116 17.5609 0.360935 17.0483 0.19437C16.2449 -0.0666617 15.3795 -0.0666618 14.5762 0.19437C14.0581 0.362693 13.6231 0.658361 13.1931 1.02335C12.7792 1.37476 12.3094 1.84454 11.7402 2.41375L2.9137 11.2403C2.34449 11.8095 1.8747 12.2793 1.52329 12.6932C1.1583 13.1231 0.862633 13.5582 0.694309 14.0762C0.433277 14.8796 0.433278 15.745 0.694309 16.5484C0.860874 17.061 1.15206 17.4922 1.51159 17.9176C1.86356 18.334 2.33469 18.8053 2.90531 19.3759C3.26697 19.7376 3.84324 19.7681 4.24103 19.4466C5.02562 18.8124 6.18012 18.8607 6.90975 19.5903C7.63938 20.3199 7.68763 21.4744 7.05348 22.259C6.73197 22.6568 6.76244 23.2331 7.12412 23.5947C7.69477 24.1654 8.16601 24.6365 8.58246 24.9885C9.00786 25.348 9.43906 25.6392 9.9517 25.8058C10.7551 26.0668 11.6205 26.0668 12.4238 25.8058C12.9419 25.6374 13.3769 25.3418 13.8069 24.9768C14.2208 24.6254 14.6906 24.1556 15.2598 23.5864L24.0863 14.7598C24.6555 14.1906 25.1253 13.7209 25.4767 13.3069C25.8417 12.877 26.1374 12.4419 26.3057 11.9239C26.5667 11.1205 26.5667 10.2551 26.3057 9.45176C26.1391 8.93912 25.8479 8.50792 25.4884 8.08253C25.1364 7.66608 24.6653 7.19483 24.0947 6.62419C23.733 6.26251 23.1567 6.23204 22.759 6.55355C21.9744 7.18771 20.8199 7.13947 20.0902 6.40983C19.3606 5.68019 19.3123 4.52568 19.9465 3.74109C20.268 3.34331 20.2375 2.76703 19.8759 2.40536ZM16.4303 2.09648C16.5954 2.15012 16.7974 2.26096 17.1265 2.53915C17.3453 2.72409 17.592 2.95785 17.8995 3.26036C17.1827 4.74939 17.4413 6.58939 18.676 7.82405C19.9107 9.0587 21.7507 9.31735 23.2397 8.60059C23.5422 8.90803 23.776 9.15473 23.9609 9.37355C24.2391 9.7027 24.3499 9.9047 24.4036 10.0698C24.5341 10.4715 24.5341 10.9042 24.4036 11.3059C24.3493 11.4728 24.2367 11.6772 23.952 12.0126C23.6598 12.3568 23.2486 12.7691 22.6429 13.3748L20.966 15.0518L19.7071 13.7929C19.3166 13.4024 18.6834 13.4024 18.2929 13.7929C17.9024 14.1834 17.9024 14.8166 18.2929 15.2071L19.5518 16.466L13.8748 22.143C13.2691 22.7486 12.8568 23.1598 12.5125 23.4521C12.1772 23.7368 11.9727 23.8494 11.8058 23.9036C11.4041 24.0342 10.9714 24.0342 10.5697 23.9036C10.4046 23.85 10.2026 23.7392 9.87348 23.461C9.65466 23.276 9.40797 23.0423 9.10052 22.7397C9.81726 21.2507 9.55861 19.4107 8.32396 18.1761C7.08931 16.9414 5.24933 16.6828 3.76031 17.3995C3.45779 17.0921 3.22403 16.8454 3.03909 16.6266C2.7609 16.2974 2.65006 16.0954 2.59642 15.9303C2.46591 15.5287 2.46591 15.096 2.59642 14.6943C2.65066 14.5273 2.76329 14.3229 3.04797 13.9875C3.34023 13.6433 3.75142 13.231 4.35711 12.6253L10.0341 6.94831L11.2929 8.20711C11.6834 8.59764 12.3166 8.59764 12.7071 8.20711C13.0976 7.81659 13.0976 7.18342 12.7071 6.7929L11.4483 5.5341L13.1252 3.85717C13.7309 3.25148 14.1432 2.84029 14.4875 2.54803C14.8228 2.26335 15.0273 2.15073 15.1942 2.09648C15.5959 1.96597 16.0286 1.96597 16.4303 2.09648ZM15.4571 9.5429C15.0666 9.15238 14.4334 9.15238 14.0429 9.5429C13.6524 9.93342 13.6524 10.5666 14.0429 10.9571L15.5429 12.4571C15.9334 12.8476 16.5666 12.8476 16.9571 12.4571C17.3476 12.0666 17.3476 11.4334 16.9571 11.0429L15.4571 9.5429Z" fill="url(#paint0_linear_317_2716)"/>
<defs>
<linearGradient id="paint0_linear_317_2716" x1="0.498535" y1="13.255" x2="26.5015" y2="13.255" gradientUnits="userSpaceOnUse">
<stop stop-color="#E12131"/>
<stop offset="1" stop-color="#FEA310"/>
</linearGradient>
</defs>
</svg>
