<svg width="25" height="25" viewBox="0 0 25 25" fill="none" xmlns="http://www.w3.org/2000/svg">
<path d="M12.5002 0.833374C18.9285 0.833374 24.1668 5.54671 24.1668 11.3334C24.1668 15.195 21.0285 18.3334 17.1668 18.3334H15.1018C14.7752 18.3334 14.5185 18.59 14.5185 18.9167C14.5185 19.0567 14.5768 19.185 14.6702 19.3017C15.1485 19.85 15.4168 20.5384 15.4168 21.25C15.4168 22.86 14.1102 24.1667 12.5002 24.1667C6.07183 24.1667 0.833496 18.9284 0.833496 12.5C0.833496 6.07171 6.07183 0.833374 12.5002 0.833374ZM12.4952 2.83004C7.16733 2.83004 2.83016 7.16721 2.83016 12.495C2.83016 17.8229 7.16733 22.16 12.4952 22.16C12.8334 22.16 13.0992 21.8943 13.0992 21.556C13.0992 21.3627 13.0026 21.2177 12.9301 21.1331C12.4348 20.5774 12.169 19.8646 12.169 19.1397C12.169 17.4725 13.5221 16.1194 15.1893 16.1194H17.3277C19.9976 16.1194 22.1602 13.9569 22.1602 11.2869C22.1602 6.62355 17.823 2.83004 12.4952 2.83004ZM6.0835 10.1667C7.04999 10.1667 7.8335 10.9502 7.8335 11.9167C7.8335 12.8832 7.04999 13.6667 6.0835 13.6667C5.117 13.6667 4.3335 12.8832 4.3335 11.9167C4.3335 10.9502 5.117 10.1667 6.0835 10.1667ZM18.9168 10.1667C19.8833 10.1667 20.6668 10.9502 20.6668 11.9167C20.6668 12.8832 19.8833 13.6667 18.9168 13.6667C17.9503 13.6667 17.1668 12.8832 17.1668 11.9167C17.1668 10.9502 17.9503 10.1667 18.9168 10.1667ZM9.5835 5.50004C10.55 5.50004 11.3335 6.28354 11.3335 7.25004C11.3335 8.21654 10.55 9.00004 9.5835 9.00004C8.617 9.00004 7.8335 8.21654 7.8335 7.25004C7.8335 6.28354 8.617 5.50004 9.5835 5.50004ZM15.4168 5.50004C16.3833 5.50004 17.1668 6.28354 17.1668 7.25004C17.1668 8.21654 16.3833 9.00004 15.4168 9.00004C14.4503 9.00004 13.6668 8.21654 13.6668 7.25004C13.6668 6.28354 14.4503 5.50004 15.4168 5.50004Z" fill="url(#paint0_linear_317_2861)"/>
<defs>
<linearGradient id="paint0_linear_317_2861" x1="0.833496" y1="12.7288" x2="24.1668" y2="12.7288" gradientUnits="userSpaceOnUse">
<stop stop-color="#E12131"/>
<stop offset="1" stop-color="#FEA310"/>
</linearGradient>
</defs>
</svg>
