<svg width="25" height="22" viewBox="0 0 25 22" fill="none" xmlns="http://www.w3.org/2000/svg">
<path fill-rule="evenodd" clip-rule="evenodd" d="M11.5365 0.248542C12.1367 -0.0813398 12.8639 -0.0812124 13.4639 0.248881L23.4594 5.74765C24.0919 6.09557 24.5002 6.77628 24.5002 7.50001V15C24.5002 15.5523 24.0525 16 23.5002 16C22.9479 16 22.5002 15.5523 22.5002 15V9.78004L20.5002 10.8803V14.0413C20.5002 14.4663 20.5002 14.7263 20.4865 14.9529C20.2575 18.7384 17.2386 21.7573 13.453 21.9863C13.136 22.0055 12.8175 22.0001 12.5001 22C12.1828 22.0001 11.8643 22.0055 11.5473 21.9863C7.76175 21.7573 4.74284 18.7384 4.51386 14.9529C4.50015 14.7263 4.50016 14.4663 4.50017 14.0412V10.8838L1.5327 9.25266C0.150554 8.49294 0.150561 6.50703 1.53271 5.74731L11.5365 0.248542ZM6.50017 11.9831V14C6.50017 14.4789 6.50063 14.6738 6.51021 14.8321C6.67813 17.6082 8.892 19.8221 11.6681 19.99C11.8264 19.9996 12.0213 20 12.5002 20C12.9791 20 13.174 19.9996 13.3323 19.99C16.1083 19.8221 18.3222 17.6082 18.4901 14.8321C18.4997 14.6738 18.5002 14.4789 18.5002 14V11.9806L13.4639 14.7511C12.8639 15.0812 12.1367 15.0814 11.5365 14.7515L6.50017 11.9831ZM12.4999 2.00122L2.49609 7.49999L12.4999 12.9988L22.4954 7.49999L12.4999 2.00122Z" fill="url(#paint0_linear_317_2626)"/>
<defs>
<linearGradient id="paint0_linear_317_2626" x1="0.496094" y1="11.2167" x2="24.5002" y2="11.2167" gradientUnits="userSpaceOnUse">
<stop stop-color="#E12131"/>
<stop offset="1" stop-color="#FEA310"/>
</linearGradient>
</defs>
</svg>
