<svg width="23" height="23" viewBox="0 0 23 23" fill="none" xmlns="http://www.w3.org/2000/svg">
<path fill-rule="evenodd" clip-rule="evenodd" d="M2.45359 20.5348C-0.158358 17.9228 -0.158359 13.688 2.45359 11.0761L11.0524 2.47727C13.6644 -0.134674 17.8992 -0.134679 20.5111 2.47727C23.1231 5.08922 23.1231 9.32402 20.5111 11.936L11.9123 20.5348C9.30035 23.1467 5.06554 23.1467 2.45359 20.5348ZM8.72152 7.63659L12.4666 3.89149C14.2975 2.06059 17.266 2.06059 19.0969 3.89148C20.9278 5.72238 20.9278 8.69086 19.0969 10.5218L15.3518 14.2669L8.72152 7.63659ZM7.30731 9.0508L3.8678 12.4903C2.0369 14.3212 2.0369 17.2897 3.8678 19.1206C5.6987 20.9515 8.66718 20.9515 10.4981 19.1206L13.9376 15.6811L7.30731 9.0508Z" fill="url(#paint0_linear_317_2721)"/>
<defs>
<linearGradient id="paint0_linear_317_2721" x1="0.494629" y1="11.7215" x2="22.4701" y2="11.7215" gradientUnits="userSpaceOnUse">
<stop stop-color="#E12131"/>
<stop offset="1" stop-color="#FEA310"/>
</linearGradient>
</defs>
</svg>
