<svg width="23" height="23" viewBox="0 0 23 23" fill="none" xmlns="http://www.w3.org/2000/svg">
<path d="M10.5788 0C7.96964 0 5.84702 1.99254 5.53857 4.52832C5.47188 5.07656 5.86226 5.57506 6.4105 5.64175C6.95874 5.70844 7.45724 5.31807 7.52393 4.76982C7.71593 3.19146 9.02682 2 10.5788 2C11.4463 2 12.38 2.56426 13.3458 3.94986C13.7842 4.57882 14.7156 4.57882 15.154 3.94986C16.1198 2.56426 17.0535 2 17.9209 2C19.601 2 20.9999 3.39802 20.9999 5.16857C20.9999 5.90198 20.8797 6.46529 20.622 6.99707C20.3568 7.54429 19.9176 8.11716 19.1911 8.82723C18.7962 9.21328 18.789 9.8464 19.175 10.2414C19.561 10.6363 20.1942 10.6435 20.5891 10.2575C21.401 9.46391 22.0167 8.70526 22.4218 7.86919C22.8344 7.01767 22.9999 6.14592 22.9999 5.16857C22.9999 2.33465 20.7463 0 17.9209 0C16.4658 0 15.2478 0.758829 14.2499 1.87076C13.2519 0.758829 12.0339 0 10.5788 0Z" fill="url(#paint0_linear_317_2708)"/>
<path fill-rule="evenodd" clip-rule="evenodd" d="M5.07895 7.5C2.25354 7.5 0 9.83465 0 12.6686C0 14.1777 0.397169 15.3711 1.35447 16.5954C2.25749 17.7503 3.6656 18.9373 5.62353 20.4936L7.67461 22.1239C8.30544 22.6254 9.19456 22.6254 9.82539 22.1239L11.8765 20.4936C13.8344 18.9373 15.2425 17.7503 16.1455 16.5954C17.1028 15.3711 17.5 14.1777 17.5 12.6686C17.5 9.83465 15.2465 7.5 12.4211 7.5C10.954 7.5 9.73666 8.31327 8.75 9.4317C7.76334 8.31327 6.54596 7.5 5.07895 7.5ZM2 12.6686C2 10.898 3.39887 9.5 5.07895 9.5C5.92484 9.5 6.85974 10.1019 7.84531 11.5192C8.28355 12.1495 9.21645 12.1494 9.65469 11.5192C10.6403 10.1019 11.5752 9.5 12.4211 9.5C14.1011 9.5 15.5 10.898 15.5 12.6686C15.5 13.7373 15.2485 14.4958 14.57 15.3635C13.8372 16.3006 12.6225 17.3458 10.632 18.9279L8.75 20.4239L6.86801 18.9279C4.87754 17.3458 3.66277 16.3006 2.93 15.3635C2.25152 14.4958 2 13.7373 2 12.6686Z" fill="url(#paint1_linear_317_2708)"/>
<defs>
<linearGradient id="paint0_linear_317_2708" x1="1.00439e-07" y1="11.4706" x2="22.9999" y2="11.4706" gradientUnits="userSpaceOnUse">
<stop stop-color="#E12131"/>
<stop offset="1" stop-color="#FEA310"/>
</linearGradient>
<linearGradient id="paint1_linear_317_2708" x1="1.00439e-07" y1="11.4706" x2="22.9999" y2="11.4706" gradientUnits="userSpaceOnUse">
<stop stop-color="#E12131"/>
<stop offset="1" stop-color="#FEA310"/>
</linearGradient>
</defs>
</svg>
